<svg width="64" height="64" viewBox="0 0 64 64" fill="none" xmlns="http://www.w3.org/2000/svg">
<path d="M57.1421 50.8271C41.9899 69.2323 22.8642 63.9889 15.1953 59.0666L52.6478 8.02422C49.4376 4.707 76.0823 27.8205 57.1421 50.8271Z" fill="#43D5C7"/>
<path d="M0.0257741 31.8889C-0.48786 22.3011 6.80289 12.485 10.5125 8.77539L27.9546 32.959L10.9405 55.8585C4.62708 49.117 0.667817 43.8737 0.0257741 31.8889Z" fill="#04BAC5"/>
<path d="M31.7828 0.0337816C25.2768 -0.394246 17.5866 3.351 14.5547 5.27712L31.2478 28.6047L48.4759 4.84917C45.2657 2.174 39.9154 0.568816 31.7828 0.0337816Z" fill="#109A9C"/>
<path d="M14.6413 5.28764C12.2548 6.80628 10.9351 8.27068 10.5735 8.81305L27.9294 32.9486L10.9803 55.8637C12.8243 57.9247 14.5509 58.892 15.1836 59.118L52.7429 7.99949C51.3327 6.6978 49.2626 5.37803 48.4039 4.88086L31.3192 28.6096L14.6413 5.28764Z" fill="white"/>
</svg>
