<?xml version="1.0" encoding="utf-8"?>
<!-- Generator: Adobe Illustrator 27.8.1, SVG Export Plug-In . SVG Version: 6.00 Build 0)  -->
<svg version="1.1" xmlns="http://www.w3.org/2000/svg" xmlns:xlink="http://www.w3.org/1999/xlink" x="0px" y="0px"
	 viewBox="0 0 722 104" style="enable-background:new 0 0 722 104;" xml:space="preserve">
<style type="text/css">
	.st0{display:none;}
	.st1{display:inline;}
	.st2{fill:#323956;}
	.st3{fill:url(#SVGID_1_);}
	.st4{fill:url(#SVGID_00000107545961104303415580000011574103855903224223_);}
	.st5{fill:url(#SVGID_00000153700846025311518300000008912792186819482022_);}
	.st6{opacity:0.4;fill:url(#SVGID_00000012469115980256201800000000931415883310807196_);}
	.st7{fill:#FFFFFF;}
	.st8{fill:url(#SVGID_00000055691349005038932100000015694097129788156584_);}
	.st9{fill:url(#SVGID_00000040554193455668758630000005999397818421766565_);}
	.st10{fill:url(#SVGID_00000062168542102818781460000004138273664098316672_);}
	.st11{opacity:0.5;fill:url(#SVGID_00000137819041226056878280000001306514686210925703_);}
</style>
<g id="レイヤー_1" class="st0">
	<g class="st1">
		<g>
			<path class="st2" d="M197.3,58.8L171,19.3h15.2l17.6,29.4l17.7-29.4h14.4l-26.2,39.5v30.3h-12.4V58.8z"/>
			<path class="st2" d="M283.4,19.3h10.7l30.1,69.8H310l-6.5-16h-30.3l-6.3,16H253L283.4,19.3z M299.1,62.5l-10.7-28.4l-10.9,28.4
				H299.1z"/>
			<path class="st2" d="M386.4,33.9c-1.3-1.7-3.2-3.1-5.6-4.3c-2.4-1.1-4.8-1.7-7.2-1.7c-1.4,0-2.9,0.2-4.3,0.5
				c-1.4,0.4-2.8,0.9-3.9,1.7c-1.2,0.8-2.2,1.7-2.9,3c-0.8,1.2-1.1,2.7-1.1,4.4c0,1.6,0.3,2.9,1,4c0.7,1.1,1.6,2.1,2.7,2.9
				c1.1,0.8,2.5,1.5,4.2,2.1c1.6,0.6,3.5,1.2,5.4,1.8c2.2,0.7,4.6,1.5,7,2.5c2.4,0.9,4.6,2.1,6.6,3.6c2,1.5,3.6,3.4,4.9,5.7
				c1.3,2.3,1.9,5.2,1.9,8.6c0,3.7-0.7,7-2.1,9.8c-1.4,2.8-3.2,5.1-5.5,7c-2.3,1.8-5,3.2-8.1,4.1c-3.1,0.9-6.3,1.4-9.8,1.4
				c-4.5,0-9-0.8-13.3-2.5c-4.3-1.7-7.9-4.2-10.6-7.4l8.9-8.3c1.7,2.4,4,4.2,6.9,5.6c2.9,1.4,5.7,2.1,8.4,2.1c1.4,0,2.9-0.2,4.4-0.5
				c1.5-0.4,2.9-1,4.1-1.8c1.2-0.9,2.2-1.9,3-3.2c0.8-1.3,1.1-2.9,1.1-4.8c0-1.8-0.4-3.4-1.3-4.6c-0.9-1.2-2-2.3-3.5-3.2
				c-1.4-0.9-3.2-1.7-5.1-2.3c-2-0.7-4-1.3-6.2-2.1c-2.1-0.7-4.2-1.4-6.3-2.4c-2.1-0.9-4-2.1-5.7-3.6c-1.7-1.5-3-3.4-4.1-5.6
				c-1.1-2.2-1.6-4.9-1.6-8.2c0-3.5,0.7-6.6,2.2-9.2c1.5-2.6,3.4-4.7,5.8-6.4c2.4-1.7,5.1-2.9,8.2-3.7c3.1-0.8,6.2-1.2,9.3-1.2
				c3.5,0,7.1,0.6,10.8,1.9c3.6,1.2,6.8,3.1,9.5,5.6L386.4,33.9z"/>
			<path class="st2" d="M427.1,19.3h12.4v28.2h32.6V19.3h12.4v69.8h-12.4v-31h-32.6v31h-12.4V19.3z"/>
			<path class="st2" d="M519.7,19.3h12.4v69.8h-12.4V19.3z"/>
			<path class="st2" d="M567.2,19.3h24.3c3.3,0,6.5,0.3,9.6,1c3.1,0.7,5.8,1.8,8.2,3.4c2.4,1.6,4.3,3.6,5.8,6.2
				c1.4,2.6,2.2,5.7,2.2,9.4c0,5.1-1.4,9.2-4.3,12.4c-2.9,3.2-6.8,5.3-11.7,6.5l18.6,31h-15l-16.2-29.6h-9.1v29.6h-12.4V19.3z
				 M589.8,49.4c1.8,0,3.5-0.1,5.3-0.4c1.8-0.3,3.4-0.8,4.8-1.5c1.4-0.7,2.6-1.8,3.5-3.1c0.9-1.3,1.4-3.1,1.4-5.2
				c0-1.9-0.4-3.5-1.3-4.7c-0.9-1.2-1.9-2.2-3.3-2.9c-1.3-0.7-2.8-1.2-4.5-1.5c-1.7-0.3-3.3-0.4-4.9-0.4h-11.2v19.6H589.8z"/>
			<path class="st2" d="M645.6,54c0-5.6,0.9-10.6,2.8-15.1c1.9-4.5,4.5-8.3,7.8-11.5c3.3-3.2,7.3-5.6,11.8-7.3
				c4.6-1.7,9.5-2.6,14.9-2.6c5.5,0,10.5,0.9,15.1,2.6c4.6,1.7,8.6,4.1,11.9,7.3c3.4,3.2,6,7,7.8,11.5c1.9,4.5,2.8,9.5,2.8,15.1
				c0,5.5-0.9,10.4-2.8,14.9c-1.9,4.5-4.5,8.4-7.8,11.6c-3.4,3.3-7.3,5.8-11.9,7.6c-4.6,1.8-9.6,2.7-15.1,2.7
				c-5.4,0-10.4-0.9-14.9-2.7c-4.6-1.8-8.5-4.3-11.8-7.6c-3.3-3.3-5.9-7.1-7.8-11.6C646.6,64.4,645.6,59.5,645.6,54z M659.1,54
				c0,3.7,0.6,7.2,1.7,10.3c1.1,3.1,2.8,5.8,4.9,8.1c2.1,2.3,4.7,4.1,7.6,5.4c2.9,1.3,6.2,1.9,9.7,1.9s6.8-0.6,9.8-1.9
				c3-1.3,5.5-3.1,7.6-5.4c2.1-2.3,3.8-5,4.9-8.1c1.1-3.1,1.7-6.6,1.7-10.3c0-3.6-0.6-7-1.7-10.1c-1.2-3.1-2.8-5.8-4.9-8.1
				c-2.1-2.3-4.6-4.1-7.6-5.4c-3-1.3-6.2-2-9.9-2c-3.6,0-6.9,0.7-9.8,2c-2.9,1.3-5.4,3.1-7.5,5.4c-2.1,2.3-3.7,5-4.9,8.1
				C659.7,47,659.1,50.4,659.1,54z"/>
		</g>
		<g>
			<g>
				<g>
					<linearGradient id="SVGID_1_" gradientUnits="userSpaceOnUse" x1="-0.3186" y1="2.3231" x2="118.8284" y2="82.6888">
						<stop  offset="0" style="stop-color:#FFC800"/>
						<stop  offset="0.1809" style="stop-color:#F4983D"/>
						<stop  offset="0.3445" style="stop-color:#EB716D"/>
						<stop  offset="0.4688" style="stop-color:#E55A8B"/>
						<stop  offset="0.5393" style="stop-color:#E35196"/>
						<stop  offset="1" style="stop-color:#1051D7"/>
					</linearGradient>
					<path class="st3" d="M75.1,59.7l2.7,39.5c6.6,0.5,16.9,1.8,27.2,4c-7.1-12.9-12.4-27.6-14.6-48.3L75.1,59.7z"/>
					
						<linearGradient id="SVGID_00000103222822616617997400000008744101458470705805_" gradientUnits="userSpaceOnUse" x1="-0.3186" y1="2.3231" x2="118.8284" y2="82.6888">
						<stop  offset="0" style="stop-color:#FFC800"/>
						<stop  offset="0.1809" style="stop-color:#F4983D"/>
						<stop  offset="0.3445" style="stop-color:#EB716D"/>
						<stop  offset="0.4688" style="stop-color:#E55A8B"/>
						<stop  offset="0.5393" style="stop-color:#E35196"/>
						<stop  offset="1" style="stop-color:#1051D7"/>
					</linearGradient>
					<path style="fill:url(#SVGID_00000103222822616617997400000008744101458470705805_);" d="M63.1,36.9L0.7,0.9
						c7,18.2,7.7,29.6,8.1,35.5L36.2,45l15.5,4.8l11.4,3.6l54.3-17.1c0,0,0.8-16.9,8.1-35.5L63.1,36.9z"/>
					
						<linearGradient id="SVGID_00000071550613825665874080000007964981556537270169_" gradientUnits="userSpaceOnUse" x1="-0.3186" y1="2.3231" x2="118.8284" y2="82.6888">
						<stop  offset="0" style="stop-color:#FFC800"/>
						<stop  offset="0.1809" style="stop-color:#F4983D"/>
						<stop  offset="0.3445" style="stop-color:#EB716D"/>
						<stop  offset="0.4688" style="stop-color:#E55A8B"/>
						<stop  offset="0.5393" style="stop-color:#E35196"/>
						<stop  offset="1" style="stop-color:#1051D7"/>
					</linearGradient>
					<path style="fill:url(#SVGID_00000071550613825665874080000007964981556537270169_);" d="M21.2,103.2c9.2-1.8,14.5-2.8,27.2-4
						l3.3-49.4L36.2,45C35.2,78.2,25.6,95.2,21.2,103.2z"/>
				</g>
			</g>
			
				<linearGradient id="SVGID_00000092441045109419326530000003052652969387435694_" gradientUnits="userSpaceOnUse" x1="26.6323" y1="105.7106" x2="52.5075" y2="50.2211">
				<stop  offset="0.4317" style="stop-color:#231815;stop-opacity:0"/>
				<stop  offset="1" style="stop-color:#231815"/>
			</linearGradient>
			<path style="opacity:0.4;fill:url(#SVGID_00000092441045109419326530000003052652969387435694_);" d="M21.2,103.2
				c9.2-1.8,14.5-2.8,27.2-4l3.3-49.4L36.2,45C35.2,78.2,25.6,95.2,21.2,103.2z"/>
		</g>
	</g>
</g>
<g id="レイヤー_2" class="st0">
	<g class="st1">
		<g>
			<g>
				<path d="M197.6,59l-26.2-39.5h15.2l17.6,29.4l17.7-29.4h14.4L210,59v30.3h-12.4V59z"/>
				<path d="M283.7,19.5h10.7l30.1,69.8h-14.2l-6.5-16h-30.3l-6.3,16h-13.9L283.7,19.5z M299.4,62.6l-10.7-28.4l-10.9,28.4H299.4z"
					/>
				<path d="M386.7,34.1c-1.3-1.7-3.2-3.1-5.6-4.3c-2.4-1.1-4.8-1.7-7.2-1.7c-1.4,0-2.9,0.2-4.3,0.5c-1.4,0.4-2.8,0.9-3.9,1.7
					c-1.2,0.8-2.2,1.7-2.9,3c-0.8,1.2-1.1,2.7-1.1,4.4c0,1.6,0.3,2.9,1,4c0.7,1.1,1.6,2.1,2.7,2.9c1.1,0.8,2.5,1.5,4.2,2.1
					c1.6,0.6,3.5,1.2,5.4,1.8c2.2,0.7,4.6,1.5,7,2.5c2.4,0.9,4.6,2.1,6.6,3.6c2,1.5,3.6,3.4,4.9,5.7c1.3,2.3,1.9,5.2,1.9,8.6
					c0,3.7-0.7,7-2.1,9.8c-1.4,2.8-3.2,5.1-5.5,7c-2.3,1.8-5,3.2-8.1,4.1c-3.1,0.9-6.3,1.4-9.8,1.4c-4.5,0-9-0.8-13.3-2.5
					c-4.3-1.7-7.9-4.2-10.6-7.4l8.9-8.3c1.7,2.4,4,4.2,6.9,5.6c2.9,1.4,5.7,2.1,8.4,2.1c1.4,0,2.9-0.2,4.4-0.5
					c1.5-0.4,2.9-1,4.1-1.8c1.2-0.9,2.2-1.9,3-3.2c0.8-1.3,1.1-2.9,1.1-4.8c0-1.8-0.4-3.4-1.3-4.6c-0.9-1.2-2-2.3-3.5-3.2
					c-1.4-0.9-3.2-1.7-5.1-2.3c-2-0.7-4-1.3-6.2-2.1c-2.1-0.7-4.2-1.4-6.3-2.4c-2.1-0.9-4-2.1-5.7-3.6c-1.7-1.5-3-3.4-4.1-5.6
					c-1.1-2.2-1.6-4.9-1.6-8.2c0-3.5,0.7-6.6,2.2-9.2c1.5-2.6,3.4-4.7,5.8-6.4c2.4-1.7,5.1-2.9,8.2-3.7c3.1-0.8,6.2-1.2,9.3-1.2
					c3.5,0,7.1,0.6,10.8,1.9c3.6,1.2,6.8,3.1,9.5,5.6L386.7,34.1z"/>
				<path d="M427.4,19.5h12.4v28.2h32.6V19.5h12.4v69.8h-12.4v-31h-32.6v31h-12.4V19.5z"/>
				<path d="M520,19.5h12.4v69.8H520V19.5z"/>
				<path d="M567.5,19.5h24.3c3.3,0,6.5,0.3,9.6,1c3.1,0.7,5.8,1.8,8.2,3.4c2.4,1.6,4.3,3.6,5.8,6.2c1.4,2.6,2.2,5.7,2.2,9.4
					c0,5.1-1.4,9.2-4.3,12.4c-2.9,3.2-6.8,5.3-11.7,6.5l18.6,31h-15L589,59.7H580v29.6h-12.4V19.5z M590.1,49.5
					c1.8,0,3.5-0.1,5.3-0.4c1.8-0.3,3.4-0.8,4.8-1.5c1.4-0.7,2.6-1.8,3.5-3.1c0.9-1.3,1.4-3.1,1.4-5.2c0-1.9-0.4-3.5-1.3-4.7
					c-0.9-1.2-1.9-2.2-3.3-2.9c-1.3-0.7-2.8-1.2-4.5-1.5c-1.7-0.3-3.3-0.4-4.9-0.4H580v19.6H590.1z"/>
				<path d="M645.9,54.2c0-5.6,0.9-10.6,2.8-15.1c1.9-4.5,4.5-8.3,7.8-11.5c3.3-3.2,7.3-5.6,11.8-7.3c4.6-1.7,9.5-2.6,14.9-2.6
					c5.5,0,10.5,0.9,15.1,2.6c4.6,1.7,8.6,4.1,11.9,7.3c3.4,3.2,6,7,7.8,11.5c1.9,4.5,2.8,9.5,2.8,15.1c0,5.5-0.9,10.4-2.8,14.9
					c-1.9,4.5-4.5,8.4-7.8,11.6c-3.4,3.3-7.3,5.8-11.9,7.6c-4.6,1.8-9.6,2.7-15.1,2.7c-5.4,0-10.4-0.9-14.9-2.7
					c-4.6-1.8-8.5-4.3-11.8-7.6c-3.3-3.3-5.9-7.1-7.8-11.6C646.9,64.6,645.9,59.6,645.9,54.2z M659.4,54.2c0,3.7,0.6,7.2,1.7,10.3
					c1.1,3.1,2.8,5.8,4.9,8.1c2.1,2.3,4.7,4.1,7.6,5.4c2.9,1.3,6.2,1.9,9.7,1.9s6.8-0.6,9.8-1.9c3-1.3,5.5-3.1,7.6-5.4
					c2.1-2.3,3.8-5,4.9-8.1c1.1-3.1,1.7-6.6,1.7-10.3c0-3.6-0.6-7-1.7-10.1c-1.2-3.1-2.8-5.8-4.9-8.1c-2.1-2.3-4.6-4.1-7.6-5.4
					c-3-1.3-6.2-2-9.9-2c-3.6,0-6.9,0.7-9.8,2c-2.9,1.3-5.4,3.1-7.5,5.4c-2.1,2.3-3.7,5-4.9,8.1C660,47.2,659.4,50.6,659.4,54.2z"/>
			</g>
			<g>
				<path d="M75.4,59.8l2.7,39.5c6.6,0.5,16.9,1.8,27.2,4C98.2,90.5,92.9,75.8,90.7,55L75.4,59.8z"/>
				<path d="M63.4,37.1L1,1c7,18.2,7.7,29.6,8.1,35.5l27.4,8.6c-1,33.2-10.6,50.1-15,58.2c9.2-1.8,14.5-2.8,27.2-4L52,50l11.4,3.6
					l54.3-17.1c0,0,0.8-16.9,8.1-35.5L63.4,37.1z"/>
			</g>
		</g>
	</g>
</g>
<g id="レイヤー_3">
	<g>
		<g>
			<path class="st7" d="M197.6,58.5L171.4,19h15.2l17.6,29.4L221.9,19h14.4L210,58.5v30.3h-12.4V58.5z"/>
			<path class="st7" d="M283.7,19h10.7l30.1,69.8h-14.2l-6.5-16h-30.3l-6.3,16h-13.9L283.7,19z M299.5,62.2l-10.7-28.4l-10.9,28.4
				H299.5z"/>
			<path class="st7" d="M386.7,33.6c-1.3-1.7-3.2-3.1-5.6-4.3c-2.4-1.1-4.8-1.7-7.2-1.7c-1.4,0-2.9,0.2-4.3,0.5
				c-1.4,0.4-2.8,0.9-3.9,1.7c-1.2,0.8-2.2,1.7-2.9,3c-0.8,1.2-1.1,2.7-1.1,4.4c0,1.6,0.3,2.9,1,4c0.7,1.1,1.6,2.1,2.7,2.9
				c1.1,0.8,2.5,1.5,4.2,2.1c1.6,0.6,3.5,1.2,5.4,1.8c2.2,0.7,4.6,1.5,7,2.5c2.4,0.9,4.6,2.1,6.6,3.6c2,1.5,3.6,3.4,4.9,5.7
				c1.3,2.3,1.9,5.2,1.9,8.6c0,3.7-0.7,7-2.1,9.8c-1.4,2.8-3.2,5.1-5.5,7c-2.3,1.8-5,3.2-8.1,4.1c-3.1,0.9-6.3,1.4-9.8,1.4
				c-4.5,0-9-0.8-13.3-2.5c-4.3-1.7-7.9-4.2-10.6-7.4l8.9-8.3c1.7,2.4,4,4.2,6.9,5.6c2.9,1.4,5.7,2.1,8.4,2.1c1.4,0,2.9-0.2,4.4-0.5
				c1.5-0.4,2.9-1,4.1-1.8c1.2-0.9,2.2-1.9,3-3.2c0.8-1.3,1.1-2.9,1.1-4.8c0-1.8-0.4-3.4-1.3-4.6c-0.9-1.2-2-2.3-3.5-3.2
				c-1.4-0.9-3.2-1.7-5.1-2.3c-2-0.7-4-1.3-6.2-2.1c-2.1-0.7-4.2-1.4-6.3-2.4c-2.1-0.9-4-2.1-5.7-3.6c-1.7-1.5-3-3.4-4.1-5.6
				c-1.1-2.2-1.6-4.9-1.6-8.2c0-3.5,0.7-6.6,2.2-9.2c1.5-2.6,3.4-4.7,5.8-6.4c2.4-1.7,5.1-2.9,8.2-3.7c3.1-0.8,6.2-1.2,9.3-1.2
				c3.5,0,7.1,0.6,10.8,1.9c3.6,1.2,6.8,3.1,9.5,5.6L386.7,33.6z"/>
			<path class="st7" d="M427.5,19h12.4v28.2h32.6V19h12.4v69.8h-12.4v-31h-32.6v31h-12.4V19z"/>
			<path class="st7" d="M520.1,19h12.4v69.8h-12.4V19z"/>
			<path class="st7" d="M567.6,19h24.3c3.3,0,6.5,0.3,9.6,1c3.1,0.7,5.8,1.8,8.2,3.4c2.4,1.6,4.3,3.6,5.8,6.2
				c1.4,2.6,2.2,5.7,2.2,9.4c0,5.1-1.4,9.2-4.3,12.4c-2.9,3.2-6.8,5.3-11.7,6.5l18.6,31h-15l-16.2-29.6H580v29.6h-12.4V19z
				 M590.2,49c1.8,0,3.5-0.1,5.3-0.4c1.8-0.3,3.4-0.8,4.8-1.5c1.4-0.7,2.6-1.8,3.5-3.1c0.9-1.3,1.4-3.1,1.4-5.2
				c0-1.9-0.4-3.5-1.3-4.7c-0.9-1.2-1.9-2.2-3.3-2.9c-1.3-0.7-2.8-1.2-4.5-1.5c-1.7-0.3-3.3-0.4-4.9-0.4H580V49H590.2z"/>
			<path class="st7" d="M646,53.7c0-5.6,0.9-10.6,2.8-15.1c1.9-4.5,4.5-8.3,7.8-11.5c3.3-3.2,7.3-5.6,11.8-7.3
				c4.6-1.7,9.5-2.6,14.9-2.6c5.5,0,10.5,0.9,15.1,2.6c4.6,1.7,8.6,4.1,11.9,7.3c3.4,3.2,6,7,7.8,11.5c1.9,4.5,2.8,9.5,2.8,15.1
				c0,5.5-0.9,10.4-2.8,14.9c-1.9,4.5-4.5,8.4-7.8,11.6c-3.4,3.3-7.3,5.8-11.9,7.6c-4.6,1.8-9.6,2.7-15.1,2.7
				c-5.4,0-10.4-0.9-14.9-2.7c-4.6-1.8-8.5-4.3-11.8-7.6c-3.3-3.3-5.9-7.1-7.8-11.6C646.9,64.1,646,59.1,646,53.7z M659.5,53.7
				c0,3.7,0.6,7.2,1.7,10.3c1.1,3.1,2.8,5.8,4.9,8.1c2.1,2.3,4.7,4.1,7.6,5.4c2.9,1.3,6.2,1.9,9.7,1.9c3.5,0,6.8-0.6,9.8-1.9
				c3-1.3,5.5-3.1,7.6-5.4c2.1-2.3,3.8-5,4.9-8.1c1.1-3.1,1.7-6.6,1.7-10.3c0-3.6-0.6-7-1.7-10.1c-1.2-3.1-2.8-5.8-4.9-8.1
				c-2.1-2.3-4.6-4.1-7.6-5.4c-3-1.3-6.2-2-9.9-2c-3.6,0-6.9,0.7-9.8,2c-2.9,1.3-5.4,3.1-7.5,5.4c-2.1,2.3-3.7,5-4.9,8.1
				C660.1,46.7,659.5,50.1,659.5,53.7z"/>
		</g>
		<g>
			<g>
				<g>
					
						<linearGradient id="SVGID_00000152228572039702769100000000679122737886383493_" gradientUnits="userSpaceOnUse" x1="681.8636" y1="473.6296" x2="801.3305" y2="554.2111" gradientTransform="matrix(1 0 0 1 -682 -471)">
						<stop  offset="0" style="stop-color:#FFBA18"/>
						<stop  offset="0.1301" style="stop-color:#F79B3D"/>
						<stop  offset="0.3161" style="stop-color:#EC736D"/>
						<stop  offset="0.4585" style="stop-color:#E55A8B"/>
						<stop  offset="0.5393" style="stop-color:#E35196"/>
						<stop  offset="1" style="stop-color:#1051D7"/>
					</linearGradient>
					<path style="fill:url(#SVGID_00000152228572039702769100000000679122737886383493_);" d="M75.5,60.1l2.7,39.8
						c6.6,0.5,16.9,1.8,27.2,4C98.2,91,92.9,76.2,90.7,55.3L75.5,60.1z"/>
					
						<linearGradient id="SVGID_00000114757075981439154560000004380864473333589658_" gradientUnits="userSpaceOnUse" x1="681.8636" y1="473.6296" x2="801.3305" y2="554.2111" gradientTransform="matrix(1 0 0 1 -682 -471)">
						<stop  offset="0" style="stop-color:#FFBA18"/>
						<stop  offset="0.1301" style="stop-color:#F79B3D"/>
						<stop  offset="0.3161" style="stop-color:#EC736D"/>
						<stop  offset="0.4585" style="stop-color:#E55A8B"/>
						<stop  offset="0.5393" style="stop-color:#E35196"/>
						<stop  offset="1" style="stop-color:#1051D7"/>
					</linearGradient>
					<path style="fill:url(#SVGID_00000114757075981439154560000004380864473333589658_);" d="M63.4,37.2L1,0.9
						c7,18.3,7.7,29.8,8.1,35.8l27.4,8.7L52,50.2l11.4,3.6l54.3-17.2c0,0,0.8-17,8.1-35.8L63.4,37.2z"/>
					
						<linearGradient id="SVGID_00000085215313178319388450000006477192850559129237_" gradientUnits="userSpaceOnUse" x1="681.8636" y1="473.6296" x2="801.3305" y2="554.2111" gradientTransform="matrix(1 0 0 1 -682 -471)">
						<stop  offset="0" style="stop-color:#FFBA18"/>
						<stop  offset="0.1301" style="stop-color:#F79B3D"/>
						<stop  offset="0.3161" style="stop-color:#EC736D"/>
						<stop  offset="0.4585" style="stop-color:#E55A8B"/>
						<stop  offset="0.5393" style="stop-color:#E35196"/>
						<stop  offset="1" style="stop-color:#1051D7"/>
					</linearGradient>
					<path style="fill:url(#SVGID_00000085215313178319388450000006477192850559129237_);" d="M21.6,103.9c9.2-1.8,14.5-2.8,27.2-4
						L52,50.2l-15.5-4.8C35.5,78.8,26,95.9,21.6,103.9z"/>
				</g>
			</g>
			
				<linearGradient id="SVGID_00000070116007659054003360000007901900555654135198_" gradientUnits="userSpaceOnUse" x1="26.8942" y1="106.4325" x2="52.9071" y2="50.6476">
				<stop  offset="0.4317" style="stop-color:#231815;stop-opacity:0"/>
				<stop  offset="1" style="stop-color:#231815"/>
			</linearGradient>
			<path style="opacity:0.5;fill:url(#SVGID_00000070116007659054003360000007901900555654135198_);" d="M21.6,103.9
				c9.2-1.8,14.5-2.8,27.2-4L52,50.2l-15.5-4.8C35.5,78.8,26,95.9,21.6,103.9z"/>
		</g>
	</g>
</g>
<g id="レイヤー_4" class="st0">
	<g class="st1">
		<g>
			<path class="st7" d="M197.5,58.1l-26.2-39.5h15.2L204,48l17.7-29.4h14.4l-26.2,39.5v30.3h-12.4V58.1z"/>
			<path class="st7" d="M283.5,18.6h10.7l30.1,69.8h-14.2l-6.5-16h-30.3l-6.3,16h-13.9L283.5,18.6z M299.3,61.8l-10.7-28.4
				l-10.9,28.4H299.3z"/>
			<path class="st7" d="M386.6,33.2c-1.3-1.7-3.2-3.1-5.6-4.3c-2.4-1.1-4.8-1.7-7.2-1.7c-1.4,0-2.9,0.2-4.3,0.5
				c-1.4,0.4-2.8,0.9-3.9,1.7c-1.2,0.8-2.2,1.7-2.9,3c-0.8,1.2-1.1,2.7-1.1,4.4c0,1.6,0.3,2.9,1,4c0.7,1.1,1.6,2.1,2.7,2.9
				c1.1,0.8,2.5,1.5,4.2,2.1c1.6,0.6,3.5,1.2,5.4,1.8c2.2,0.7,4.6,1.5,7,2.5c2.4,0.9,4.6,2.1,6.6,3.6c2,1.5,3.6,3.4,4.9,5.7
				c1.3,2.3,1.9,5.2,1.9,8.6c0,3.7-0.7,7-2.1,9.8c-1.4,2.8-3.2,5.1-5.5,7c-2.3,1.8-5,3.2-8.1,4.1c-3.1,0.9-6.3,1.4-9.8,1.4
				c-4.5,0-9-0.8-13.3-2.5c-4.3-1.7-7.9-4.2-10.6-7.4l8.9-8.3c1.7,2.4,4,4.2,6.9,5.6c2.9,1.4,5.7,2.1,8.4,2.1c1.4,0,2.9-0.2,4.4-0.5
				c1.5-0.4,2.9-1,4.1-1.8c1.2-0.9,2.2-1.9,3-3.2c0.8-1.3,1.1-2.9,1.1-4.8c0-1.8-0.4-3.4-1.3-4.6c-0.9-1.2-2-2.3-3.5-3.2
				c-1.4-0.9-3.2-1.7-5.1-2.3c-2-0.7-4-1.3-6.2-2.1c-2.1-0.7-4.2-1.4-6.3-2.4c-2.1-0.9-4-2.1-5.7-3.6c-1.7-1.5-3-3.4-4.1-5.6
				c-1.1-2.2-1.6-4.9-1.6-8.2c0-3.5,0.7-6.6,2.2-9.2c1.5-2.6,3.4-4.7,5.8-6.4c2.4-1.7,5.1-2.9,8.2-3.7c3.1-0.8,6.2-1.2,9.3-1.2
				c3.5,0,7.1,0.6,10.8,1.9c3.6,1.2,6.8,3.1,9.5,5.6L386.6,33.2z"/>
			<path class="st7" d="M427.3,18.6h12.4v28.2h32.6V18.6h12.4v69.8h-12.4v-31h-32.6v31h-12.4V18.6z"/>
			<path class="st7" d="M519.9,18.6h12.4v69.8h-12.4V18.6z"/>
			<path class="st7" d="M567.4,18.6h24.3c3.3,0,6.5,0.3,9.6,1c3.1,0.7,5.8,1.8,8.2,3.4c2.4,1.6,4.3,3.6,5.8,6.2
				c1.4,2.6,2.2,5.7,2.2,9.4c0,5.1-1.4,9.2-4.3,12.4c-2.9,3.2-6.8,5.3-11.7,6.5l18.6,31h-15l-16.2-29.6h-9.1v29.6h-12.4V18.6z
				 M590,48.7c1.8,0,3.5-0.1,5.3-0.4c1.8-0.3,3.4-0.8,4.8-1.5c1.4-0.7,2.6-1.8,3.5-3.1c0.9-1.3,1.4-3.1,1.4-5.2
				c0-1.9-0.4-3.5-1.3-4.7c-0.9-1.2-1.9-2.2-3.3-2.9c-1.3-0.7-2.8-1.2-4.5-1.5c-1.7-0.3-3.3-0.4-4.9-0.4h-11.2v19.6H590z"/>
			<path class="st7" d="M645.8,53.3c0-5.6,0.9-10.6,2.8-15.1c1.9-4.5,4.5-8.3,7.8-11.5c3.3-3.2,7.3-5.6,11.8-7.3
				c4.6-1.7,9.5-2.6,14.9-2.6c5.5,0,10.5,0.9,15.1,2.6c4.6,1.7,8.6,4.1,11.9,7.3c3.4,3.2,6,7,7.8,11.5c1.9,4.5,2.8,9.5,2.8,15.1
				c0,5.5-0.9,10.4-2.8,14.9c-1.9,4.5-4.5,8.4-7.8,11.6c-3.4,3.3-7.3,5.8-11.9,7.6c-4.6,1.8-9.6,2.7-15.1,2.7
				c-5.4,0-10.4-0.9-14.9-2.7c-4.6-1.8-8.5-4.3-11.8-7.6c-3.3-3.3-5.9-7.1-7.8-11.6C646.7,63.7,645.8,58.8,645.8,53.3z M659.3,53.3
				c0,3.7,0.6,7.2,1.7,10.3c1.1,3.1,2.8,5.8,4.9,8.1c2.1,2.3,4.7,4.1,7.6,5.4c2.9,1.3,6.2,1.9,9.7,1.9c3.5,0,6.8-0.6,9.8-1.9
				c3-1.3,5.5-3.1,7.6-5.4c2.1-2.3,3.8-5,4.9-8.1c1.1-3.1,1.7-6.6,1.7-10.3c0-3.6-0.6-7-1.7-10.1c-1.2-3.1-2.8-5.8-4.9-8.1
				c-2.1-2.3-4.6-4.1-7.6-5.4c-3-1.3-6.2-2-9.9-2c-3.6,0-6.9,0.7-9.8,2c-2.9,1.3-5.4,3.1-7.5,5.4c-2.1,2.3-3.7,5-4.9,8.1
				C659.9,46.3,659.3,49.7,659.3,53.3z"/>
		</g>
		<g>
			<path class="st7" d="M75.3,59.8L78,99.6c6.6,0.5,16.9,1.8,27.2,4C98,90.7,92.7,75.8,90.6,54.9L75.3,59.8z"/>
			<path class="st7" d="M63.3,36.8L0.8,0.6c7,18.3,7.7,29.8,8.1,35.8L36.4,45c-1,33.4-10.6,50.5-15,58.5c9.2-1.8,14.5-2.8,27.2-4
				l3.3-49.7l11.4,3.6l54.3-17.2c0,0,0.8-17,8.1-35.8L63.3,36.8z"/>
		</g>
	</g>
</g>
</svg>
