<svg width="256" height="256" viewBox="0 0 256 256" fill="none" xmlns="http://www.w3.org/2000/svg">
<rect width="256" height="256" fill="url(#paint0_linear_27_1145)"/>
<rect x="240" width="16" height="256" fill="#FFAEC6"/>
<rect x="16" y="16" width="16" height="224" fill="#FF2D6B"/>
<rect x="256" y="240" width="16" height="256" transform="rotate(90 256 240)" fill="#FFAEC6"/>
<rect x="256" width="16" height="256" transform="rotate(90 256 0)" fill="#FF80A5"/>
<rect width="16" height="240" fill="#FF80A5"/>
<rect x="16.5" y="16.5" width="71" height="167" fill="url(#paint1_linear_27_1145)" stroke="#FF2D6B"/>
<rect x="87.5" y="16.5" width="71" height="127" fill="url(#paint2_linear_27_1145)" stroke="#FF2D6B"/>
<rect x="230.5" y="16.5" width="9" height="47" fill="url(#paint3_linear_27_1145)" stroke="#FF2D6B"/>
<path d="M158.5 16.5H229.5V103.5H158.5V16.5Z" fill="url(#paint4_linear_27_1145)" stroke="#FF2D6B"/>
<defs>
<linearGradient id="paint0_linear_27_1145" x1="244" y1="1.24983e-05" x2="8" y2="256" gradientUnits="userSpaceOnUse">
<stop offset="0.455" stop-color="#FF2D6B"/>
<stop offset="1" stop-color="white"/>
</linearGradient>
<linearGradient id="paint1_linear_27_1145" x1="16" y1="100" x2="88" y2="100" gradientUnits="userSpaceOnUse">
<stop stop-color="#FF5F8E"/>
<stop offset="1" stop-color="white"/>
<stop offset="1.0001" stop-color="white"/>
</linearGradient>
<linearGradient id="paint2_linear_27_1145" x1="87" y1="80" x2="159" y2="80" gradientUnits="userSpaceOnUse">
<stop stop-color="#FF346F"/>
<stop offset="1" stop-color="white"/>
</linearGradient>
<linearGradient id="paint3_linear_27_1145" x1="230" y1="40" x2="240" y2="40" gradientUnits="userSpaceOnUse">
<stop stop-color="#FF004A"/>
<stop offset="1" stop-color="white"/>
</linearGradient>
<linearGradient id="paint4_linear_27_1145" x1="158" y1="60" x2="230" y2="60" gradientUnits="userSpaceOnUse">
<stop stop-color="#FF2464"/>
<stop offset="1" stop-color="white"/>
</linearGradient>
</defs>
</svg>
