<svg width="64" height="64" viewBox="0 0 64 64" fill="none" xmlns="http://www.w3.org/2000/svg">
<rect width="64" height="64" fill="url(#paint0_linear_27_1122)"/>
<rect x="60" width="4" height="64" fill="#FFAEC6"/>
<rect x="4" y="4" width="4" height="56" fill="#FF2D6B"/>
<rect x="64" y="60" width="4" height="64" transform="rotate(90 64 60)" fill="#FFAEC6"/>
<rect x="64" width="4" height="64" transform="rotate(90 64 0)" fill="#FF80A5"/>
<rect width="4" height="60" fill="#FF80A5"/>
<rect x="4.5" y="4.5" width="17" height="41" fill="url(#paint1_linear_27_1122)" stroke="#FF2D6B"/>
<rect x="21.5" y="4.5" width="17" height="31" fill="url(#paint2_linear_27_1122)" stroke="#FF2D6B"/>
<rect x="56.5" y="4.5" width="3" height="11" fill="url(#paint3_linear_27_1122)" stroke="#FF2D6B"/>
<path d="M38.5 4.5H55.5V25.5H38.5V4.5Z" fill="url(#paint4_linear_27_1122)" stroke="#FF2D6B"/>
<defs>
<linearGradient id="paint0_linear_27_1122" x1="61" y1="3.12459e-06" x2="2" y2="64" gradientUnits="userSpaceOnUse">
<stop offset="0.455" stop-color="#FF2D6B"/>
<stop offset="1" stop-color="white"/>
</linearGradient>
<linearGradient id="paint1_linear_27_1122" x1="4" y1="25" x2="22" y2="25" gradientUnits="userSpaceOnUse">
<stop stop-color="#FF5F8E"/>
<stop offset="1" stop-color="white"/>
<stop offset="1.0001" stop-color="white"/>
</linearGradient>
<linearGradient id="paint2_linear_27_1122" x1="21" y1="20" x2="39" y2="20" gradientUnits="userSpaceOnUse">
<stop stop-color="#FF346F"/>
<stop offset="1" stop-color="white"/>
</linearGradient>
<linearGradient id="paint3_linear_27_1122" x1="56" y1="10" x2="60" y2="10" gradientUnits="userSpaceOnUse">
<stop stop-color="#FF004A"/>
<stop offset="1" stop-color="white"/>
</linearGradient>
<linearGradient id="paint4_linear_27_1122" x1="38" y1="15" x2="56" y2="15" gradientUnits="userSpaceOnUse">
<stop stop-color="#FF2464"/>
<stop offset="1" stop-color="white"/>
</linearGradient>
</defs>
</svg>
