<svg width="32" height="32" viewBox="0 0 32 32" fill="none" xmlns="http://www.w3.org/2000/svg">
<path d="M28.571 25.4135C20.9949 34.6161 11.4321 31.9945 7.59766 29.5333L26.3239 4.01211C24.7188 2.3535 38.0412 13.9103 28.571 25.4135Z" fill="#43D5C7"/>
<path d="M0.0128871 15.9444C-0.24393 11.1505 3.40145 6.24248 5.25624 4.3877L13.9773 16.4795L5.47025 27.9292C2.31354 24.5585 0.333908 21.9368 0.0128871 15.9444Z" fill="#04BAC5"/>
<path d="M15.8914 0.0168908C12.6384 -0.197123 8.79328 1.6755 7.27734 2.63856L15.6239 14.3024L24.238 2.42459C22.6329 1.087 19.9577 0.284408 15.8914 0.0168908Z" fill="#109A9C"/>
<path d="M7.31929 2.64382C6.12608 3.40314 5.46619 4.13534 5.2854 4.40652L13.9633 16.4743L5.48879 27.9319C6.41082 28.9624 7.2741 29.446 7.59048 29.559L26.3701 3.99975C25.665 3.3489 24.63 2.68902 24.2006 2.44043L15.6583 14.3048L7.31929 2.64382Z" fill="white"/>
</svg>
