<svg width="32" height="32" viewBox="0 0 32 32" fill="none" xmlns="http://www.w3.org/2000/svg">
<path d="M28.571 25.4133C20.9949 34.6159 11.4321 31.9943 7.59766 29.5331L26.3239 4.01199C24.7187 2.35338 38.0411 13.9101 28.571 25.4133Z" fill="#43D5C7"/>
<path d="M0.012887 15.9442C-0.243929 11.1503 3.40143 6.24224 5.25622 4.38745L13.9773 16.4792L5.47023 27.929C2.31353 24.5582 0.333907 21.9366 0.012887 15.9442Z" fill="#04BAC5"/>
<path d="M15.8914 0.0168908C12.6384 -0.197123 8.79328 1.6755 7.27734 2.63856L15.6239 14.3023L24.2379 2.42458C22.6328 1.087 19.9577 0.284408 15.8914 0.0168908Z" fill="#109A9C"/>
<path d="M7.32076 2.64382C6.12754 3.40314 5.46766 4.13534 5.28687 4.40653L13.9648 16.4743L5.49025 27.9319C6.41228 28.9624 7.27556 29.446 7.59194 29.559L26.3715 3.99975C25.6664 3.3489 24.6314 2.68902 24.202 2.44043L15.6597 14.3048L7.32076 2.64382Z" fill="black"/>
</svg>
