<svg width="570" height="120" viewBox="0 0 570 120" fill="none" xmlns="http://www.w3.org/2000/svg">
<rect x="120.864" y="32.7151" width="10.905" height="10.905" fill="#FF2D6B"/>
<rect x="162.667" y="87.2402" width="10.905" height="10.905" fill="#FF2D6B"/>
<rect x="162.667" y="76.3352" width="10.905" height="10.905" fill="#FF2D6B"/>
<rect x="162.667" y="65.4302" width="10.905" height="10.905" fill="#FF2D6B"/>
<rect x="162.667" y="54.5251" width="10.905" height="10.905" fill="#FF2D6B"/>
<rect x="162.667" y="43.6201" width="10.905" height="10.905" fill="#FF2D6B"/>
<rect x="153.579" y="32.7151" width="10.905" height="10.905" fill="#FF2D6B"/>
<rect x="142.674" y="32.7151" width="10.905" height="10.905" fill="#FF2D6B"/>
<rect x="131.769" y="43.6201" width="10.905" height="10.905" fill="#FF2D6B"/>
<rect x="120.864" y="87.2402" width="10.905" height="10.905" fill="#FF2D6B"/>
<rect x="120.864" y="76.3352" width="10.905" height="10.905" fill="#FF2D6B"/>
<rect x="120.864" y="65.4302" width="10.905" height="10.905" fill="#FF2D6B"/>
<rect x="120.864" y="54.5251" width="10.905" height="10.905" fill="#FF2D6B"/>
<rect x="120.864" y="43.6201" width="10.905" height="10.905" fill="#FF2D6B"/>
<rect x="255.36" y="32.7151" width="10.905" height="10.905" fill="#FF2D6B"/>
<rect x="255.36" y="87.2402" width="10.905" height="10.905" fill="#FF2D6B"/>
<rect x="288.075" y="76.3352" width="10.905" height="10.905" fill="#FF2D6B"/>
<rect x="288.075" y="65.4302" width="10.905" height="10.905" fill="#FF2D6B"/>
<rect x="288.075" y="54.5251" width="10.905" height="10.905" fill="#FF2D6B"/>
<rect x="288.075" y="43.6201" width="10.905" height="10.905" fill="#FF2D6B"/>
<rect x="288.075" y="87.2402" width="10.905" height="10.905" fill="#FF2D6B"/>
<rect x="277.169" y="87.2402" width="10.905" height="10.905" fill="#FF2D6B"/>
<rect x="266.265" y="87.2402" width="10.905" height="10.905" fill="#FF2D6B"/>
<rect x="246.272" y="76.3352" width="10.905" height="10.905" fill="#FF2D6B"/>
<rect x="246.272" y="65.4302" width="10.905" height="10.905" fill="#FF2D6B"/>
<rect x="246.272" y="54.5251" width="10.905" height="10.905" fill="#FF2D6B"/>
<rect x="246.272" y="43.6201" width="10.905" height="10.905" fill="#FF2D6B"/>
<rect x="288.075" y="32.7151" width="10.905" height="10.905" fill="#FF2D6B"/>
<rect x="288.075" width="10.905" height="10.905" fill="#FF2D6B"/>
<rect x="288.075" y="10.905" width="10.905" height="10.905" fill="#FF2D6B"/>
<rect x="288.075" y="21.8101" width="10.905" height="10.905" fill="#FF2D6B"/>
<rect x="277.169" y="32.7151" width="10.905" height="10.905" fill="#FF2D6B"/>
<rect x="266.265" y="32.7151" width="10.905" height="10.905" fill="#FF2D6B"/>
<rect x="308.067" y="32.7151" width="10.905" height="10.905" fill="#FF2D6B"/>
<rect x="337.147" y="87.2402" width="10.905" height="10.905" fill="#FF2D6B"/>
<rect x="337.147" y="76.3352" width="10.905" height="10.905" fill="#FF2D6B"/>
<rect x="327.151" y="65.4302" width="10.905" height="10.905" fill="#FF2D6B"/>
<rect x="327.151" y="54.5251" width="10.905" height="10.905" fill="#FF2D6B"/>
<rect x="327.151" y="43.6201" width="10.905" height="10.905" fill="#FF2D6B"/>
<rect x="327.151" y="32.7151" width="10.905" height="10.905" fill="#FF2D6B"/>
<rect x="348.052" y="65.4302" width="10.905" height="10.905" fill="#FF2D6B"/>
<rect x="348.052" y="54.5251" width="10.905" height="10.905" fill="#FF2D6B"/>
<rect x="348.052" y="43.6201" width="10.905" height="10.905" fill="#FF2D6B"/>
<rect x="348.052" y="32.7151" width="10.905" height="10.905" fill="#FF2D6B"/>
<rect x="317.155" y="87.2402" width="10.905" height="10.905" fill="#FF2D6B"/>
<rect x="317.155" y="76.3352" width="10.905" height="10.905" fill="#FF2D6B"/>
<rect x="308.067" y="65.4302" width="10.905" height="10.905" fill="#FF2D6B"/>
<rect x="308.067" y="54.5251" width="10.905" height="10.905" fill="#FF2D6B"/>
<rect x="308.067" y="43.6201" width="10.905" height="10.905" fill="#FF2D6B"/>
<rect x="446.197" y="32.7151" width="10.905" height="10.905" fill="#FF2D6B"/>
<rect x="468.007" y="87.2402" width="10.905" height="10.905" fill="#FF2D6B"/>
<rect x="457.102" y="87.2402" width="10.905" height="10.905" fill="#FF2D6B"/>
<rect x="446.197" y="87.2402" width="10.905" height="10.905" fill="#FF2D6B"/>
<rect x="435.292" y="76.3352" width="10.905" height="10.905" fill="#FF2D6B"/>
<rect x="477.095" y="76.3352" width="10.905" height="10.905" fill="#FF2D6B"/>
<rect x="477.095" y="65.4302" width="10.905" height="10.905" fill="#FF2D6B"/>
<rect x="477.095" y="54.5251" width="10.905" height="10.905" fill="#FF2D6B"/>
<rect x="477.095" y="43.6201" width="10.905" height="10.905" fill="#FF2D6B"/>
<rect x="468.007" y="32.7151" width="10.905" height="10.905" fill="#FF2D6B"/>
<rect x="457.102" y="32.7151" width="10.905" height="10.905" fill="#FF2D6B"/>
<rect x="435.292" y="43.6201" width="10.905" height="10.905" fill="#FF2D6B"/>
<rect x="193.564" y="32.7151" width="10.905" height="10.905" fill="#FF2D6B"/>
<rect x="215.374" y="87.2402" width="10.905" height="10.905" fill="#FF2D6B"/>
<rect x="204.469" y="87.2402" width="10.905" height="10.905" fill="#FF2D6B"/>
<rect x="193.564" y="87.2402" width="10.905" height="10.905" fill="#FF2D6B"/>
<rect x="226.279" y="76.3352" width="10.905" height="10.905" fill="#FF2D6B"/>
<rect x="226.279" y="65.4302" width="10.905" height="10.905" fill="#FF2D6B"/>
<rect x="226.279" y="54.5251" width="10.905" height="10.905" fill="#FF2D6B"/>
<rect x="226.279" y="43.6201" width="10.905" height="10.905" fill="#FF2D6B"/>
<rect x="182.659" y="76.3352" width="10.905" height="10.905" fill="#FF2D6B"/>
<rect x="182.659" y="65.4302" width="10.905" height="10.905" fill="#FF2D6B"/>
<rect x="182.659" y="54.5251" width="10.905" height="10.905" fill="#FF2D6B"/>
<rect x="182.659" y="43.6201" width="10.905" height="10.905" fill="#FF2D6B"/>
<rect x="215.374" y="32.7151" width="10.905" height="10.905" fill="#FF2D6B"/>
<rect x="204.469" y="32.7151" width="10.905" height="10.905" fill="#FF2D6B"/>
<rect x="378.95" y="32.7151" width="10.905" height="10.905" fill="#FF2D6B"/>
<rect x="400.76" y="87.2402" width="10.905" height="10.905" fill="#FF2D6B"/>
<rect x="389.855" y="87.2402" width="10.905" height="10.905" fill="#FF2D6B"/>
<rect x="378.95" y="87.2402" width="10.905" height="10.905" fill="#FF2D6B"/>
<rect x="411.665" y="76.3352" width="10.905" height="10.905" fill="#FF2D6B"/>
<rect x="411.665" y="65.4302" width="10.905" height="10.905" fill="#FF2D6B"/>
<rect x="411.665" y="54.5251" width="10.905" height="10.905" fill="#FF2D6B"/>
<rect x="411.665" y="43.6201" width="10.905" height="10.905" fill="#FF2D6B"/>
<rect x="368.045" y="76.3352" width="10.905" height="10.905" fill="#FF2D6B"/>
<rect x="368.045" y="65.4302" width="10.905" height="10.905" fill="#FF2D6B"/>
<rect x="368.045" y="54.5251" width="10.905" height="10.905" fill="#FF2D6B"/>
<rect x="368.045" y="43.6201" width="10.905" height="10.905" fill="#FF2D6B"/>
<rect x="400.76" y="32.7151" width="10.905" height="10.905" fill="#FF2D6B"/>
<rect x="389.855" y="32.7151" width="10.905" height="10.905" fill="#FF2D6B"/>
<rect x="58.1602" y="32.7151" width="10.905" height="10.905" fill="#FF2D6B"/>
<rect x="100.872" y="87.2402" width="10.905" height="10.905" fill="#FF2D6B"/>
<rect x="100.872" y="32.7151" width="10.905" height="10.905" fill="#FF2D6B"/>
<rect x="100.872" y="43.6201" width="10.905" height="10.905" fill="#FF2D6B"/>
<rect x="100.872" y="54.5251" width="10.905" height="10.905" fill="#FF2D6B"/>
<rect x="100.872" y="65.4302" width="10.905" height="10.905" fill="#FF2D6B"/>
<rect x="100.872" y="76.3352" width="10.905" height="10.905" fill="#FF2D6B"/>
<rect x="89.9666" y="76.3352" width="10.905" height="10.905" fill="#FF2D6B"/>
<rect x="79.0613" y="87.2402" width="10.905" height="10.905" fill="#FF2D6B"/>
<rect x="68.1565" y="87.2402" width="10.905" height="10.905" fill="#FF2D6B"/>
<rect x="58.1602" y="76.3352" width="10.905" height="10.905" fill="#FF2D6B"/>
<rect x="58.1602" y="65.4302" width="10.905" height="10.905" fill="#FF2D6B"/>
<rect x="58.1602" y="54.5251" width="10.905" height="10.905" fill="#FF2D6B"/>
<rect x="58.1602" y="43.6201" width="10.905" height="10.905" fill="#FF2D6B"/>
<rect x="40.8938" y="41.8026" width="10.905" height="10.905" fill="#FF2D6B"/>
<rect y="109.05" width="10.905" height="10.905" fill="#FF2D6B"/>
<rect y="98.1453" width="10.905" height="10.905" fill="#FF2D6B"/>
<rect y="87.2402" width="10.905" height="10.905" fill="#FF2D6B"/>
<rect x="32.7151" y="72.7002" width="10.905" height="10.905" fill="#FF2D6B"/>
<rect x="21.8101" y="72.7002" width="10.905" height="10.905" fill="#FF2D6B"/>
<rect x="10.905" y="72.7002" width="10.905" height="10.905" fill="#FF2D6B"/>
<rect y="76.3352" width="10.905" height="10.905" fill="#FF2D6B"/>
<rect y="65.4302" width="10.905" height="10.905" fill="#FF2D6B"/>
<rect y="54.5251" width="10.905" height="10.905" fill="#FF2D6B"/>
<rect y="43.6201" width="10.905" height="10.905" fill="#FF2D6B"/>
<rect x="32.7151" y="32.7151" width="10.905" height="10.905" fill="#FF2D6B"/>
<rect x="21.8101" y="32.7151" width="10.905" height="10.905" fill="#FF2D6B"/>
<rect x="10.905" y="32.7151" width="10.905" height="10.905" fill="#FF2D6B"/>
<rect y="32.7151" width="10.905" height="10.905" fill="#FF2D6B"/>
<rect x="40.8938" y="63.6127" width="10.905" height="10.905" fill="#FF2D6B"/>
<rect x="40.8938" y="52.7076" width="10.905" height="10.905" fill="#FF2D6B"/>
<rect x="169.6" y="62" width="4" height="4" fill="#FF80A5"/>
<rect x="169.6" y="74" width="4" height="4" fill="#FF80A5"/>
<rect x="169.6" y="70" width="4" height="4" fill="#FF80A5"/>
<rect x="169.6" y="66" width="4" height="4" fill="#FF80A5"/>
<rect x="166" y="76" width="4" height="4" fill="#FF80A5"/>
<rect x="166" y="68" width="4" height="4" fill="#FF80A5"/>
<rect x="166" y="58" width="4" height="4" fill="#FF80A5"/>
<rect x="162.6" y="43.6" width="4" height="4" fill="#FF80A5"/>
<rect x="124" y="90" width="4" height="4" fill="#FF80A5"/>
<rect x="127.8" y="86" width="4" height="4" fill="#FF80A5"/>
<rect x="124" y="82" width="4" height="4" fill="#FF80A5"/>
<rect x="154" y="36" width="4" height="4" fill="#FF80A5"/>
<rect x="146" y="39.6" width="4" height="4" fill="#FF80A5"/>
<rect x="136" y="50.3999" width="4" height="4" fill="#FF80A5"/>
<rect x="124" y="48" width="4" height="4" fill="#FF80A5"/>
<rect x="127.8" y="54" width="4" height="4" fill="#FF80A5"/>
<rect x="166.6" y="90" width="4" height="4" transform="rotate(90 166.6 90)" fill="#FF80A5"/>
<rect x="170.6" y="90" width="4" height="4" transform="rotate(90 170.6 90)" fill="#FF80A5"/>
<rect x="127.8" y="32.6" width="4" height="4" transform="rotate(90 127.8 32.6)" fill="#FF80A5"/>
<rect x="131.8" y="32.6" width="4" height="4" transform="rotate(90 131.8 32.6)" fill="#FF80A5"/>
<rect x="105" y="36.676" width="4" height="4" fill="#FF80A5"/>
<rect x="101" y="36.676" width="4" height="4" fill="#FF80A5"/>
<rect x="101" y="32.676" width="4" height="4" fill="#FF80A5"/>
<rect x="94" y="79.676" width="4" height="4" fill="#FF80A5"/>
<rect x="74" y="91.276" width="4" height="4" fill="#FF80A5"/>
<rect x="78" y="91.276" width="4" height="4" fill="#FF80A5"/>
<rect x="78" y="87.276" width="4" height="4" fill="#FF80A5"/>
<rect x="60" y="53.676" width="4" height="4" fill="#FF80A5"/>
<rect x="104" y="61.676" width="4" height="4" fill="#FF80A5"/>
<rect x="104" y="73.676" width="4" height="4" fill="#FF80A5"/>
<rect x="104" y="69.676" width="4" height="4" fill="#FF80A5"/>
<rect x="104" y="65.676" width="4" height="4" fill="#FF80A5"/>
<rect x="107.8" y="51.676" width="4" height="4" fill="#FF80A5"/>
<rect x="107.8" y="63.676" width="4" height="4" fill="#FF80A5"/>
<rect x="107.8" y="59.676" width="4" height="4" fill="#FF80A5"/>
<rect x="107.8" y="55.676" width="4" height="4" fill="#FF80A5"/>
<rect x="104" y="89.676" width="4" height="4" fill="#FF80A5"/>
<rect x="107.8" y="93.676" width="4" height="4" fill="#FF80A5"/>
<rect x="104" y="81.676" width="4" height="4" fill="#FF80A5"/>
<rect x="58.2" y="43.676" width="4" height="4" fill="#FF80A5"/>
<rect x="62.2" y="39.676" width="4" height="4" fill="#FF80A5"/>
<rect x="62.2" y="43.676" width="4" height="4" fill="#FF80A5"/>
<rect x="474.8" y="94.2" width="4" height="4" fill="#FF80A5"/>
<rect x="470.8" y="94.2" width="4" height="4" fill="#FF80A5"/>
<rect x="470.8" y="90.2" width="4" height="4" fill="#FF80A5"/>
<rect x="484" y="54" width="4" height="4" transform="rotate(180 484 54)" fill="#FF80A5"/>
<rect x="488" y="54" width="4" height="4" transform="rotate(180 488 54)" fill="#FF80A5"/>
<rect x="488" y="58" width="4" height="4" transform="rotate(180 488 58)" fill="#FF80A5"/>
<rect x="468" y="39.6" width="4" height="4" transform="rotate(-180 468 39.6)" fill="#FF80A5"/>
<rect x="472" y="39.6" width="4" height="4" transform="rotate(-180 472 39.6)" fill="#FF80A5"/>
<rect x="472" y="43.6" width="4" height="4" transform="rotate(-180 472 43.6)" fill="#FF80A5"/>
<rect x="442.2" y="47.6" width="4" height="4" transform="rotate(90 442.2 47.6)" fill="#FF80A5"/>
<rect x="442.2" y="43.6" width="4" height="4" transform="rotate(90 442.2 43.6)" fill="#FF80A5"/>
<rect x="446.2" y="43.6" width="4" height="4" transform="rotate(90 446.2 43.6)" fill="#FF80A5"/>
<rect x="446.2" y="94.2" width="4" height="4" fill="#FF80A5"/>
<rect x="484" y="58" width="4" height="4" fill="#FF80A5"/>
<rect x="474" y="32.6" width="4" height="4" fill="#FF80A5"/>
<rect x="435.2" y="76.2" width="4" height="4" fill="#FF80A5"/>
<rect x="442.2" y="50.6" width="4" height="4" fill="#FF80A5"/>
<rect x="484" y="83.2" width="4" height="4" transform="rotate(90 484 83.2)" fill="#FF80A5"/>
<rect x="488" y="83.2" width="4" height="4" transform="rotate(90 488 83.2)" fill="#FF80A5"/>
<rect x="456" y="87.2" width="4" height="4" transform="rotate(90 456 87.2)" fill="#FF80A5"/>
<rect x="460" y="87.2" width="4" height="4" transform="rotate(90 460 87.2)" fill="#FF80A5"/>
<rect x="439.2" y="50.6" width="4" height="4" transform="rotate(90 439.2 50.6)" fill="#FF80A5"/>
<rect x="443.2" y="50.6" width="4" height="4" transform="rotate(90 443.2 50.6)" fill="#FF80A5"/>
<rect x="331" y="42" width="4" height="4" transform="rotate(90 331 42)" fill="#FF80A5"/>
<rect x="331" y="38" width="4" height="4" transform="rotate(90 331 38)" fill="#FF80A5"/>
<rect x="335" y="38" width="4" height="4" transform="rotate(90 335 38)" fill="#FF80A5"/>
<rect x="355" y="44" width="4" height="4" transform="rotate(90 355 44)" fill="#FF80A5"/>
<rect x="355" y="40" width="4" height="4" transform="rotate(90 355 40)" fill="#FF80A5"/>
<rect x="359" y="40" width="4" height="4" transform="rotate(90 359 40)" fill="#FF80A5"/>
<rect x="321" y="92" width="4" height="4" transform="rotate(-90 321 92)" fill="#FF80A5"/>
<rect x="321" y="96" width="4" height="4" transform="rotate(-90 321 96)" fill="#FF80A5"/>
<rect x="317" y="96" width="4" height="4" transform="rotate(-90 317 96)" fill="#FF80A5"/>
<rect x="315" y="34" width="4" height="4" fill="#FF80A5"/>
<rect x="315" y="46" width="4" height="4" fill="#FF80A5"/>
<rect x="315" y="42" width="4" height="4" fill="#FF80A5"/>
<rect x="315" y="38" width="4" height="4" fill="#FF80A5"/>
<rect x="344" y="80" width="4" height="4" fill="#FF80A5"/>
<rect x="340" y="76.2" width="4" height="4" fill="#FF80A5"/>
<rect x="351" y="52" width="4" height="4" fill="#FF80A5"/>
<rect x="351" y="48" width="4" height="4" fill="#FF80A5"/>
<rect x="332" y="64" width="4" height="4" fill="#FF80A5"/>
<rect x="332" y="60" width="4" height="4" fill="#FF80A5"/>
<rect x="315" y="72.4" width="4" height="4" transform="rotate(90 315 72.4)" fill="#FF80A5"/>
<rect x="319" y="72.4" width="4" height="4" transform="rotate(90 319 72.4)" fill="#FF80A5"/>
<rect x="4" y="48" width="4" height="4" transform="rotate(90 4 48)" fill="#FF80A5"/>
<rect x="4" y="44" width="4" height="4" transform="rotate(90 4 44)" fill="#FF80A5"/>
<rect x="8" y="44" width="4" height="4" transform="rotate(90 8 44)" fill="#FF80A5"/>
<rect x="24" y="36.6" width="4" height="4" fill="#FF80A5"/>
<rect x="20" y="36.6" width="4" height="4" fill="#FF80A5"/>
<rect x="20" y="32.6" width="4" height="4" fill="#FF80A5"/>
<rect x="4" y="110" width="4" height="4" fill="#FF80A5"/>
<rect x="4" y="102" width="4" height="4" fill="#FF80A5"/>
<rect y="92" width="4" height="4" fill="#FF80A5"/>
<rect y="84" width="4" height="4" fill="#FF80A5"/>
<rect x="6.80005" y="84" width="4" height="4" fill="#FF80A5"/>
<rect x="39.8" y="79.7999" width="4" height="4" fill="#FF80A5"/>
<rect x="32" y="74" width="4" height="4" fill="#FF80A5"/>
<rect x="26" y="76" width="4" height="4" fill="#FF80A5"/>
<rect x="16" y="74" width="4" height="4" fill="#FF80A5"/>
<rect x="4" y="76" width="4" height="4" fill="#FF80A5"/>
<rect x="41.8" y="60" width="4" height="4" fill="#FF80A5"/>
<rect x="47.8" y="60" width="4" height="4" fill="#FF80A5"/>
<rect x="43.8" y="52" width="4" height="4" fill="#FF80A5"/>
<rect x="47.8" y="48" width="4" height="4" fill="#FF80A5"/>
<rect y="54" width="4" height="4" fill="#FF80A5"/>
<rect x="28" y="36.6" width="4" height="4" fill="#FF80A5"/>
<rect x="10" y="32.6" width="4" height="4" transform="rotate(90 10 32.6)" fill="#FF80A5"/>
<rect x="14" y="32.6" width="4" height="4" transform="rotate(90 14 32.6)" fill="#FF80A5"/>
<rect x="295" y="94.2" width="4" height="4" fill="#FF80A5"/>
<rect x="291" y="94.2" width="4" height="4" fill="#FF80A5"/>
<rect x="291" y="90.2" width="4" height="4" fill="#FF80A5"/>
<rect x="262" y="91.2" width="4" height="4" transform="rotate(90 262 91.2)" fill="#FF80A5"/>
<rect x="262" y="87.2" width="4" height="4" transform="rotate(90 262 87.2)" fill="#FF80A5"/>
<rect x="266" y="87.2" width="4" height="4" transform="rotate(90 266 87.2)" fill="#FF80A5"/>
<rect x="250.2" y="70" width="4" height="4" transform="rotate(-90 250.2 70)" fill="#FF80A5"/>
<rect x="250.2" y="74" width="4" height="4" transform="rotate(-90 250.2 74)" fill="#FF80A5"/>
<rect x="246.2" y="74" width="4" height="4" transform="rotate(-90 246.2 74)" fill="#FF80A5"/>
<rect x="295" y="90.2" width="4" height="4" fill="#FF80A5"/>
<rect x="266" y="87.2" width="4" height="4" fill="#FF80A5"/>
<rect x="250.2" y="62" width="4" height="4" fill="#FF80A5"/>
<rect x="295" y="18" width="4" height="4" fill="#FF80A5"/>
<rect x="295" y="14" width="4" height="4" fill="#FF80A5"/>
<rect x="292" y="64" width="4" height="4" transform="rotate(90 292 64)" fill="#FF80A5"/>
<rect x="296" y="64" width="4" height="4" transform="rotate(90 296 64)" fill="#FF80A5"/>
<rect x="278" y="36" width="4" height="4" transform="rotate(90 278 36)" fill="#FF80A5"/>
<rect x="282" y="36" width="4" height="4" transform="rotate(90 282 36)" fill="#FF80A5"/>
<rect x="295" y="42" width="4" height="4" fill="#FF80A5"/>
<rect x="295" y="38" width="4" height="4" fill="#FF80A5"/>
<rect x="295" y="34" width="4" height="4" fill="#FF80A5"/>
<rect x="186.6" y="56" width="4" height="4" transform="rotate(-180 186.6 56)" fill="#FF80A5"/>
<rect x="190.6" y="56" width="4" height="4" transform="rotate(-180 190.6 56)" fill="#FF80A5"/>
<rect x="190.6" y="60" width="4" height="4" transform="rotate(-180 190.6 60)" fill="#FF80A5"/>
<rect x="233.2" y="52" width="4" height="4" fill="#FF80A5"/>
<rect x="233.2" y="64" width="4" height="4" fill="#FF80A5"/>
<rect x="233.2" y="60" width="4" height="4" fill="#FF80A5"/>
<rect x="233.2" y="56" width="4" height="4" fill="#FF80A5"/>
<rect x="226.2" y="58" width="4" height="4" fill="#FF80A5"/>
<rect x="210" y="36" width="4" height="4" fill="#FF80A5"/>
<rect x="196" y="36" width="4" height="4" fill="#FF80A5"/>
<rect x="222" y="34" width="4" height="4" transform="rotate(90 222 34)" fill="#FF80A5"/>
<rect x="226" y="34" width="4" height="4" transform="rotate(90 226 34)" fill="#FF80A5"/>
<rect x="189.6" y="80" width="4" height="4" transform="rotate(90 189.6 80)" fill="#FF80A5"/>
<rect x="193.6" y="80" width="4" height="4" transform="rotate(90 193.6 80)" fill="#FF80A5"/>
<rect x="229.2" y="70" width="4" height="4" fill="#FF80A5"/>
<rect x="229.2" y="66" width="4" height="4" fill="#FF80A5"/>
<rect x="229.2" y="62" width="4" height="4" fill="#FF80A5"/>
<rect x="197.6" y="88" width="4" height="4" transform="rotate(90 197.6 88)" fill="#FF80A5"/>
<rect x="201.6" y="88" width="4" height="4" transform="rotate(90 201.6 88)" fill="#FF80A5"/>
<rect x="218" y="94" width="4" height="4" transform="rotate(90 218 94)" fill="#FF80A5"/>
<rect x="222" y="94" width="4" height="4" transform="rotate(90 222 94)" fill="#FF80A5"/>
<rect x="372" y="56" width="4" height="4" transform="rotate(-180 372 56)" fill="#FF80A5"/>
<rect x="376" y="56" width="4" height="4" transform="rotate(-180 376 56)" fill="#FF80A5"/>
<rect x="376" y="60" width="4" height="4" transform="rotate(-180 376 60)" fill="#FF80A5"/>
<rect x="418.6" y="52" width="4" height="4" fill="#FF80A5"/>
<rect x="418.6" y="64" width="4" height="4" fill="#FF80A5"/>
<rect x="418.6" y="60" width="4" height="4" fill="#FF80A5"/>
<rect x="418.6" y="56" width="4" height="4" fill="#FF80A5"/>
<rect x="411.6" y="58" width="4" height="4" fill="#FF80A5"/>
<rect x="395.4" y="36" width="4" height="4" fill="#FF80A5"/>
<rect x="381.4" y="36" width="4" height="4" fill="#FF80A5"/>
<rect x="407.4" y="34" width="4" height="4" transform="rotate(90 407.4 34)" fill="#FF80A5"/>
<rect x="411.4" y="34" width="4" height="4" transform="rotate(90 411.4 34)" fill="#FF80A5"/>
<rect x="375" y="80" width="4" height="4" transform="rotate(90 375 80)" fill="#FF80A5"/>
<rect x="379" y="80" width="4" height="4" transform="rotate(90 379 80)" fill="#FF80A5"/>
<rect x="414.6" y="70" width="4" height="4" fill="#FF80A5"/>
<rect x="414.6" y="66" width="4" height="4" fill="#FF80A5"/>
<rect x="414.6" y="62" width="4" height="4" fill="#FF80A5"/>
<rect x="383" y="88" width="4" height="4" transform="rotate(90 383 88)" fill="#FF80A5"/>
<rect x="387" y="88" width="4" height="4" transform="rotate(90 387 88)" fill="#FF80A5"/>
<rect x="403.4" y="94" width="4" height="4" transform="rotate(90 403.4 94)" fill="#FF80A5"/>
<rect x="407.4" y="94" width="4" height="4" transform="rotate(90 407.4 94)" fill="#FF80A5"/>
<rect x="506" y="36" width="64" height="64" fill="url(#paint0_linear_25_13)"/>
<rect x="566" y="36" width="4" height="64" fill="#FFAEC6"/>
<rect x="510" y="40" width="4" height="56" fill="#FF2D6B"/>
<rect x="570" y="96" width="4" height="64" transform="rotate(90 570 96)" fill="#FFAEC6"/>
<rect x="570" y="36" width="4" height="64" transform="rotate(90 570 36)" fill="#FF80A5"/>
<rect x="506" y="36" width="4" height="60" fill="#FF80A5"/>
<rect x="510.5" y="40.5" width="17" height="41" fill="url(#paint1_linear_25_13)" stroke="#FF2D6B"/>
<rect x="526.5" y="40.5" width="17" height="31" fill="url(#paint2_linear_25_13)" stroke="#FF2D6B"/>
<rect x="558.5" y="40.5" width="7" height="11" fill="url(#paint3_linear_25_13)" stroke="#FF2D6B"/>
<rect x="542.5" y="40.5" width="17" height="21" fill="url(#paint4_linear_25_13)" stroke="#FF2D6B"/>
<defs>
<linearGradient id="paint0_linear_25_13" x1="567" y1="36" x2="508" y2="100" gradientUnits="userSpaceOnUse">
<stop offset="0.455" stop-color="#FF2D6B"/>
<stop offset="1" stop-color="white"/>
</linearGradient>
<linearGradient id="paint1_linear_25_13" x1="510" y1="61" x2="528" y2="61" gradientUnits="userSpaceOnUse">
<stop stop-color="#FF5F8E"/>
<stop offset="1" stop-color="white"/>
<stop offset="1.0001" stop-color="white"/>
</linearGradient>
<linearGradient id="paint2_linear_25_13" x1="526" y1="56" x2="544" y2="56" gradientUnits="userSpaceOnUse">
<stop stop-color="#FF346F"/>
<stop offset="1" stop-color="white"/>
</linearGradient>
<linearGradient id="paint3_linear_25_13" x1="558" y1="46" x2="566" y2="46" gradientUnits="userSpaceOnUse">
<stop stop-color="#FF004A"/>
<stop offset="1" stop-color="white"/>
</linearGradient>
<linearGradient id="paint4_linear_25_13" x1="542" y1="51" x2="560" y2="51" gradientUnits="userSpaceOnUse">
<stop stop-color="#FF2464"/>
<stop offset="1" stop-color="white"/>
</linearGradient>
</defs>
</svg>
