<?xml version="1.0" encoding="utf-8"?>
<!-- Generator: Adobe Illustrator 27.8.1, SVG Export Plug-In . SVG Version: 6.00 Build 0)  -->
<svg version="1.1" xmlns="http://www.w3.org/2000/svg" xmlns:xlink="http://www.w3.org/1999/xlink" x="0px" y="0px"
	 viewBox="0 0 490 296" style="enable-background:new 0 0 490 296;" xml:space="preserve">
<style type="text/css">
	.st0{display:none;}
	.st1{display:inline;}
	.st2{fill:#FFFFFF;}
	.st3{fill:url(#SVGID_1_);}
	.st4{fill:url(#SVGID_00000179632937457719468070000007346755077532426120_);}
	.st5{fill:url(#SVGID_00000010279629436205696470000008137775918812925113_);}
	.st6{opacity:0.5;fill:url(#SVGID_00000127026314144205185040000006984965525908117420_);}
	.st7{fill:#323956;}
	.st8{fill:url(#SVGID_00000145044538621415635590000005228317094492417926_);}
	.st9{fill:url(#SVGID_00000013180181069495415080000002744083357657042854_);}
	.st10{fill:url(#SVGID_00000172436651822305681370000007112576991809692084_);}
	.st11{opacity:0.4;fill:url(#SVGID_00000079483619993577964430000001850231624585701555_);}
</style>
<g id="レイヤー_1" class="st0">
	<g class="st1">
		<g>
			<g>
				<path class="st2" d="M27.9,265.5L5,230.9h13.3l15.3,25.7l15.5-25.7h12.6l-22.9,34.5v26.4H27.9V265.5z"/>
				<path class="st2" d="M103.1,230.9h9.4l26.3,61h-12.4l-5.7-14H94.2l-5.5,14H76.6L103.1,230.9z M116.9,268.7l-9.4-24.8l-9.6,24.8
					H116.9z"/>
				<path class="st2" d="M193.1,243.7c-1.1-1.5-2.8-2.7-4.9-3.7c-2.1-1-4.2-1.5-6.3-1.5c-1.3,0-2.5,0.2-3.8,0.5
					c-1.3,0.3-2.4,0.8-3.4,1.5c-1,0.7-1.9,1.5-2.5,2.6c-0.7,1.1-1,2.3-1,3.8c0,1.4,0.3,2.6,0.9,3.5c0.6,1,1.4,1.8,2.4,2.5
					c1,0.7,2.2,1.3,3.7,1.8c1.4,0.5,3,1,4.7,1.6c2,0.6,4,1.3,6.1,2.2c2.1,0.8,4,1.9,5.8,3.2c1.8,1.3,3.2,3,4.3,5
					c1.1,2,1.7,4.5,1.7,7.5c0,3.3-0.6,6.1-1.8,8.6c-1.2,2.4-2.8,4.5-4.8,6.1c-2,1.6-4.4,2.8-7.1,3.6c-2.7,0.8-5.5,1.2-8.5,1.2
					c-4,0-7.8-0.7-11.6-2.2c-3.8-1.5-6.9-3.6-9.3-6.5l7.8-7.2c1.5,2.1,3.5,3.7,6,4.9c2.5,1.2,5,1.8,7.4,1.8c1.3,0,2.6-0.2,3.9-0.5
					c1.3-0.3,2.5-0.8,3.6-1.6c1.1-0.7,1.9-1.7,2.6-2.8c0.7-1.1,1-2.5,1-4.2c0-1.6-0.4-2.9-1.1-4c-0.7-1.1-1.8-2-3-2.8
					c-1.3-0.8-2.8-1.4-4.5-2c-1.7-0.6-3.5-1.2-5.4-1.8c-1.8-0.6-3.7-1.3-5.5-2.1c-1.8-0.8-3.5-1.9-5-3.2c-1.5-1.3-2.7-2.9-3.6-4.9
					c-0.9-1.9-1.4-4.3-1.4-7.2c0-3.1,0.6-5.8,1.9-8c1.3-2.2,3-4.1,5.1-5.6c2.1-1.5,4.5-2.6,7.1-3.3c2.7-0.7,5.4-1.1,8.1-1.1
					c3.1,0,6.2,0.5,9.4,1.6c3.2,1.1,6,2.7,8.3,4.9L193.1,243.7z"/>
				<path class="st2" d="M228.6,230.9h10.9v24.6H268v-24.6h10.9v61H268v-27h-28.5v27h-10.9V230.9z"/>
				<path class="st2" d="M309.5,230.9h10.9v61h-10.9V230.9z"/>
				<path class="st2" d="M351,230.9h21.2c2.9,0,5.7,0.3,8.4,0.9c2.7,0.6,5.1,1.6,7.2,3c2.1,1.4,3.8,3.2,5,5.4c1.3,2.2,1.9,5,1.9,8.2
					c0,4.4-1.2,8-3.7,10.8c-2.5,2.8-5.9,4.7-10.2,5.6l16.3,27h-13.1l-14.1-25.8h-7.9v25.8H351V230.9z M370.7,257.2
					c1.5,0,3.1-0.1,4.7-0.3c1.6-0.2,2.9-0.7,4.2-1.3c1.2-0.6,2.3-1.5,3.1-2.7c0.8-1.2,1.2-2.7,1.2-4.5c0-1.7-0.4-3-1.1-4.1
					c-0.7-1.1-1.7-1.9-2.8-2.5c-1.1-0.6-2.5-1.1-3.9-1.3c-1.5-0.2-2.9-0.3-4.3-0.3h-9.8v17.1H370.7z"/>
				<path class="st2" d="M419.5,261.3c0-4.9,0.8-9.3,2.5-13.2c1.6-3.9,3.9-7.3,6.8-10c2.9-2.8,6.3-4.9,10.3-6.4
					c4-1.5,8.3-2.2,13-2.2c4.8,0,9.2,0.7,13.2,2.2c4,1.5,7.5,3.6,10.4,6.4c2.9,2.8,5.2,6.1,6.8,10c1.6,3.9,2.5,8.3,2.5,13.2
					c0,4.8-0.8,9.1-2.5,13c-1.6,3.9-3.9,7.3-6.8,10.2c-2.9,2.8-6.4,5.1-10.4,6.6c-4,1.6-8.4,2.4-13.2,2.4c-4.7,0-9.1-0.8-13-2.4
					c-4-1.6-7.4-3.8-10.3-6.6c-2.9-2.8-5.2-6.2-6.8-10.2C420.3,270.4,419.5,266,419.5,261.3z M431.3,261.3c0,3.3,0.5,6.3,1.5,9
					c1,2.7,2.4,5.1,4.3,7.1c1.9,2,4.1,3.6,6.6,4.7c2.6,1.1,5.4,1.7,8.5,1.7s5.9-0.6,8.5-1.7c2.6-1.1,4.8-2.7,6.7-4.7
					c1.9-2,3.3-4.4,4.3-7.1c1-2.7,1.5-5.7,1.5-9c0-3.2-0.5-6.1-1.5-8.8c-1-2.7-2.4-5.1-4.3-7.1c-1.8-2-4-3.6-6.6-4.7
					c-2.6-1.1-5.5-1.7-8.6-1.7c-3.2,0-6,0.6-8.6,1.7c-2.6,1.1-4.8,2.7-6.6,4.7c-1.8,2-3.3,4.4-4.3,7.1
					C431.8,255.2,431.3,258.1,431.3,261.3z"/>
			</g>
			<g>
				<g>
					<g>
						<linearGradient id="SVGID_1_" gradientUnits="userSpaceOnUse" x1="142.7466" y1="6.9796" x2="334.8868" y2="136.5798">
							<stop  offset="0" style="stop-color:#FFBA18"/>
							<stop  offset="0.1301" style="stop-color:#F79B3D"/>
							<stop  offset="0.3161" style="stop-color:#EC736D"/>
							<stop  offset="0.4585" style="stop-color:#E55A8B"/>
							<stop  offset="0.5393" style="stop-color:#E35196"/>
							<stop  offset="1" style="stop-color:#1051D7"/>
						</linearGradient>
						<path class="st3" d="M264.4,99.5l4.3,63.8c10.6,0.8,27.3,2.9,43.9,6.4c-11.5-20.7-20-44.5-23.5-78L264.4,99.5z"/>
						
							<linearGradient id="SVGID_00000032610132657262675300000009984818229913647806_" gradientUnits="userSpaceOnUse" x1="142.7466" y1="6.9796" x2="334.8868" y2="136.5798">
							<stop  offset="0" style="stop-color:#FFBA18"/>
							<stop  offset="0.1301" style="stop-color:#F79B3D"/>
							<stop  offset="0.3161" style="stop-color:#EC736D"/>
							<stop  offset="0.4585" style="stop-color:#E55A8B"/>
							<stop  offset="0.5393" style="stop-color:#E35196"/>
							<stop  offset="1" style="stop-color:#1051D7"/>
						</linearGradient>
						<path style="fill:url(#SVGID_00000032610132657262675300000009984818229913647806_);" d="M245,62.8L144.3,4.6
							c11.2,29.3,12.3,47.7,13.1,57.3l44.1,13.9l25,7.8l18.4,5.8l87.5-27.5c0,0,1.3-27.3,13.1-57.3L245,62.8z"/>
						
							<linearGradient id="SVGID_00000038401964468028379500000006148837064623572617_" gradientUnits="userSpaceOnUse" x1="142.7466" y1="6.9796" x2="334.8868" y2="136.5798">
							<stop  offset="0" style="stop-color:#FFBA18"/>
							<stop  offset="0.1301" style="stop-color:#F79B3D"/>
							<stop  offset="0.3161" style="stop-color:#EC736D"/>
							<stop  offset="0.4585" style="stop-color:#E55A8B"/>
							<stop  offset="0.5393" style="stop-color:#E35196"/>
							<stop  offset="1" style="stop-color:#1051D7"/>
						</linearGradient>
						<path style="fill:url(#SVGID_00000038401964468028379500000006148837064623572617_);" d="M177.5,169.6
							c14.9-2.9,23.4-4.5,43.8-6.4l5.3-79.6l-25-7.8C200,129.3,184.6,156.7,177.5,169.6z"/>
					</g>
				</g>
				
					<linearGradient id="SVGID_00000103228994231267652800000010126452241433237642_" gradientUnits="userSpaceOnUse" x1="186.2085" y1="173.7055" x2="227.9356" y2="84.2214">
					<stop  offset="0.4317" style="stop-color:#231815;stop-opacity:0"/>
					<stop  offset="1" style="stop-color:#231815"/>
				</linearGradient>
				<path style="opacity:0.5;fill:url(#SVGID_00000103228994231267652800000010126452241433237642_);" d="M177.5,169.6
					c14.9-2.9,23.4-4.5,43.8-6.4l5.3-79.6l-25-7.8C200,129.3,184.6,156.7,177.5,169.6z"/>
			</g>
		</g>
	</g>
</g>
<g id="レイヤー_2" class="st0">
	<g class="st1">
		<g>
			<g>
				<path class="st2" d="M27.9,264.1L5,229.5h13.3l15.3,25.7l15.5-25.7h12.6l-22.9,34.5v26.4H27.9V264.1z"/>
				<path class="st2" d="M103.1,229.5h9.4l26.3,61h-12.4l-5.7-14H94.2l-5.5,14H76.6L103.1,229.5z M116.9,267.3l-9.4-24.8l-9.6,24.8
					H116.9z"/>
				<path class="st2" d="M193.1,242.3c-1.1-1.5-2.8-2.7-4.9-3.7c-2.1-1-4.2-1.5-6.3-1.5c-1.3,0-2.5,0.2-3.8,0.5
					c-1.3,0.3-2.4,0.8-3.4,1.5c-1,0.7-1.9,1.5-2.5,2.6c-0.7,1.1-1,2.3-1,3.8c0,1.4,0.3,2.6,0.9,3.5c0.6,1,1.4,1.8,2.4,2.5
					c1,0.7,2.2,1.3,3.7,1.8c1.4,0.5,3,1,4.7,1.6c2,0.6,4,1.3,6.1,2.2c2.1,0.8,4,1.9,5.8,3.2c1.8,1.3,3.2,3,4.3,5
					c1.1,2,1.7,4.5,1.7,7.5c0,3.3-0.6,6.1-1.8,8.6c-1.2,2.4-2.8,4.5-4.8,6.1c-2,1.6-4.4,2.8-7.1,3.6c-2.7,0.8-5.5,1.2-8.5,1.2
					c-4,0-7.8-0.7-11.6-2.2c-3.8-1.5-6.9-3.6-9.3-6.5l7.8-7.2c1.5,2.1,3.5,3.7,6,4.9c2.5,1.2,5,1.8,7.4,1.8c1.3,0,2.6-0.2,3.9-0.5
					c1.3-0.3,2.5-0.8,3.6-1.6c1.1-0.7,1.9-1.7,2.6-2.8c0.7-1.1,1-2.5,1-4.2c0-1.6-0.4-2.9-1.1-4c-0.7-1.1-1.8-2-3-2.8
					c-1.3-0.8-2.8-1.4-4.5-2c-1.7-0.6-3.5-1.2-5.4-1.8c-1.8-0.6-3.7-1.3-5.5-2.1c-1.8-0.8-3.5-1.9-5-3.2c-1.5-1.3-2.7-2.9-3.6-4.9
					c-0.9-1.9-1.4-4.3-1.4-7.2c0-3.1,0.6-5.8,1.9-8c1.3-2.2,3-4.1,5.1-5.6c2.1-1.5,4.5-2.6,7.1-3.3c2.7-0.7,5.4-1.1,8.1-1.1
					c3.1,0,6.2,0.5,9.4,1.6c3.2,1.1,6,2.7,8.3,4.9L193.1,242.3z"/>
				<path class="st2" d="M228.7,229.5h10.9v24.6H268v-24.6h10.9v61H268v-27h-28.5v27h-10.9V229.5z"/>
				<path class="st2" d="M309.5,229.5h10.9v61h-10.9V229.5z"/>
				<path class="st2" d="M351,229.5h21.2c2.9,0,5.7,0.3,8.4,0.9c2.7,0.6,5.1,1.6,7.2,3c2.1,1.4,3.8,3.2,5,5.4c1.3,2.2,1.9,5,1.9,8.2
					c0,4.4-1.2,8-3.7,10.8c-2.5,2.8-5.9,4.7-10.2,5.6l16.3,27h-13.1l-14.1-25.8h-7.9v25.8H351V229.5z M370.8,255.8
					c1.5,0,3.1-0.1,4.7-0.3c1.6-0.2,2.9-0.7,4.2-1.3c1.2-0.6,2.3-1.5,3.1-2.7c0.8-1.2,1.2-2.7,1.2-4.5c0-1.7-0.4-3-1.1-4.1
					c-0.7-1.1-1.7-1.9-2.8-2.5c-1.1-0.6-2.5-1.1-3.9-1.3c-1.5-0.2-2.9-0.3-4.3-0.3h-9.8v17.1H370.8z"/>
				<path class="st2" d="M419.5,259.9c0-4.9,0.8-9.3,2.5-13.2c1.6-3.9,3.9-7.3,6.8-10c2.9-2.8,6.3-4.9,10.3-6.4
					c4-1.5,8.3-2.2,13-2.2c4.8,0,9.2,0.7,13.2,2.2c4,1.5,7.5,3.6,10.4,6.4c2.9,2.8,5.2,6.1,6.8,10c1.6,3.9,2.5,8.3,2.5,13.2
					c0,4.8-0.8,9.1-2.5,13c-1.6,3.9-3.9,7.3-6.8,10.2c-2.9,2.8-6.4,5.1-10.4,6.6c-4,1.6-8.4,2.4-13.2,2.4c-4.7,0-9.1-0.8-13-2.4
					c-4-1.6-7.4-3.8-10.3-6.6c-2.9-2.8-5.2-6.2-6.8-10.2C420.3,269,419.5,264.6,419.5,259.9z M431.3,259.9c0,3.3,0.5,6.3,1.5,9
					c1,2.7,2.4,5.1,4.3,7.1c1.9,2,4.1,3.6,6.6,4.7c2.6,1.1,5.4,1.7,8.5,1.7s5.9-0.6,8.5-1.7c2.6-1.1,4.8-2.7,6.7-4.7
					c1.9-2,3.3-4.4,4.3-7.1c1-2.7,1.5-5.7,1.5-9c0-3.2-0.5-6.1-1.5-8.8c-1-2.7-2.4-5.1-4.3-7.1c-1.8-2-4-3.6-6.6-4.7
					c-2.6-1.1-5.5-1.7-8.6-1.7c-3.2,0-6,0.6-8.6,1.7c-2.6,1.1-4.8,2.7-6.6,4.7c-1.8,2-3.3,4.4-4.3,7.1
					C431.8,253.8,431.3,256.7,431.3,259.9z"/>
			</g>
			<g>
				<path class="st2" d="M264.4,98.1l4.3,63.8c10.6,0.8,27.3,2.9,43.9,6.4c-11.5-20.7-20-44.5-23.5-78L264.4,98.1z"/>
				<path class="st2" d="M245,61.4L144.4,3.2c11.2,29.3,12.3,47.7,13.1,57.3l44.1,13.9c-1.6,53.5-17,80.8-24.1,93.8
					c14.9-2.9,23.4-4.5,43.8-6.4l5.3-79.6L245,88l87.5-27.5c0,0,1.3-27.3,13.1-57.3L245,61.4z"/>
			</g>
		</g>
	</g>
</g>
<g id="レイヤー_3" class="st0">
	<g class="st1">
		<g>
			<g>
				<path d="M27.9,265.1L5,230.5h13.3l15.3,25.7l15.5-25.7h12.6l-22.9,34.5v26.4H27.9V265.1z"/>
				<path d="M103.1,230.5h9.4l26.3,61h-12.4l-5.7-14H94.2l-5.5,14H76.6L103.1,230.5z M116.9,268.3l-9.4-24.8l-9.6,24.8H116.9z"/>
				<path d="M193.1,243.3c-1.1-1.5-2.8-2.7-4.9-3.7c-2.1-1-4.2-1.5-6.3-1.5c-1.3,0-2.5,0.2-3.8,0.5c-1.3,0.3-2.4,0.8-3.4,1.5
					c-1,0.7-1.9,1.5-2.5,2.6c-0.7,1.1-1,2.3-1,3.8c0,1.4,0.3,2.6,0.9,3.5c0.6,1,1.4,1.8,2.4,2.5c1,0.7,2.2,1.3,3.7,1.8
					c1.4,0.5,3,1,4.7,1.6c2,0.6,4,1.3,6.1,2.2c2.1,0.8,4,1.9,5.8,3.2c1.8,1.3,3.2,3,4.3,5c1.1,2,1.7,4.5,1.7,7.5
					c0,3.3-0.6,6.1-1.8,8.6c-1.2,2.4-2.8,4.5-4.8,6.1c-2,1.6-4.4,2.8-7.1,3.6c-2.7,0.8-5.5,1.2-8.5,1.2c-4,0-7.8-0.7-11.6-2.2
					c-3.8-1.5-6.9-3.6-9.3-6.5l7.8-7.2c1.5,2.1,3.5,3.7,6,4.9c2.5,1.2,5,1.8,7.4,1.8c1.3,0,2.6-0.2,3.9-0.5c1.3-0.3,2.5-0.8,3.6-1.6
					c1.1-0.7,1.9-1.7,2.6-2.8c0.7-1.1,1-2.5,1-4.2c0-1.6-0.4-2.9-1.1-4c-0.7-1.1-1.8-2-3-2.8c-1.3-0.8-2.8-1.4-4.5-2
					c-1.7-0.6-3.5-1.2-5.4-1.8c-1.8-0.6-3.7-1.3-5.5-2.1c-1.8-0.8-3.5-1.9-5-3.2c-1.5-1.3-2.7-2.9-3.6-4.9c-0.9-1.9-1.4-4.3-1.4-7.2
					c0-3.1,0.6-5.8,1.9-8c1.3-2.2,3-4.1,5.1-5.6c2.1-1.5,4.5-2.6,7.1-3.3c2.7-0.7,5.4-1.1,8.1-1.1c3.1,0,6.2,0.5,9.4,1.6
					c3.2,1.1,6,2.7,8.3,4.9L193.1,243.3z"/>
				<path d="M228.7,230.5h10.9v24.6H268v-24.6h10.9v61H268v-27h-28.5v27h-10.9V230.5z"/>
				<path d="M309.5,230.5h10.9v61h-10.9V230.5z"/>
				<path d="M351,230.5h21.2c2.9,0,5.7,0.3,8.4,0.9c2.7,0.6,5.1,1.6,7.2,3c2.1,1.4,3.8,3.2,5,5.4c1.3,2.2,1.9,5,1.9,8.2
					c0,4.4-1.2,8-3.7,10.8c-2.5,2.8-5.9,4.7-10.2,5.6l16.3,27h-13.1l-14.1-25.8h-7.9v25.8H351V230.5z M370.8,256.8
					c1.5,0,3.1-0.1,4.7-0.3c1.6-0.2,2.9-0.7,4.2-1.3c1.2-0.6,2.3-1.5,3.1-2.7c0.8-1.2,1.2-2.7,1.2-4.5c0-1.7-0.4-3-1.1-4.1
					c-0.7-1.1-1.7-1.9-2.8-2.5c-1.1-0.6-2.5-1.1-3.9-1.3c-1.5-0.2-2.9-0.3-4.3-0.3h-9.8v17.1H370.8z"/>
				<path d="M419.5,260.9c0-4.9,0.8-9.3,2.5-13.2c1.6-3.9,3.9-7.3,6.8-10c2.9-2.8,6.3-4.9,10.3-6.4c4-1.5,8.3-2.2,13-2.2
					c4.8,0,9.2,0.7,13.2,2.2c4,1.5,7.5,3.6,10.4,6.4c2.9,2.8,5.2,6.1,6.8,10c1.6,3.9,2.5,8.3,2.5,13.2c0,4.8-0.8,9.1-2.5,13
					c-1.6,3.9-3.9,7.3-6.8,10.2c-2.9,2.8-6.4,5.1-10.4,6.6c-4,1.6-8.4,2.4-13.2,2.4c-4.7,0-9.1-0.8-13-2.4c-4-1.6-7.4-3.8-10.3-6.6
					c-2.9-2.8-5.2-6.2-6.8-10.2C420.3,270,419.5,265.6,419.5,260.9z M431.3,260.9c0,3.3,0.5,6.3,1.5,9c1,2.7,2.4,5.1,4.3,7.1
					c1.9,2,4.1,3.6,6.6,4.7c2.6,1.1,5.4,1.7,8.5,1.7s5.9-0.6,8.5-1.7c2.6-1.1,4.8-2.7,6.7-4.7c1.9-2,3.3-4.4,4.3-7.1
					c1-2.7,1.5-5.7,1.5-9c0-3.2-0.5-6.1-1.5-8.8c-1-2.7-2.4-5.1-4.3-7.1c-1.8-2-4-3.6-6.6-4.7c-2.6-1.1-5.5-1.7-8.6-1.7
					c-3.2,0-6,0.6-8.6,1.7c-2.6,1.1-4.8,2.7-6.6,4.7c-1.8,2-3.3,4.4-4.3,7.1C431.8,254.8,431.3,257.7,431.3,260.9z"/>
			</g>
			<g>
				<path d="M264.4,99.1l4.3,63.8c10.6,0.8,27.3,2.9,43.9,6.4c-11.5-20.7-20-44.5-23.5-78L264.4,99.1z"/>
				<path d="M245,62.4L144.4,4.2c11.2,29.3,12.3,47.7,13.1,57.3l44.1,13.9c-1.6,53.5-17,80.8-24.1,93.8c14.9-2.9,23.4-4.5,43.8-6.4
					l5.3-79.6L245,89l87.5-27.5c0,0,1.3-27.3,13.1-57.3L245,62.4z"/>
			</g>
		</g>
	</g>
</g>
<g id="レイヤー_4">
	<g>
		<g>
			<g>
				<path class="st7" d="M27.9,265.1L5,230.5h13.3l15.3,25.7l15.5-25.7h12.6l-22.9,34.5v26.4H27.9V265.1z"/>
				<path class="st7" d="M103.1,230.5h9.4l26.3,61h-12.4l-5.7-14H94.2l-5.5,14H76.6L103.1,230.5z M116.9,268.3l-9.4-24.8l-9.6,24.8
					H116.9z"/>
				<path class="st7" d="M193.1,243.3c-1.1-1.5-2.8-2.7-4.9-3.7c-2.1-1-4.2-1.5-6.3-1.5c-1.3,0-2.5,0.2-3.8,0.5
					c-1.3,0.3-2.4,0.8-3.4,1.5c-1,0.7-1.9,1.5-2.5,2.6c-0.7,1.1-1,2.3-1,3.8c0,1.4,0.3,2.6,0.9,3.5c0.6,1,1.4,1.8,2.4,2.5
					c1,0.7,2.2,1.3,3.7,1.8c1.4,0.5,3,1,4.7,1.6c2,0.6,4,1.3,6.1,2.2c2.1,0.8,4,1.9,5.8,3.2c1.8,1.3,3.2,3,4.3,5
					c1.1,2,1.7,4.5,1.7,7.5c0,3.3-0.6,6.1-1.8,8.6c-1.2,2.4-2.8,4.5-4.8,6.1c-2,1.6-4.4,2.8-7.1,3.6c-2.7,0.8-5.5,1.2-8.5,1.2
					c-4,0-7.8-0.7-11.6-2.2c-3.8-1.5-6.9-3.6-9.3-6.5l7.8-7.2c1.5,2.1,3.5,3.7,6,4.9c2.5,1.2,5,1.8,7.4,1.8c1.3,0,2.6-0.2,3.9-0.5
					c1.3-0.3,2.5-0.8,3.6-1.6c1.1-0.7,1.9-1.7,2.6-2.8c0.7-1.1,1-2.5,1-4.2c0-1.6-0.4-2.9-1.1-4c-0.7-1.1-1.8-2-3-2.8
					c-1.3-0.8-2.8-1.4-4.5-2c-1.7-0.6-3.5-1.2-5.4-1.8c-1.8-0.6-3.7-1.3-5.5-2.1c-1.8-0.8-3.5-1.9-5-3.2c-1.5-1.3-2.7-2.9-3.6-4.9
					c-0.9-1.9-1.4-4.3-1.4-7.2c0-3.1,0.6-5.8,1.9-8c1.3-2.2,3-4.1,5.1-5.6c2.1-1.5,4.5-2.6,7.1-3.3c2.7-0.7,5.4-1.1,8.1-1.1
					c3.1,0,6.2,0.5,9.4,1.6c3.2,1.1,6,2.7,8.3,4.9L193.1,243.3z"/>
				<path class="st7" d="M228.7,230.5h10.9v24.6H268v-24.6h10.9v61H268v-27h-28.5v27h-10.9V230.5z"/>
				<path class="st7" d="M309.5,230.5h10.9v61h-10.9V230.5z"/>
				<path class="st7" d="M351,230.5h21.2c2.9,0,5.7,0.3,8.4,0.9c2.7,0.6,5.1,1.6,7.2,3c2.1,1.4,3.8,3.2,5,5.4c1.3,2.2,1.9,5,1.9,8.2
					c0,4.4-1.2,8-3.7,10.8c-2.5,2.8-5.9,4.7-10.2,5.6l16.3,27h-13.1l-14.1-25.8h-7.9v25.8H351V230.5z M370.8,256.8
					c1.5,0,3.1-0.1,4.7-0.3c1.6-0.2,2.9-0.7,4.2-1.3c1.2-0.6,2.3-1.5,3.1-2.7c0.8-1.2,1.2-2.7,1.2-4.5c0-1.7-0.4-3-1.1-4.1
					c-0.7-1.1-1.7-1.9-2.8-2.5c-1.1-0.6-2.5-1.1-3.9-1.3c-1.5-0.2-2.9-0.3-4.3-0.3h-9.8v17.1H370.8z"/>
				<path class="st7" d="M419.5,260.9c0-4.9,0.8-9.3,2.5-13.2c1.6-3.9,3.9-7.3,6.8-10c2.9-2.8,6.3-4.9,10.3-6.4
					c4-1.5,8.3-2.2,13-2.2c4.8,0,9.2,0.7,13.2,2.2c4,1.5,7.5,3.6,10.4,6.4c2.9,2.8,5.2,6.1,6.8,10c1.6,3.9,2.5,8.3,2.5,13.2
					c0,4.8-0.8,9.1-2.5,13c-1.6,3.9-3.9,7.3-6.8,10.2c-2.9,2.8-6.4,5.1-10.4,6.6c-4,1.6-8.4,2.4-13.2,2.4c-4.7,0-9.1-0.8-13-2.4
					c-4-1.6-7.4-3.8-10.3-6.6c-2.9-2.8-5.2-6.2-6.8-10.2C420.3,270,419.5,265.6,419.5,260.9z M431.3,260.9c0,3.3,0.5,6.3,1.5,9
					c1,2.7,2.4,5.1,4.3,7.1c1.9,2,4.1,3.6,6.6,4.7c2.6,1.1,5.4,1.7,8.5,1.7s5.9-0.6,8.5-1.7c2.6-1.1,4.8-2.7,6.7-4.7
					c1.9-2,3.3-4.4,4.3-7.1c1-2.7,1.5-5.7,1.5-9c0-3.2-0.5-6.1-1.5-8.8c-1-2.7-2.4-5.1-4.3-7.1c-1.8-2-4-3.6-6.6-4.7
					c-2.6-1.1-5.5-1.7-8.6-1.7c-3.2,0-6,0.6-8.6,1.7c-2.6,1.1-4.8,2.7-6.6,4.7c-1.8,2-3.3,4.4-4.3,7.1
					C431.8,254.8,431.3,257.7,431.3,260.9z"/>
			</g>
			<g>
				<g>
					<g>
						
							<linearGradient id="SVGID_00000044154359774499710240000006431060938064600991_" gradientUnits="userSpaceOnUse" x1="299.7774" y1="83.5906" x2="491.9176" y2="213.1908" gradientTransform="matrix(1 0 0 1 -157 -77)">
							<stop  offset="0" style="stop-color:#FFBA18"/>
							<stop  offset="0.1301" style="stop-color:#F79B3D"/>
							<stop  offset="0.3161" style="stop-color:#EC736D"/>
							<stop  offset="0.4585" style="stop-color:#E55A8B"/>
							<stop  offset="0.5393" style="stop-color:#E35196"/>
							<stop  offset="1" style="stop-color:#1051D7"/>
						</linearGradient>
						<path style="fill:url(#SVGID_00000044154359774499710240000006431060938064600991_);" d="M264.4,99.1l4.3,63.8
							c10.6,0.8,27.3,2.9,43.9,6.4c-11.5-20.7-20-44.5-23.5-78L264.4,99.1z"/>
						
							<linearGradient id="SVGID_00000180348370546521241820000016062573612074646930_" gradientUnits="userSpaceOnUse" x1="299.7774" y1="83.5906" x2="491.9176" y2="213.1908" gradientTransform="matrix(1 0 0 1 -157 -77)">
							<stop  offset="0" style="stop-color:#FFBA18"/>
							<stop  offset="0.1301" style="stop-color:#F79B3D"/>
							<stop  offset="0.3161" style="stop-color:#EC736D"/>
							<stop  offset="0.4585" style="stop-color:#E55A8B"/>
							<stop  offset="0.5393" style="stop-color:#E35196"/>
							<stop  offset="1" style="stop-color:#1051D7"/>
						</linearGradient>
						<path style="fill:url(#SVGID_00000180348370546521241820000016062573612074646930_);" d="M245,62.4L144.4,4.2
							c11.2,29.3,12.3,47.7,13.1,57.3l44.1,13.9l25,7.8L245,89l87.5-27.5c0,0,1.3-27.3,13.1-57.3L245,62.4z"/>
						
							<linearGradient id="SVGID_00000036969637475978565590000013349496913317990579_" gradientUnits="userSpaceOnUse" x1="299.7774" y1="83.5906" x2="491.9176" y2="213.1908" gradientTransform="matrix(1 0 0 1 -157 -77)">
							<stop  offset="0" style="stop-color:#FFBA18"/>
							<stop  offset="0.1301" style="stop-color:#F79B3D"/>
							<stop  offset="0.3161" style="stop-color:#EC736D"/>
							<stop  offset="0.4585" style="stop-color:#E55A8B"/>
							<stop  offset="0.5393" style="stop-color:#E35196"/>
							<stop  offset="1" style="stop-color:#1051D7"/>
						</linearGradient>
						<path style="fill:url(#SVGID_00000036969637475978565590000013349496913317990579_);" d="M177.5,169.2
							c14.9-2.9,23.4-4.5,43.8-6.4l5.3-79.6l-25-7.8C200,128.9,184.6,156.3,177.5,169.2z"/>
					</g>
				</g>
				
					<linearGradient id="SVGID_00000033366372040223124290000013277767148373482121_" gradientUnits="userSpaceOnUse" x1="186.2393" y1="173.3165" x2="227.9664" y2="83.8324">
					<stop  offset="0.4317" style="stop-color:#231815;stop-opacity:0"/>
					<stop  offset="1" style="stop-color:#231815"/>
				</linearGradient>
				<path style="opacity:0.4;fill:url(#SVGID_00000033366372040223124290000013277767148373482121_);" d="M177.5,169.2
					c14.9-2.9,23.4-4.5,43.8-6.4l5.3-79.6l-25-7.8C200,128.9,184.6,156.3,177.5,169.2z"/>
			</g>
		</g>
	</g>
</g>
</svg>
