<svg width="16" height="16" viewBox="0 0 16 16" fill="none" xmlns="http://www.w3.org/2000/svg">
<path d="M14.2855 12.7068C10.4975 17.3081 5.71604 15.9972 3.79883 14.7666L13.1619 2.00605C12.3594 1.17675 19.0206 6.95513 14.2855 12.7068Z" fill="#43D5C7"/>
<path d="M0.00644353 7.97222C-0.121965 5.57527 1.70072 3.12124 2.62812 2.19385L6.98866 8.23974L2.73512 13.9646C1.15677 12.2793 0.166954 10.9684 0.00644353 7.97222Z" fill="#04BAC5"/>
<path d="M7.94571 0.0084454C6.3192 -0.0985615 4.39664 0.837749 3.63867 1.31928L7.81195 7.15118L12.119 1.21229C11.3164 0.543499 9.97884 0.142204 7.94571 0.0084454Z" fill="#109A9C"/>
<path d="M3.65952 1.32191C3.06292 1.70157 2.73297 2.06767 2.64258 2.20326L6.98155 8.23714L2.74427 13.9659C3.20529 14.4812 3.63693 14.723 3.79512 14.7795L13.1849 1.99987C12.8324 1.67445 12.3149 1.34451 12.1002 1.22021L7.829 7.1524L3.65952 1.32191Z" fill="white"/>
</svg>
