<svg width="16" height="16" viewBox="0 0 16 16" fill="none" xmlns="http://www.w3.org/2000/svg">
<path d="M14.2851 12.7069C10.497 17.3084 5.71537 15.9975 3.7981 14.7669L13.1615 2.00587C12.3589 1.17654 19.0204 6.95511 14.2851 12.7069Z" fill="#43D5C7"/>
<path d="M0.00644374 7.97272C-0.121969 5.57569 1.70078 3.12158 2.6282 2.19415L6.98888 8.24025L2.73521 13.9653C1.15681 12.2799 0.16696 10.969 0.00644374 7.97272Z" fill="#04BAC5"/>
<path d="M7.94683 0.00844569C6.32027 -0.0985649 4.39764 0.837778 3.63965 1.31933L7.81307 7.15142L12.1202 1.21233C11.3177 0.543518 9.98003 0.142209 7.94683 0.00844569Z" fill="#109A9C"/>
<path d="M3.65883 1.32216C3.0622 1.70183 2.73224 2.06794 2.64185 2.20354L6.98097 8.23763L2.74354 13.9666C3.20458 14.4819 3.63623 14.7237 3.79442 14.7802L13.1846 2.00015C12.832 1.67471 12.3145 1.34476 12.0998 1.22046L7.82845 7.15285L3.65883 1.32216Z" fill="black"/>
</svg>
