<svg width="1776" height="235" viewBox="0 0 1776 235" fill="none" xmlns="http://www.w3.org/2000/svg">
<path d="M432.9 140.5V226H403.95V140.5L325.2 11.05H350.7C353.3 11.05 355.35 11.7 356.85 13C358.35 14.3 359.65 15.9 360.75 17.8L409.95 101.35C411.95 104.85 413.6 108.15 414.9 111.25C416.3 114.35 417.55 117.4 418.65 120.4C419.75 117.3 420.95 114.2 422.25 111.1C423.55 108 425.2 104.75 427.2 101.35L476.25 17.8C477.15 16.2 478.35 14.7 479.85 13.3C481.45 11.8 483.5 11.05 486 11.05H511.8L432.9 140.5ZM626.836 226H614.986C612.386 226 610.286 225.6 608.686 224.8C607.086 224 606.036 222.3 605.536 219.7L602.536 205.6C598.536 209.2 594.636 212.45 590.836 215.35C587.036 218.15 583.036 220.55 578.836 222.55C574.636 224.45 570.136 225.9 565.336 226.9C560.636 227.9 555.386 228.4 549.586 228.4C543.686 228.4 538.136 227.6 532.936 226C527.836 224.3 523.386 221.8 519.586 218.5C515.786 215.2 512.736 211.05 510.436 206.05C508.236 200.95 507.136 194.95 507.136 188.05C507.136 182.05 508.786 176.3 512.086 170.8C515.386 165.2 520.686 160.25 527.986 155.95C535.386 151.65 545.036 148.15 556.936 145.45C568.836 142.65 583.386 141.05 600.586 140.65V128.8C600.586 117 598.036 108.1 592.936 102.1C587.936 96 580.486 92.95 570.586 92.95C564.086 92.95 558.586 93.8 554.086 95.5C549.686 97.1 545.836 98.95 542.536 101.05C539.336 103.05 536.536 104.9 534.136 106.6C531.836 108.2 529.536 109 527.236 109C525.436 109 523.836 108.55 522.436 107.65C521.136 106.65 520.086 105.45 519.286 104.05L514.486 95.5C522.886 87.4 531.936 81.35 541.636 77.35C551.336 73.35 562.086 71.35 573.886 71.35C582.386 71.35 589.936 72.75 596.536 75.55C603.136 78.35 608.686 82.25 613.186 87.25C617.686 92.25 621.086 98.3 623.386 105.4C625.686 112.5 626.836 120.3 626.836 128.8V226ZM557.536 209.65C562.236 209.65 566.536 209.2 570.436 208.3C574.336 207.3 577.986 205.95 581.386 204.25C584.886 202.45 588.186 200.3 591.286 197.8C594.486 195.3 597.586 192.45 600.586 189.25V157.6C588.286 158 577.836 159 569.236 160.6C560.636 162.1 553.636 164.1 548.236 166.6C542.836 169.1 538.886 172.05 536.386 175.45C533.986 178.85 532.786 182.65 532.786 186.85C532.786 190.85 533.436 194.3 534.736 197.2C536.036 200.1 537.786 202.5 539.986 204.4C542.186 206.2 544.786 207.55 547.786 208.45C550.786 209.25 554.036 209.65 557.536 209.65ZM667.287 226V74.05H683.187C686.987 74.05 689.387 75.9 690.387 79.6L692.337 95.2C697.937 88.3 704.187 82.65 711.087 78.25C718.087 73.85 726.187 71.65 735.387 71.65C745.687 71.65 753.987 74.5 760.287 80.2C766.687 85.9 771.287 93.6 774.087 103.3C776.187 97.8 778.937 93.05 782.337 89.05C785.837 85.05 789.737 81.75 794.037 79.15C798.337 76.55 802.887 74.65 807.687 73.45C812.587 72.25 817.537 71.65 822.537 71.65C830.537 71.65 837.637 72.95 843.837 75.55C850.137 78.05 855.437 81.75 859.737 86.65C864.137 91.55 867.487 97.6 869.787 104.8C872.087 111.9 873.237 120.05 873.237 129.25V226H846.537V129.25C846.537 117.35 843.937 108.35 838.737 102.25C833.537 96.05 825.987 92.95 816.087 92.95C811.687 92.95 807.487 93.75 803.487 95.35C799.587 96.85 796.137 99.1 793.137 102.1C790.137 105.1 787.737 108.9 785.937 113.5C784.237 118 783.387 123.25 783.387 129.25V226H756.687V129.25C756.687 117.05 754.237 107.95 749.337 101.95C744.437 95.95 737.287 92.95 727.887 92.95C721.287 92.95 715.137 94.75 709.437 98.35C703.837 101.85 698.687 106.65 693.987 112.75V226H667.287ZM1025.27 226H1013.42C1010.82 226 1008.72 225.6 1007.12 224.8C1005.52 224 1004.47 222.3 1003.97 219.7L1000.97 205.6C996.973 209.2 993.073 212.45 989.273 215.35C985.473 218.15 981.473 220.55 977.273 222.55C973.073 224.45 968.573 225.9 963.773 226.9C959.073 227.9 953.823 228.4 948.023 228.4C942.123 228.4 936.573 227.6 931.373 226C926.273 224.3 921.823 221.8 918.023 218.5C914.223 215.2 911.173 211.05 908.873 206.05C906.673 200.95 905.573 194.95 905.573 188.05C905.573 182.05 907.223 176.3 910.523 170.8C913.823 165.2 919.123 160.25 926.423 155.95C933.823 151.65 943.473 148.15 955.373 145.45C967.273 142.65 981.823 141.05 999.023 140.65V128.8C999.023 117 996.473 108.1 991.373 102.1C986.373 96 978.923 92.95 969.023 92.95C962.523 92.95 957.023 93.8 952.523 95.5C948.123 97.1 944.273 98.95 940.973 101.05C937.773 103.05 934.973 104.9 932.573 106.6C930.273 108.2 927.973 109 925.673 109C923.873 109 922.273 108.55 920.873 107.65C919.573 106.65 918.523 105.45 917.723 104.05L912.923 95.5C921.323 87.4 930.373 81.35 940.073 77.35C949.773 73.35 960.523 71.35 972.323 71.35C980.823 71.35 988.373 72.75 994.973 75.55C1001.57 78.35 1007.12 82.25 1011.62 87.25C1016.12 92.25 1019.52 98.3 1021.82 105.4C1024.12 112.5 1025.27 120.3 1025.27 128.8V226ZM955.973 209.65C960.673 209.65 964.973 209.2 968.873 208.3C972.773 207.3 976.423 205.95 979.823 204.25C983.323 202.45 986.623 200.3 989.723 197.8C992.923 195.3 996.023 192.45 999.023 189.25V157.6C986.723 158 976.273 159 967.673 160.6C959.073 162.1 952.073 164.1 946.673 166.6C941.273 169.1 937.323 172.05 934.823 175.45C932.423 178.85 931.223 182.65 931.223 186.85C931.223 190.85 931.873 194.3 933.173 197.2C934.473 200.1 936.223 202.5 938.423 204.4C940.623 206.2 943.223 207.55 946.223 208.45C949.223 209.25 952.473 209.65 955.973 209.65ZM1043.58 74.05H1064.58C1066.78 74.05 1068.58 74.6 1069.98 75.7C1071.38 76.8 1072.33 78.1 1072.83 79.6L1101.93 177.4C1102.73 181 1103.48 184.5 1104.18 187.9C1104.88 191.2 1105.48 194.55 1105.98 197.95C1106.78 194.55 1107.68 191.2 1108.68 187.9C1109.68 184.5 1110.73 181 1111.83 177.4L1143.93 79C1144.43 77.5 1145.28 76.25 1146.48 75.25C1147.78 74.25 1149.38 73.75 1151.28 73.75H1162.83C1164.83 73.75 1166.48 74.25 1167.78 75.25C1169.08 76.25 1169.98 77.5 1170.48 79L1201.83 177.4C1202.93 180.9 1203.88 184.35 1204.68 187.75C1205.58 191.15 1206.43 194.5 1207.23 197.8C1207.73 194.5 1208.38 191.05 1209.18 187.45C1209.98 183.85 1210.83 180.5 1211.73 177.4L1241.43 79.6C1241.93 78 1242.88 76.7 1244.28 75.7C1245.68 74.6 1247.33 74.05 1249.23 74.05H1269.33L1220.13 226H1198.98C1196.38 226 1194.58 224.3 1193.58 220.9L1159.98 117.85C1159.18 115.55 1158.53 113.25 1158.03 110.95C1157.53 108.55 1157.03 106.2 1156.53 103.9C1156.03 106.2 1155.53 108.55 1155.03 110.95C1154.53 113.35 1153.88 115.7 1153.08 118L1119.03 220.9C1117.93 224.3 1115.88 226 1112.88 226H1092.78L1043.58 74.05ZM1404.67 226H1392.82C1390.22 226 1388.12 225.6 1386.52 224.8C1384.92 224 1383.87 222.3 1383.37 219.7L1380.37 205.6C1376.37 209.2 1372.47 212.45 1368.67 215.35C1364.87 218.15 1360.87 220.55 1356.67 222.55C1352.47 224.45 1347.97 225.9 1343.17 226.9C1338.47 227.9 1333.22 228.4 1327.42 228.4C1321.52 228.4 1315.97 227.6 1310.77 226C1305.67 224.3 1301.22 221.8 1297.42 218.5C1293.62 215.2 1290.57 211.05 1288.27 206.05C1286.07 200.95 1284.97 194.95 1284.97 188.05C1284.97 182.05 1286.62 176.3 1289.92 170.8C1293.22 165.2 1298.52 160.25 1305.82 155.95C1313.22 151.65 1322.87 148.15 1334.77 145.45C1346.67 142.65 1361.22 141.05 1378.42 140.65V128.8C1378.42 117 1375.87 108.1 1370.77 102.1C1365.77 96 1358.32 92.95 1348.42 92.95C1341.92 92.95 1336.42 93.8 1331.92 95.5C1327.52 97.1 1323.67 98.95 1320.37 101.05C1317.17 103.05 1314.37 104.9 1311.97 106.6C1309.67 108.2 1307.37 109 1305.07 109C1303.27 109 1301.67 108.55 1300.27 107.65C1298.97 106.65 1297.92 105.45 1297.12 104.05L1292.32 95.5C1300.72 87.4 1309.77 81.35 1319.47 77.35C1329.17 73.35 1339.92 71.35 1351.72 71.35C1360.22 71.35 1367.77 72.75 1374.37 75.55C1380.97 78.35 1386.52 82.25 1391.02 87.25C1395.52 92.25 1398.92 98.3 1401.22 105.4C1403.52 112.5 1404.67 120.3 1404.67 128.8V226ZM1335.37 209.65C1340.07 209.65 1344.37 209.2 1348.27 208.3C1352.17 207.3 1355.82 205.95 1359.22 204.25C1362.72 202.45 1366.02 200.3 1369.12 197.8C1372.32 195.3 1375.42 192.45 1378.42 189.25V157.6C1366.12 158 1355.67 159 1347.07 160.6C1338.47 162.1 1331.47 164.1 1326.07 166.6C1320.67 169.1 1316.72 172.05 1314.22 175.45C1311.82 178.85 1310.62 182.65 1310.62 186.85C1310.62 190.85 1311.27 194.3 1312.57 197.2C1313.87 200.1 1315.62 202.5 1317.82 204.4C1320.02 206.2 1322.62 207.55 1325.62 208.45C1328.62 209.25 1331.87 209.65 1335.37 209.65ZM1472.87 5.04999V135.1H1479.77C1481.77 135.1 1483.42 134.85 1484.72 134.35C1486.02 133.75 1487.47 132.6 1489.07 130.9L1537.07 79.45C1538.57 77.85 1540.07 76.55 1541.57 75.55C1543.07 74.55 1545.07 74.05 1547.57 74.05H1571.87L1515.92 133.6C1514.52 135.3 1513.12 136.8 1511.72 138.1C1510.42 139.4 1508.92 140.55 1507.22 141.55C1509.02 142.75 1510.62 144.15 1512.02 145.75C1513.52 147.25 1514.92 149 1516.22 151L1575.62 226H1551.62C1549.42 226 1547.52 225.6 1545.92 224.8C1544.42 223.9 1542.97 222.55 1541.57 220.75L1491.62 158.5C1490.12 156.4 1488.62 155.05 1487.12 154.45C1485.62 153.75 1483.37 153.4 1480.37 153.4H1472.87V226H1446.02V5.04999H1472.87ZM1653.51 71.65C1662.61 71.65 1671.01 73.2 1678.71 76.3C1686.41 79.3 1693.06 83.7 1698.66 89.5C1704.26 95.2 1708.61 102.3 1711.71 110.8C1714.91 119.2 1716.51 128.8 1716.51 139.6C1716.51 143.8 1716.06 146.6 1715.16 148C1714.26 149.4 1712.56 150.1 1710.06 150.1H1608.96C1609.16 159.7 1610.46 168.05 1612.86 175.15C1615.26 182.25 1618.56 188.2 1622.76 193C1626.96 197.7 1631.96 201.25 1637.76 203.65C1643.56 205.95 1650.06 207.1 1657.26 207.1C1663.96 207.1 1669.71 206.35 1674.51 204.85C1679.41 203.25 1683.61 201.55 1687.11 199.75C1690.61 197.95 1693.51 196.3 1695.81 194.8C1698.21 193.2 1700.26 192.4 1701.96 192.4C1704.16 192.4 1705.86 193.25 1707.06 194.95L1714.56 204.7C1711.26 208.7 1707.31 212.2 1702.71 215.2C1698.11 218.1 1693.16 220.5 1687.86 222.4C1682.66 224.3 1677.26 225.7 1671.66 226.6C1666.06 227.6 1660.51 228.1 1655.01 228.1C1644.51 228.1 1634.81 226.35 1625.91 222.85C1617.11 219.25 1609.46 214.05 1602.96 207.25C1596.56 200.35 1591.56 191.85 1587.96 181.75C1584.36 171.65 1582.56 160.05 1582.56 146.95C1582.56 136.35 1584.16 126.45 1587.36 117.25C1590.66 108.05 1595.36 100.1 1601.46 93.4C1607.56 86.6 1615.01 81.3 1623.81 77.5C1632.61 73.6 1642.51 71.65 1653.51 71.65ZM1654.11 91.3C1641.21 91.3 1631.06 95.05 1623.66 102.55C1616.26 109.95 1611.66 120.25 1609.86 133.45H1692.51C1692.51 127.25 1691.66 121.6 1689.96 116.5C1688.26 111.3 1685.76 106.85 1682.46 103.15C1679.16 99.35 1675.11 96.45 1670.31 94.45C1665.61 92.35 1660.21 91.3 1654.11 91.3Z" fill="#46D5C7"/>
<path d="M210.711 187.423C154.838 255.292 84.312 235.957 56.0332 217.806L194.139 29.5877C182.301 17.3555 280.553 102.586 210.711 187.423Z" fill="#43D5C7"/>
<path d="M0.0950417 117.588C-1.79898 82.2327 25.0856 46.0358 38.7646 32.3568L103.082 121.534L40.3429 205.975C17.0623 181.116 2.46257 161.781 0.0950417 117.588Z" fill="#04BAC5"/>
<path d="M117.194 0.124569C93.2032 -1.45378 64.8455 12.3568 53.6655 19.4593L115.221 105.48L178.75 17.8813C166.912 8.01659 147.183 2.09751 117.194 0.124569Z" fill="#109A9C"/>
<path d="M53.9999 19.4994C45.2 25.0993 40.3333 30.4993 39 32.4993L103 121.499L40.5 205.998C47.3 213.598 53.6666 217.165 55.9999 217.998L194.499 29.4993C189.299 24.6994 181.666 19.8327 178.499 17.9994L115.5 105.499L53.9999 19.4994Z" fill="white"/>
</svg>
