<svg width="256" height="255" viewBox="0 0 256 255" fill="none" xmlns="http://www.w3.org/2000/svg">
<path d="M228.568 203.306C167.959 276.927 91.4564 255.954 60.781 236.265L210.591 32.0948C197.75 18.8259 304.329 111.28 228.568 203.306Z" fill="#43D5C7"/>
<path d="M0.103096 127.553C-1.95144 89.2014 27.2116 49.9369 42.0499 35.0986L111.818 131.833L43.762 223.431C18.5083 196.465 2.67127 175.492 0.103096 127.553Z" fill="#04BAC5"/>
<path d="M127.125 0.135127C101.101 -1.57699 70.3396 13.404 58.2122 21.1085L124.985 114.419L193.897 19.3967C181.056 8.696 159.655 2.27527 127.125 0.135127Z" fill="#109A9C"/>
<path d="M58.5768 21.1524C49.0311 27.2269 43.752 33.0845 42.3057 35.254L111.729 131.796L43.9328 223.457C51.309 231.701 58.2152 235.57 60.7463 236.474L210.983 31.9998C205.342 26.793 197.062 21.5139 193.627 19.5252L125.288 114.44L58.5768 21.1524Z" fill="white"/>
</svg>
