<?xml version="1.0" encoding="UTF-8" standalone="no"?>
<!DOCTYPE svg PUBLIC "-//W3C//DTD SVG 1.1//EN" "http://www.w3.org/Graphics/SVG/1.1/DTD/svg11.dtd">
<!-- Created with Vectornator (http://vectornator.io/) -->
<svg height="100%" stroke-miterlimit="10" style="fill-rule:nonzero;clip-rule:evenodd;stroke-linecap:round;stroke-linejoin:round;" version="1.1" viewBox="0 0 1024 1024" width="100%" xml:space="preserve" xmlns="http://www.w3.org/2000/svg" xmlns:vectornator="http://vectornator.io" xmlns:xlink="http://www.w3.org/1999/xlink">
<defs>
<linearGradient gradientTransform="matrix(2.79573 0 0 2.79573 -1076.36 68.9305)" gradientUnits="userSpaceOnUse" id="LinearGradient" x1="470.351" x2="452.21" y1="143.864" y2="163.724">
<stop offset="0" stop-color="#ffc9c9"/>
<stop offset="1" stop-color="#f05054"/>
</linearGradient>
</defs>
<g id="レイヤー-1" vectornator:layerName="レイヤー 1">
<g opacity="1">
<path d="M360.896 518.486L319.891 460.036L354.782 460.036L375.658 490.752L396.384 460.036L431.275 460.036L390.121 518.486L390.121 572.463L360.896 572.463L360.896 518.486Z" fill="#ef454a" fill-rule="nonzero" opacity="1" stroke="none"/>
<path d="M451.703 533.993C451.703 536.479 452.15 538.79 453.045 540.927C453.939 543.064 455.157 544.928 456.698 546.519C458.239 548.109 460.078 549.352 462.215 550.246C464.352 551.141 466.663 551.588 469.148 551.588C471.534 551.588 473.796 551.141 475.933 550.246C478.07 549.352 479.909 548.109 481.45 546.519C482.991 544.928 484.233 543.089 485.178 541.002C486.122 538.914 486.594 536.677 486.594 534.292C486.594 531.906 486.122 529.644 485.178 527.507C484.233 525.37 482.991 523.506 481.45 521.916C479.909 520.325 478.07 519.083 475.933 518.188C473.796 517.293 471.534 516.846 469.148 516.846C466.663 516.846 464.352 517.293 462.215 518.188C460.078 519.083 458.239 520.325 456.698 521.916C455.157 523.506 453.939 525.32 453.045 527.358C452.15 529.396 451.703 531.608 451.703 533.993ZM485.699 495.971L512.837 495.971L512.837 572.463L485.699 572.463L485.699 563.964C479.934 571.221 472.131 574.849 462.289 574.849C456.723 574.849 451.603 573.83 446.931 571.792C442.259 569.755 438.184 566.897 434.704 563.219C431.225 559.541 428.516 555.217 426.578 550.246C424.64 545.276 423.67 539.858 423.67 533.993C423.67 528.526 424.615 523.332 426.503 518.412C428.392 513.491 431.026 509.192 434.406 505.514C437.786 501.836 441.812 498.928 446.484 496.791C451.156 494.654 456.325 493.585 461.991 493.585C471.534 493.585 479.437 496.915 485.699 503.575L485.699 495.971Z" fill="#ef454a" fill-rule="nonzero" opacity="1" stroke="none"/>
<path d="M592.163 534.441C592.163 532.055 591.715 529.794 590.821 527.656C589.926 525.519 588.684 523.655 587.093 522.065C585.503 520.474 583.664 519.207 581.576 518.263C579.489 517.318 577.202 516.846 574.717 516.846C572.331 516.846 570.095 517.293 568.007 518.188C565.92 519.083 564.106 520.325 562.565 521.916C561.024 523.506 559.781 525.37 558.837 527.507C557.893 529.644 557.421 531.906 557.421 534.292C557.421 536.677 557.868 538.914 558.763 541.002C559.657 543.089 560.9 544.903 562.49 546.444C564.081 547.985 565.945 549.227 568.082 550.172C570.219 551.116 572.48 551.588 574.866 551.588C577.252 551.588 579.489 551.141 581.576 550.246C583.664 549.352 585.478 548.109 587.019 546.519C588.559 544.928 589.802 543.089 590.746 541.002C591.691 538.914 592.163 536.727 592.163 534.441ZM558.166 448.704L558.166 503.575C564.528 496.915 572.48 493.585 582.023 493.585C587.69 493.585 592.883 494.654 597.605 496.791C602.327 498.928 606.353 501.811 609.683 505.439C613.013 509.068 615.622 513.342 617.511 518.263C619.4 523.183 620.344 528.427 620.344 533.993C620.344 539.66 619.375 544.978 617.437 549.948C615.498 554.918 612.789 559.242 609.31 562.92C605.831 566.598 601.731 569.506 597.009 571.643C592.287 573.781 587.192 574.849 581.725 574.849C571.785 574.849 563.932 571.221 558.166 563.964L558.166 572.463L531.177 572.463L531.177 448.704L558.166 448.704Z" fill="#ef454a" fill-rule="nonzero" opacity="1" stroke="none"/>
<path d="M662.691 495.971L662.691 539.063C662.691 548.507 667.264 553.228 676.409 553.228C685.554 553.228 690.127 548.507 690.127 539.063L690.127 495.971L717.115 495.971L717.115 544.282C717.115 554.62 713.711 562.374 706.902 567.543C700.092 572.712 689.928 575.296 676.409 575.296C662.89 575.296 652.726 572.712 645.916 567.543C639.107 562.374 635.702 554.62 635.702 544.282L635.702 495.971L662.691 495.971Z" fill="#ef454a" fill-rule="nonzero" opacity="1" stroke="none"/>
<path d="M735.456 495.971L762.444 495.971L762.444 505.365C769.8 498.307 778.051 494.778 787.196 494.778C798.529 494.778 807.177 499.549 813.141 509.092C819.205 499.45 827.853 494.629 839.086 494.629C842.665 494.629 846.044 495.151 849.225 496.195C852.406 497.238 855.14 498.878 857.426 501.115C859.713 503.352 861.527 506.259 862.869 509.838C864.211 513.417 864.882 517.741 864.882 522.81L864.882 572.463L837.893 572.463L837.893 534.739C837.893 530.862 837.62 527.681 837.073 525.196C836.526 522.711 835.731 520.773 834.687 519.381C833.644 517.989 832.426 517.045 831.034 516.548C829.643 516.051 828.151 515.802 826.561 515.802C817.913 515.802 813.589 522.115 813.589 534.739L813.589 572.463L786.6 572.463L786.6 534.739C786.6 530.862 786.351 527.656 785.854 525.122C785.357 522.587 784.637 520.574 783.692 519.083C782.748 517.592 781.53 516.573 780.039 516.026C778.548 515.479 776.809 515.206 774.82 515.206C773.13 515.206 771.54 515.454 770.049 515.951C768.558 516.448 767.241 517.418 766.098 518.859C764.954 520.3 764.06 522.288 763.414 524.823C762.767 527.358 762.444 530.663 762.444 534.739L762.444 572.463L735.456 572.463L735.456 495.971Z" fill="#ef454a" fill-rule="nonzero" opacity="1" stroke="none"/>
<path d="M910.36 495.971L910.36 572.463L883.371 572.463L883.371 495.971L910.36 495.971ZM881.582 466.597C881.582 464.509 881.98 462.546 882.775 460.707C883.57 458.868 884.663 457.252 886.055 455.861C887.447 454.469 889.062 453.376 890.901 452.58C892.74 451.785 894.703 451.387 896.791 451.387C898.878 451.387 900.842 451.785 902.681 452.58C904.52 453.376 906.135 454.469 907.527 455.861C908.918 457.252 910.012 458.868 910.807 460.707C911.602 462.546 912 464.509 912 466.597C912 468.684 911.602 470.647 910.807 472.486C910.012 474.325 908.918 475.941 907.527 477.332C906.135 478.724 904.52 479.817 902.681 480.613C900.842 481.408 898.878 481.806 896.791 481.806C894.703 481.806 892.74 481.408 890.901 480.613C889.062 479.817 887.447 478.724 886.055 477.332C884.663 475.941 883.57 474.325 882.775 472.486C881.98 470.647 881.582 468.684 881.582 466.597Z" fill="#ef454a" fill-rule="nonzero" opacity="1" stroke="none"/>
</g>
<path d="M291.076 512C291.076 561.451 250.989 601.538 201.538 601.538C152.088 601.538 112 561.451 112 512C112 462.549 152.088 422.462 201.538 422.462C250.989 422.462 291.076 462.549 291.076 512Z" fill="#ffa7aa" fill-rule="nonzero" opacity="1" stroke="none" vectornator:layerName="circle"/>
<path d="M279.906 503.904C279.906 542.856 248.329 574.433 209.377 574.433C170.425 574.433 138.848 542.856 138.848 503.904C138.848 464.952 170.425 433.375 209.377 433.375C248.329 433.375 279.906 464.952 279.906 503.904Z" fill="#ffebeb" fill-rule="nonzero" opacity="1" stroke="none" vectornator:layerName="circle"/>
<path d="M268.323 495.808C268.323 524.034 245.442 546.915 217.216 546.915C188.991 546.915 166.109 524.034 166.109 495.808C166.109 467.583 188.991 444.702 217.216 444.702C245.442 444.702 268.323 467.583 268.323 495.808Z" fill="#ffffff" fill-rule="nonzero" opacity="1" stroke="none" vectornator:layerName="circle"/>
<path d="M238.844 470.948L220.387 476.713L187.102 487.11L195.131 510.523L158.325 519.182L190.378 524.916L200.67 554.878L204.376 518.318L229.434 522.796L238.844 470.948Z" fill="url(#LinearGradient)" fill-rule="nonzero" opacity="1" stroke="none"/>
</g>
</svg>
