<?xml version="1.0" encoding="UTF-8" standalone="no"?>
<!DOCTYPE svg PUBLIC "-//W3C//DTD SVG 1.1//EN" "http://www.w3.org/Graphics/SVG/1.1/DTD/svg11.dtd">
<!-- Created with Vectornator (http://vectornator.io/) -->
<svg height="100%" stroke-miterlimit="10" style="fill-rule:nonzero;clip-rule:evenodd;stroke-linecap:round;stroke-linejoin:round;" version="1.1" viewBox="0 0 1024 1024" width="100%" xml:space="preserve" xmlns="http://www.w3.org/2000/svg" xmlns:vectornator="http://vectornator.io" xmlns:xlink="http://www.w3.org/1999/xlink">
<defs>
<linearGradient gradientTransform="matrix(5.81127 0 0 5.81127 -2144.27 -511.626)" gradientUnits="userSpaceOnUse" id="LinearGradient" x1="470.351" x2="452.21" y1="143.864" y2="163.724">
<stop offset="0" stop-color="#ffc9c9"/>
<stop offset="1" stop-color="#f05054"/>
</linearGradient>
</defs>
<g id="レイヤー-1" vectornator:layerName="レイヤー 1">
<g opacity="1">
<path d="M167.402 724.012L112 645.04L159.142 645.04L187.346 686.541L215.349 645.04L262.491 645.04L206.888 724.012L206.888 796.941L167.402 796.941L167.402 724.012Z" fill="#ef454a" fill-rule="nonzero" opacity="1" stroke="none"/>
<path d="M290.091 744.964C290.091 748.322 290.696 751.445 291.904 754.332C293.113 757.22 294.758 759.738 296.84 761.887C298.922 764.036 301.407 765.715 304.294 766.924C307.182 768.132 310.304 768.737 313.662 768.737C316.885 768.737 319.941 768.132 322.829 766.924C325.716 765.715 328.201 764.036 330.283 761.887C332.364 759.738 334.043 757.253 335.319 754.433C336.595 751.613 337.233 748.591 337.233 745.367C337.233 742.144 336.595 739.088 335.319 736.201C334.043 733.313 332.364 730.795 330.283 728.646C328.201 726.497 325.716 724.818 322.829 723.61C319.941 722.401 316.885 721.796 313.662 721.796C310.304 721.796 307.182 722.401 304.294 723.61C301.407 724.818 298.922 726.497 296.84 728.646C294.758 730.795 293.113 733.246 291.904 735.999C290.696 738.753 290.091 741.741 290.091 744.964ZM336.024 693.592L372.69 693.592L372.69 796.941L336.024 796.941L336.024 785.458C328.234 795.262 317.691 800.165 304.395 800.165C296.874 800.165 289.957 798.788 283.644 796.035C277.332 793.281 271.825 789.42 267.125 784.451C262.424 779.481 258.764 773.639 256.145 766.924C253.526 760.208 252.217 752.888 252.217 744.964C252.217 737.577 253.492 730.56 256.044 723.912C258.596 717.264 262.155 711.455 266.722 706.485C271.288 701.516 276.728 697.588 283.04 694.7C289.352 691.812 296.336 690.369 303.992 690.369C316.885 690.369 327.563 694.868 336.024 703.866L336.024 693.592Z" fill="#ef454a" fill-rule="nonzero" opacity="1" stroke="none"/>
<path d="M479.867 745.569C479.867 742.345 479.263 739.29 478.054 736.402C476.845 733.515 475.166 730.996 473.017 728.848C470.868 726.699 468.384 724.986 465.563 723.71C462.743 722.434 459.654 721.796 456.296 721.796C453.073 721.796 450.051 722.401 447.23 723.61C444.41 724.818 441.959 726.497 439.877 728.646C437.795 730.795 436.117 733.313 434.841 736.201C433.565 739.088 432.927 742.144 432.927 745.367C432.927 748.591 433.531 751.613 434.74 754.433C435.949 757.253 437.627 759.705 439.776 761.786C441.925 763.868 444.444 765.547 447.331 766.823C450.219 768.099 453.274 768.737 456.498 768.737C459.721 768.737 462.743 768.132 465.563 766.924C468.384 765.715 470.835 764.036 472.917 761.887C474.998 759.738 476.677 757.253 477.953 754.433C479.229 751.613 479.867 748.658 479.867 745.569ZM433.934 629.729L433.934 703.866C442.53 694.868 453.274 690.369 466.168 690.369C473.823 690.369 480.841 691.812 487.22 694.7C493.6 697.588 499.039 701.482 503.539 706.385C508.038 711.287 511.564 717.062 514.115 723.71C516.667 730.358 517.943 737.443 517.943 744.964C517.943 752.62 516.634 759.805 514.015 766.521C511.396 773.236 507.736 779.078 503.035 784.048C498.334 789.017 492.794 792.946 486.415 795.833C480.035 798.721 473.152 800.165 465.765 800.165C452.334 800.165 441.724 795.262 433.934 785.458L433.934 796.941L397.47 796.941L397.47 629.729L433.934 629.729Z" fill="#ef454a" fill-rule="nonzero" opacity="1" stroke="none"/>
<path d="M575.158 693.592L575.158 751.814C575.158 764.573 581.336 770.953 593.692 770.953C606.049 770.953 612.227 764.573 612.227 751.814L612.227 693.592L648.691 693.592L648.691 758.865C648.691 772.833 644.091 783.309 634.891 790.293C625.691 797.277 611.958 800.769 593.692 800.769C575.427 800.769 561.694 797.277 552.494 790.293C543.294 783.309 538.694 772.833 538.694 758.865L538.694 693.592L575.158 693.592Z" fill="#ef454a" fill-rule="nonzero" opacity="1" stroke="none"/>
<path d="M673.471 693.592L709.935 693.592L709.935 706.284C719.874 696.748 731.021 691.98 743.377 691.98C758.688 691.98 770.373 698.427 778.432 711.32C786.624 698.293 798.309 691.779 813.486 691.779C818.321 691.779 822.887 692.484 827.185 693.894C831.483 695.304 835.176 697.52 838.265 700.542C841.354 703.564 843.806 707.493 845.619 712.328C847.432 717.163 848.338 723.005 848.338 729.855L848.338 796.941L811.874 796.941L811.874 745.972C811.874 740.734 811.505 736.436 810.766 733.078C810.027 729.721 808.953 727.102 807.543 725.221C806.132 723.341 804.487 722.065 802.607 721.393C800.727 720.722 798.712 720.386 796.563 720.386C784.878 720.386 779.036 728.915 779.036 745.972L779.036 796.941L742.572 796.941L742.572 745.972C742.572 740.734 742.236 736.402 741.564 732.977C740.893 729.553 739.919 726.833 738.643 724.818C737.367 722.804 735.722 721.427 733.707 720.688C731.693 719.95 729.342 719.58 726.656 719.58C724.373 719.58 722.224 719.916 720.21 720.588C718.195 721.259 716.415 722.569 714.871 724.516C713.326 726.464 712.118 729.15 711.245 732.575C710.372 735.999 709.935 740.465 709.935 745.972L709.935 796.941L673.471 796.941L673.471 693.592Z" fill="#ef454a" fill-rule="nonzero" opacity="1" stroke="none"/>
<path d="M909.784 693.592L909.784 796.941L873.32 796.941L873.32 693.592L909.784 693.592ZM870.902 653.904C870.902 651.084 871.439 648.431 872.514 645.946C873.588 643.462 875.066 641.279 876.946 639.399C878.826 637.519 881.009 636.041 883.493 634.967C885.978 633.892 888.631 633.355 891.451 633.355C894.271 633.355 896.924 633.892 899.409 634.967C901.893 636.041 904.076 637.519 905.956 639.399C907.836 641.279 909.314 643.462 910.388 645.946C911.463 648.431 912 651.084 912 653.904C912 656.725 911.463 659.377 910.388 661.862C909.314 664.347 907.836 666.529 905.956 668.409C904.076 670.29 901.893 671.767 899.409 672.841C896.924 673.916 894.271 674.453 891.451 674.453C888.631 674.453 885.978 673.916 883.493 672.841C881.009 671.767 878.826 670.29 876.946 668.409C875.066 666.529 873.588 664.347 872.514 661.862C871.439 659.377 870.902 656.725 870.902 653.904Z" fill="#ef454a" fill-rule="nonzero" opacity="1" stroke="none"/>
</g>
<path d="M698.116 409.347C698.116 512.136 614.789 595.463 512 595.463C409.211 595.463 325.884 512.136 325.884 409.347C325.884 306.558 409.211 223.231 512 223.231C614.789 223.231 698.116 306.558 698.116 409.347Z" fill="#ffa7aa" fill-rule="nonzero" opacity="1" stroke="none" vectornator:layerName="circle"/>
<path d="M674.898 392.519C674.898 473.486 609.261 539.122 528.294 539.122C447.327 539.122 381.691 473.486 381.691 392.519C381.691 311.552 447.327 245.916 528.294 245.916C609.261 245.916 674.898 311.552 674.898 392.519Z" fill="#ffebeb" fill-rule="nonzero" opacity="1" stroke="none" vectornator:layerName="circle"/>
<path d="M650.82 375.691C650.82 434.361 603.259 481.922 544.588 481.922C485.918 481.922 438.357 434.361 438.357 375.691C438.357 317.021 485.918 269.459 544.588 269.459C603.259 269.459 650.82 317.021 650.82 375.691Z" fill="#ffffff" fill-rule="nonzero" opacity="1" stroke="none" vectornator:layerName="circle"/>
<path d="M589.544 324.014L551.18 335.999L481.993 357.611L498.682 406.276L422.176 424.275L488.802 436.195L510.195 498.474L517.898 422.48L569.985 431.788L589.544 324.014Z" fill="url(#LinearGradient)" fill-rule="nonzero" opacity="1" stroke="none"/>
</g>
</svg>
