<svg width="64" height="64" viewBox="0 0 64 64" fill="none" xmlns="http://www.w3.org/2000/svg">
<path d="M57.1421 50.8267C41.9898 69.232 22.864 63.9887 15.1951 59.0663L52.6478 8.02355C49.4376 4.7063 76.0825 27.82 57.1421 50.8267Z" fill="#43D5C7"/>
<path d="M0.0257743 31.8883C-0.487863 22.3004 6.80293 12.4842 10.5125 8.7746L27.9548 32.9584L10.9406 55.8581C4.62711 49.1166 0.667821 43.8732 0.0257743 31.8883Z" fill="#04BAC5"/>
<path d="M31.782 0.0337819C25.2759 -0.39425 17.5856 3.35103 14.5537 5.27717L31.2469 28.605L48.4752 4.84921C45.265 2.17402 39.9146 0.568822 31.782 0.0337819Z" fill="#109A9C"/>
<path d="M14.6435 5.28825C12.257 6.80691 10.9373 8.27132 10.5757 8.8137L27.9317 32.9494L10.9825 55.8648C12.8265 57.9259 14.5531 58.8931 15.1859 59.1191L52.7454 8.00013C51.3352 6.69843 49.2652 5.37865 48.4064 4.88147L31.3216 28.6104L14.6435 5.28825Z" fill="black"/>
</svg>
