<?xml version="1.0" encoding="UTF-8" standalone="no"?>
<!DOCTYPE svg PUBLIC "-//W3C//DTD SVG 1.1//EN" "http://www.w3.org/Graphics/SVG/1.1/DTD/svg11.dtd">
<!-- Created with Vectornator (http://vectornator.io/) -->
<svg height="100%" stroke-miterlimit="10" style="fill-rule:nonzero;clip-rule:evenodd;stroke-linecap:round;stroke-linejoin:round;" version="1.1" viewBox="0 0 1024 1024" width="100%" xml:space="preserve" xmlns="http://www.w3.org/2000/svg" xmlns:vectornator="http://vectornator.io" xmlns:xlink="http://www.w3.org/1999/xlink">
<defs/>
<g id="レイヤー-1" vectornator:layerName="レイヤー 1">
<g opacity="1">
<path d="M167.402 520.764L112 441.791L159.142 441.791L187.346 483.292L215.349 441.791L262.491 441.791L206.888 520.764L206.888 593.692L167.402 593.692L167.402 520.764Z" fill="#ef454a" fill-rule="nonzero" opacity="1" stroke="none"/>
<path d="M290.091 541.715C290.091 545.073 290.696 548.196 291.904 551.083C293.113 553.971 294.758 556.489 296.84 558.638C298.922 560.787 301.407 562.466 304.294 563.675C307.182 564.883 310.304 565.488 313.662 565.488C316.885 565.488 319.941 564.883 322.829 563.675C325.716 562.466 328.201 560.787 330.283 558.638C332.364 556.489 334.043 554.005 335.319 551.184C336.595 548.364 337.233 545.342 337.233 542.118C337.233 538.895 336.595 535.84 335.319 532.952C334.043 530.064 332.364 527.546 330.283 525.397C328.201 523.248 325.716 521.569 322.829 520.361C319.941 519.152 316.885 518.547 313.662 518.547C310.304 518.547 307.182 519.152 304.294 520.361C301.407 521.569 298.922 523.248 296.84 525.397C294.758 527.546 293.113 529.997 291.904 532.75C290.696 535.504 290.091 538.492 290.091 541.715ZM336.024 490.343L372.69 490.343L372.69 593.692L336.024 593.692L336.024 582.209C328.234 592.013 317.691 596.916 304.395 596.916C296.874 596.916 289.957 595.539 283.644 592.786C277.332 590.032 271.825 586.171 267.125 581.202C262.424 576.232 258.764 570.39 256.145 563.675C253.526 556.959 252.217 549.64 252.217 541.715C252.217 534.329 253.492 527.311 256.044 520.663C258.596 514.015 262.155 508.206 266.722 503.236C271.288 498.267 276.728 494.339 283.04 491.451C289.352 488.563 296.336 487.12 303.992 487.12C316.885 487.12 327.563 491.619 336.024 500.617L336.024 490.343Z" fill="#ef454a" fill-rule="nonzero" opacity="1" stroke="none"/>
<path d="M479.867 542.32C479.867 539.096 479.263 536.041 478.054 533.153C476.845 530.266 475.166 527.748 473.017 525.599C470.868 523.45 468.384 521.737 465.563 520.461C462.743 519.185 459.654 518.547 456.296 518.547C453.073 518.547 450.051 519.152 447.23 520.361C444.41 521.569 441.959 523.248 439.877 525.397C437.795 527.546 436.117 530.064 434.841 532.952C433.565 535.84 432.927 538.895 432.927 542.118C432.927 545.342 433.531 548.364 434.74 551.184C435.949 554.005 437.627 556.456 439.776 558.537C441.925 560.619 444.444 562.298 447.331 563.574C450.219 564.85 453.274 565.488 456.498 565.488C459.721 565.488 462.743 564.883 465.563 563.675C468.384 562.466 470.835 560.787 472.917 558.638C474.998 556.489 476.677 554.005 477.953 551.184C479.229 548.364 479.867 545.409 479.867 542.32ZM433.934 426.48L433.934 500.617C442.53 491.619 453.274 487.12 466.168 487.12C473.823 487.12 480.841 488.563 487.22 491.451C493.6 494.339 499.039 498.234 503.539 503.136C508.038 508.038 511.564 513.813 514.115 520.461C516.667 527.11 517.943 534.194 517.943 541.715C517.943 549.371 516.634 556.556 514.015 563.272C511.396 569.987 507.736 575.829 503.035 580.799C498.334 585.768 492.794 589.697 486.415 592.584C480.035 595.472 473.152 596.916 465.765 596.916C452.334 596.916 441.724 592.013 433.934 582.209L433.934 593.692L397.47 593.692L397.47 426.48L433.934 426.48Z" fill="#ef454a" fill-rule="nonzero" opacity="1" stroke="none"/>
<path d="M575.158 490.343L575.158 548.565C575.158 561.324 581.336 567.704 593.692 567.704C606.049 567.704 612.227 561.324 612.227 548.565L612.227 490.343L648.691 490.343L648.691 555.616C648.691 569.584 644.091 580.06 634.891 587.044C625.691 594.028 611.958 597.52 593.692 597.52C575.427 597.52 561.694 594.028 552.494 587.044C543.294 580.06 538.694 569.584 538.694 555.616L538.694 490.343L575.158 490.343Z" fill="#ef454a" fill-rule="nonzero" opacity="1" stroke="none"/>
<path d="M673.471 490.343L709.935 490.343L709.935 503.035C719.874 493.499 731.021 488.731 743.377 488.731C758.688 488.731 770.373 495.178 778.432 508.072C786.624 495.044 798.309 488.53 813.486 488.53C818.321 488.53 822.887 489.235 827.185 490.645C831.483 492.055 835.176 494.271 838.265 497.293C841.354 500.315 843.806 504.244 845.619 509.079C847.432 513.914 848.338 519.756 848.338 526.606L848.338 593.692L811.874 593.692L811.874 542.723C811.874 537.485 811.505 533.187 810.766 529.829C810.027 526.472 808.953 523.853 807.543 521.972C806.132 520.092 804.487 518.816 802.607 518.145C800.727 517.473 798.712 517.137 796.563 517.137C784.878 517.137 779.036 525.666 779.036 542.723L779.036 593.692L742.572 593.692L742.572 542.723C742.572 537.485 742.236 533.153 741.564 529.729C740.893 526.304 739.919 523.584 738.643 521.569C737.367 519.555 735.722 518.178 733.707 517.439C731.693 516.701 729.342 516.331 726.656 516.331C724.373 516.331 722.224 516.667 720.21 517.339C718.195 518.01 716.415 519.32 714.871 521.267C713.326 523.215 712.118 525.901 711.245 529.326C710.372 532.75 709.935 537.216 709.935 542.723L709.935 593.692L673.471 593.692L673.471 490.343Z" fill="#ef454a" fill-rule="nonzero" opacity="1" stroke="none"/>
<path d="M909.784 490.343L909.784 593.692L873.32 593.692L873.32 490.343L909.784 490.343ZM870.902 450.655C870.902 447.835 871.439 445.182 872.514 442.698C873.588 440.213 875.066 438.03 876.946 436.15C878.826 434.27 881.009 432.792 883.493 431.718C885.978 430.643 888.631 430.106 891.451 430.106C894.271 430.106 896.924 430.643 899.409 431.718C901.893 432.792 904.076 434.27 905.956 436.15C907.836 438.03 909.314 440.213 910.388 442.698C911.463 445.182 912 447.835 912 450.655C912 453.476 911.463 456.128 910.388 458.613C909.314 461.098 907.836 463.28 905.956 465.16C904.076 467.041 901.893 468.518 899.409 469.593C896.924 470.667 894.271 471.204 891.451 471.204C888.631 471.204 885.978 470.667 883.493 469.593C881.009 468.518 878.826 467.041 876.946 465.16C875.066 463.28 873.588 461.098 872.514 458.613C871.439 456.128 870.902 453.476 870.902 450.655Z" fill="#ef454a" fill-rule="nonzero" opacity="1" stroke="none"/>
</g>
</g>
</svg>
