<svg width="256" height="255" viewBox="0 0 256 255" fill="none" xmlns="http://www.w3.org/2000/svg">
<path d="M228.568 203.305C167.96 276.925 91.4574 255.952 60.7822 236.263L210.591 32.0941C197.751 18.8253 304.329 111.279 228.568 203.305Z" fill="#43D5C7"/>
<path d="M0.103096 127.552C-1.95143 89.2008 27.2114 49.9365 42.0496 35.0983L111.818 131.832L43.7617 223.43C18.5082 196.464 2.67125 175.491 0.103096 127.552Z" fill="#04BAC5"/>
<path d="M127.125 0.135126C101.101 -1.57698 70.3406 13.4039 58.2131 21.1084L124.985 114.418L193.898 19.3966C181.057 8.69596 159.655 2.27526 127.125 0.135126Z" fill="#109A9C"/>
<path d="M58.5753 21.1525C49.0296 27.2271 43.7505 33.0847 42.3042 35.2541L111.727 131.796L43.9313 223.456C51.3075 231.701 58.2137 235.569 60.7448 236.473L210.981 31.9999C205.34 26.7932 197.06 21.5141 193.625 19.5254L125.287 114.44L58.5753 21.1525Z" fill="black"/>
</svg>
