<svg width="1776" height="235" viewBox="0 0 1776 235" fill="none" xmlns="http://www.w3.org/2000/svg">
<path d="M210.712 187.423C154.838 255.292 84.3116 235.958 56.0327 217.806L194.139 29.5873C182.301 17.355 280.554 102.586 210.712 187.423Z" fill="#43D5C7"/>
<path d="M0.0950422 117.588C-1.79899 82.2325 25.0857 46.0355 38.7648 32.3564L103.083 121.534L40.3432 205.976C17.0624 181.117 2.46258 161.782 0.0950422 117.588Z" fill="#04BAC5"/>
<path d="M117.193 0.12457C93.2017 -1.45379 64.8439 12.3568 53.6638 19.4595L115.22 105.48L178.749 17.8814C166.911 8.01664 147.182 2.09752 117.193 0.12457Z" fill="#109A9C"/>
<path d="M432.9 140V225.5H403.95V140L325.2 10.55H350.7C353.3 10.55 355.35 11.2 356.85 12.5C358.35 13.8 359.65 15.4 360.75 17.3L409.95 100.85C411.95 104.35 413.6 107.65 414.9 110.75C416.3 113.85 417.55 116.9 418.65 119.9C419.75 116.8 420.95 113.7 422.25 110.6C423.55 107.5 425.2 104.25 427.2 100.85L476.25 17.3C477.15 15.7 478.35 14.2 479.85 12.8C481.45 11.3 483.5 10.55 486 10.55H511.8L432.9 140ZM626.836 225.5H614.986C612.386 225.5 610.286 225.1 608.686 224.3C607.086 223.5 606.036 221.8 605.536 219.2L602.536 205.1C598.536 208.7 594.636 211.95 590.836 214.85C587.036 217.65 583.036 220.05 578.836 222.05C574.636 223.95 570.136 225.4 565.336 226.4C560.636 227.4 555.386 227.9 549.586 227.9C543.686 227.9 538.136 227.1 532.936 225.5C527.836 223.8 523.386 221.3 519.586 218C515.786 214.7 512.736 210.55 510.436 205.55C508.236 200.45 507.136 194.45 507.136 187.55C507.136 181.55 508.786 175.8 512.086 170.3C515.386 164.7 520.686 159.75 527.986 155.45C535.386 151.15 545.036 147.65 556.936 144.95C568.836 142.15 583.386 140.55 600.586 140.15V128.3C600.586 116.5 598.036 107.6 592.936 101.6C587.936 95.5 580.486 92.45 570.586 92.45C564.086 92.45 558.586 93.3 554.086 95C549.686 96.6 545.836 98.45 542.536 100.55C539.336 102.55 536.536 104.4 534.136 106.1C531.836 107.7 529.536 108.5 527.236 108.5C525.436 108.5 523.836 108.05 522.436 107.15C521.136 106.15 520.086 104.95 519.286 103.55L514.486 95C522.886 86.9 531.936 80.85 541.636 76.85C551.336 72.85 562.086 70.85 573.886 70.85C582.386 70.85 589.936 72.25 596.536 75.05C603.136 77.85 608.686 81.75 613.186 86.75C617.686 91.75 621.086 97.8 623.386 104.9C625.686 112 626.836 119.8 626.836 128.3V225.5ZM557.536 209.15C562.236 209.15 566.536 208.7 570.436 207.8C574.336 206.8 577.986 205.45 581.386 203.75C584.886 201.95 588.186 199.8 591.286 197.3C594.486 194.8 597.586 191.95 600.586 188.75V157.1C588.286 157.5 577.836 158.5 569.236 160.1C560.636 161.6 553.636 163.6 548.236 166.1C542.836 168.6 538.886 171.55 536.386 174.95C533.986 178.35 532.786 182.15 532.786 186.35C532.786 190.35 533.436 193.8 534.736 196.7C536.036 199.6 537.786 202 539.986 203.9C542.186 205.7 544.786 207.05 547.786 207.95C550.786 208.75 554.036 209.15 557.536 209.15ZM667.287 225.5V73.55H683.187C686.987 73.55 689.387 75.4 690.387 79.1L692.337 94.7C697.937 87.8 704.187 82.15 711.087 77.75C718.087 73.35 726.187 71.15 735.387 71.15C745.687 71.15 753.987 74 760.287 79.7C766.687 85.4 771.287 93.1 774.087 102.8C776.187 97.3 778.937 92.55 782.337 88.55C785.837 84.55 789.737 81.25 794.037 78.65C798.337 76.05 802.887 74.15 807.687 72.95C812.587 71.75 817.537 71.15 822.537 71.15C830.537 71.15 837.637 72.45 843.837 75.05C850.137 77.55 855.437 81.25 859.737 86.15C864.137 91.05 867.487 97.1 869.787 104.3C872.087 111.4 873.237 119.55 873.237 128.75V225.5H846.537V128.75C846.537 116.85 843.937 107.85 838.737 101.75C833.537 95.55 825.987 92.45 816.087 92.45C811.687 92.45 807.487 93.25 803.487 94.85C799.587 96.35 796.137 98.6 793.137 101.6C790.137 104.6 787.737 108.4 785.937 113C784.237 117.5 783.387 122.75 783.387 128.75V225.5H756.687V128.75C756.687 116.55 754.237 107.45 749.337 101.45C744.437 95.45 737.287 92.45 727.887 92.45C721.287 92.45 715.137 94.25 709.437 97.85C703.837 101.35 698.687 106.15 693.987 112.25V225.5H667.287ZM1025.27 225.5H1013.42C1010.82 225.5 1008.72 225.1 1007.12 224.3C1005.52 223.5 1004.47 221.8 1003.97 219.2L1000.97 205.1C996.973 208.7 993.073 211.95 989.273 214.85C985.473 217.65 981.473 220.05 977.273 222.05C973.073 223.95 968.573 225.4 963.773 226.4C959.073 227.4 953.823 227.9 948.023 227.9C942.123 227.9 936.573 227.1 931.373 225.5C926.273 223.8 921.823 221.3 918.023 218C914.223 214.7 911.173 210.55 908.873 205.55C906.673 200.45 905.573 194.45 905.573 187.55C905.573 181.55 907.223 175.8 910.523 170.3C913.823 164.7 919.123 159.75 926.423 155.45C933.823 151.15 943.473 147.65 955.373 144.95C967.273 142.15 981.823 140.55 999.023 140.15V128.3C999.023 116.5 996.473 107.6 991.373 101.6C986.373 95.5 978.923 92.45 969.023 92.45C962.523 92.45 957.023 93.3 952.523 95C948.123 96.6 944.273 98.45 940.973 100.55C937.773 102.55 934.973 104.4 932.573 106.1C930.273 107.7 927.973 108.5 925.673 108.5C923.873 108.5 922.273 108.05 920.873 107.15C919.573 106.15 918.523 104.95 917.723 103.55L912.923 95C921.323 86.9 930.373 80.85 940.073 76.85C949.773 72.85 960.523 70.85 972.323 70.85C980.823 70.85 988.373 72.25 994.973 75.05C1001.57 77.85 1007.12 81.75 1011.62 86.75C1016.12 91.75 1019.52 97.8 1021.82 104.9C1024.12 112 1025.27 119.8 1025.27 128.3V225.5ZM955.973 209.15C960.673 209.15 964.973 208.7 968.873 207.8C972.773 206.8 976.423 205.45 979.823 203.75C983.323 201.95 986.623 199.8 989.723 197.3C992.923 194.8 996.023 191.95 999.023 188.75V157.1C986.723 157.5 976.273 158.5 967.673 160.1C959.073 161.6 952.073 163.6 946.673 166.1C941.273 168.6 937.323 171.55 934.823 174.95C932.423 178.35 931.223 182.15 931.223 186.35C931.223 190.35 931.873 193.8 933.173 196.7C934.473 199.6 936.223 202 938.423 203.9C940.623 205.7 943.223 207.05 946.223 207.95C949.223 208.75 952.473 209.15 955.973 209.15ZM1043.58 73.55H1064.58C1066.78 73.55 1068.58 74.1 1069.98 75.2C1071.38 76.3 1072.33 77.6 1072.83 79.1L1101.93 176.9C1102.73 180.5 1103.48 184 1104.18 187.4C1104.88 190.7 1105.48 194.05 1105.98 197.45C1106.78 194.05 1107.68 190.7 1108.68 187.4C1109.68 184 1110.73 180.5 1111.83 176.9L1143.93 78.5C1144.43 77 1145.28 75.75 1146.48 74.75C1147.78 73.75 1149.38 73.25 1151.28 73.25H1162.83C1164.83 73.25 1166.48 73.75 1167.78 74.75C1169.08 75.75 1169.98 77 1170.48 78.5L1201.83 176.9C1202.93 180.4 1203.88 183.85 1204.68 187.25C1205.58 190.65 1206.43 194 1207.23 197.3C1207.73 194 1208.38 190.55 1209.18 186.95C1209.98 183.35 1210.83 180 1211.73 176.9L1241.43 79.1C1241.93 77.5 1242.88 76.2 1244.28 75.2C1245.68 74.1 1247.33 73.55 1249.23 73.55H1269.33L1220.13 225.5H1198.98C1196.38 225.5 1194.58 223.8 1193.58 220.4L1159.98 117.35C1159.18 115.05 1158.53 112.75 1158.03 110.45C1157.53 108.05 1157.03 105.7 1156.53 103.4C1156.03 105.7 1155.53 108.05 1155.03 110.45C1154.53 112.85 1153.88 115.2 1153.08 117.5L1119.03 220.4C1117.93 223.8 1115.88 225.5 1112.88 225.5H1092.78L1043.58 73.55ZM1404.67 225.5H1392.82C1390.22 225.5 1388.12 225.1 1386.52 224.3C1384.92 223.5 1383.87 221.8 1383.37 219.2L1380.37 205.1C1376.37 208.7 1372.47 211.95 1368.67 214.85C1364.87 217.65 1360.87 220.05 1356.67 222.05C1352.47 223.95 1347.97 225.4 1343.17 226.4C1338.47 227.4 1333.22 227.9 1327.42 227.9C1321.52 227.9 1315.97 227.1 1310.77 225.5C1305.67 223.8 1301.22 221.3 1297.42 218C1293.62 214.7 1290.57 210.55 1288.27 205.55C1286.07 200.45 1284.97 194.45 1284.97 187.55C1284.97 181.55 1286.62 175.8 1289.92 170.3C1293.22 164.7 1298.52 159.75 1305.82 155.45C1313.22 151.15 1322.87 147.65 1334.77 144.95C1346.67 142.15 1361.22 140.55 1378.42 140.15V128.3C1378.42 116.5 1375.87 107.6 1370.77 101.6C1365.77 95.5 1358.32 92.45 1348.42 92.45C1341.92 92.45 1336.42 93.3 1331.92 95C1327.52 96.6 1323.67 98.45 1320.37 100.55C1317.17 102.55 1314.37 104.4 1311.97 106.1C1309.67 107.7 1307.37 108.5 1305.07 108.5C1303.27 108.5 1301.67 108.05 1300.27 107.15C1298.97 106.15 1297.92 104.95 1297.12 103.55L1292.32 95C1300.72 86.9 1309.77 80.85 1319.47 76.85C1329.17 72.85 1339.92 70.85 1351.72 70.85C1360.22 70.85 1367.77 72.25 1374.37 75.05C1380.97 77.85 1386.52 81.75 1391.02 86.75C1395.52 91.75 1398.92 97.8 1401.22 104.9C1403.52 112 1404.67 119.8 1404.67 128.3V225.5ZM1335.37 209.15C1340.07 209.15 1344.37 208.7 1348.27 207.8C1352.17 206.8 1355.82 205.45 1359.22 203.75C1362.72 201.95 1366.02 199.8 1369.12 197.3C1372.32 194.8 1375.42 191.95 1378.42 188.75V157.1C1366.12 157.5 1355.67 158.5 1347.07 160.1C1338.47 161.6 1331.47 163.6 1326.07 166.1C1320.67 168.6 1316.72 171.55 1314.22 174.95C1311.82 178.35 1310.62 182.15 1310.62 186.35C1310.62 190.35 1311.27 193.8 1312.57 196.7C1313.87 199.6 1315.62 202 1317.82 203.9C1320.02 205.7 1322.62 207.05 1325.62 207.95C1328.62 208.75 1331.87 209.15 1335.37 209.15ZM1472.87 4.54999V134.6H1479.77C1481.77 134.6 1483.42 134.35 1484.72 133.85C1486.02 133.25 1487.47 132.1 1489.07 130.4L1537.07 78.95C1538.57 77.35 1540.07 76.05 1541.57 75.05C1543.07 74.05 1545.07 73.55 1547.57 73.55H1571.87L1515.92 133.1C1514.52 134.8 1513.12 136.3 1511.72 137.6C1510.42 138.9 1508.92 140.05 1507.22 141.05C1509.02 142.25 1510.62 143.65 1512.02 145.25C1513.52 146.75 1514.92 148.5 1516.22 150.5L1575.62 225.5H1551.62C1549.42 225.5 1547.52 225.1 1545.92 224.3C1544.42 223.4 1542.97 222.05 1541.57 220.25L1491.62 158C1490.12 155.9 1488.62 154.55 1487.12 153.95C1485.62 153.25 1483.37 152.9 1480.37 152.9H1472.87V225.5H1446.02V4.54999H1472.87ZM1653.51 71.15C1662.61 71.15 1671.01 72.7 1678.71 75.8C1686.41 78.8 1693.06 83.2 1698.66 89C1704.26 94.7 1708.61 101.8 1711.71 110.3C1714.91 118.7 1716.51 128.3 1716.51 139.1C1716.51 143.3 1716.06 146.1 1715.16 147.5C1714.26 148.9 1712.56 149.6 1710.06 149.6H1608.96C1609.16 159.2 1610.46 167.55 1612.86 174.65C1615.26 181.75 1618.56 187.7 1622.76 192.5C1626.96 197.2 1631.96 200.75 1637.76 203.15C1643.56 205.45 1650.06 206.6 1657.26 206.6C1663.96 206.6 1669.71 205.85 1674.51 204.35C1679.41 202.75 1683.61 201.05 1687.11 199.25C1690.61 197.45 1693.51 195.8 1695.81 194.3C1698.21 192.7 1700.26 191.9 1701.96 191.9C1704.16 191.9 1705.86 192.75 1707.06 194.45L1714.56 204.2C1711.26 208.2 1707.31 211.7 1702.71 214.7C1698.11 217.6 1693.16 220 1687.86 221.9C1682.66 223.8 1677.26 225.2 1671.66 226.1C1666.06 227.1 1660.51 227.6 1655.01 227.6C1644.51 227.6 1634.81 225.85 1625.91 222.35C1617.11 218.75 1609.46 213.55 1602.96 206.75C1596.56 199.85 1591.56 191.35 1587.96 181.25C1584.36 171.15 1582.56 159.55 1582.56 146.45C1582.56 135.85 1584.16 125.95 1587.36 116.75C1590.66 107.55 1595.36 99.6 1601.46 92.9C1607.56 86.1 1615.01 80.8 1623.81 77C1632.61 73.1 1642.51 71.15 1653.51 71.15ZM1654.11 90.8C1641.21 90.8 1631.06 94.55 1623.66 102.05C1616.26 109.45 1611.66 119.75 1609.86 132.95H1692.51C1692.51 126.75 1691.66 121.1 1689.96 116C1688.26 110.8 1685.76 106.35 1682.46 102.65C1679.16 98.85 1675.11 95.95 1670.31 93.95C1665.61 91.85 1660.21 90.8 1654.11 90.8Z" fill="#46D5C7"/>
</svg>
