<svg width="16" height="16" viewBox="0 0 16 16" fill="none" xmlns="http://www.w3.org/2000/svg">
<rect width="16" height="16" fill="url(#paint0_linear_24_2)"/>
<rect x="15" width="1" height="16" fill="#FFAEC6"/>
<rect x="1" y="1" width="1" height="14" fill="#FF2D6B"/>
<rect x="16" y="15" width="1" height="16" transform="rotate(90 16 15)" fill="#FFAEC6"/>
<rect x="16" width="1" height="16" transform="rotate(90 16 0)" fill="#FF80A5"/>
<rect width="1" height="15" fill="#FF80A5"/>
<rect x="1.5" y="1.5" width="3.5" height="9.5" fill="url(#paint1_linear_24_2)" stroke="#FF2D6B"/>
<rect x="5.5" y="1.5" width="3.5" height="7" fill="url(#paint2_linear_24_2)" stroke="#FF2D6B"/>
<rect x="13.5" y="1.5" width="1" height="2" fill="url(#paint3_linear_24_2)" stroke="#FF2D6B"/>
<rect x="9.5" y="1.5" width="3.5" height="4.5" fill="url(#paint4_linear_24_2)" stroke="#FF2D6B"/>
<defs>
<linearGradient id="paint0_linear_24_2" x1="15.25" y1="7.81147e-07" x2="0.5" y2="16" gradientUnits="userSpaceOnUse">
<stop offset="0.455" stop-color="#FF2D6B"/>
<stop offset="1" stop-color="white"/>
</linearGradient>
<linearGradient id="paint1_linear_24_2" x1="1" y1="6.25" x2="5.5" y2="6.25" gradientUnits="userSpaceOnUse">
<stop stop-color="#FF5F8E"/>
<stop offset="1" stop-color="white"/>
<stop offset="1.0001" stop-color="white"/>
</linearGradient>
<linearGradient id="paint2_linear_24_2" x1="5" y1="5" x2="9.5" y2="5" gradientUnits="userSpaceOnUse">
<stop stop-color="#FF346F"/>
<stop offset="1" stop-color="white"/>
</linearGradient>
<linearGradient id="paint3_linear_24_2" x1="13" y1="2.5" x2="15" y2="2.5" gradientUnits="userSpaceOnUse">
<stop stop-color="#FF004A"/>
<stop offset="1" stop-color="white"/>
</linearGradient>
<linearGradient id="paint4_linear_24_2" x1="9" y1="3.75" x2="13.5" y2="3.75" gradientUnits="userSpaceOnUse">
<stop stop-color="#FF2464"/>
<stop offset="1" stop-color="white"/>
</linearGradient>
</defs>
</svg>
