<svg width="32" height="32" viewBox="0 0 32 32" fill="none" xmlns="http://www.w3.org/2000/svg">
<rect width="32" height="32" fill="url(#paint0_linear_22_360)"/>
<rect x="30" width="2" height="32" fill="#FFAEC6"/>
<rect x="2" y="2" width="2" height="28" fill="#FF2D6B"/>
<rect x="32" y="30" width="2" height="32" transform="rotate(90 32 30)" fill="#FFAEC6"/>
<rect x="32" width="2" height="32" transform="rotate(90 32 0)" fill="#FF80A5"/>
<rect width="2" height="30" fill="#FF80A5"/>
<rect x="2.5" y="2.5" width="8" height="20" fill="url(#paint1_linear_22_360)" stroke="#FF2D6B"/>
<rect x="10.5" y="2.5" width="8" height="15" fill="url(#paint2_linear_22_360)" stroke="#FF2D6B"/>
<rect x="26.5" y="2.5" width="3" height="5" fill="url(#paint3_linear_22_360)" stroke="#FF2D6B"/>
<rect x="18.5" y="2.5" width="8" height="10" fill="url(#paint4_linear_22_360)" stroke="#FF2D6B"/>
<defs>
<linearGradient id="paint0_linear_22_360" x1="30.5" y1="1.56229e-06" x2="1" y2="32" gradientUnits="userSpaceOnUse">
<stop offset="0.455" stop-color="#FF2D6B"/>
<stop offset="1" stop-color="white"/>
</linearGradient>
<linearGradient id="paint1_linear_22_360" x1="2" y1="12.5" x2="11" y2="12.5" gradientUnits="userSpaceOnUse">
<stop stop-color="#FF5F8E"/>
<stop offset="1" stop-color="white"/>
<stop offset="1.0001" stop-color="white"/>
</linearGradient>
<linearGradient id="paint2_linear_22_360" x1="10" y1="10" x2="19" y2="10" gradientUnits="userSpaceOnUse">
<stop stop-color="#FF346F"/>
<stop offset="1" stop-color="white"/>
</linearGradient>
<linearGradient id="paint3_linear_22_360" x1="26" y1="5" x2="30" y2="5" gradientUnits="userSpaceOnUse">
<stop stop-color="#FF004A"/>
<stop offset="1" stop-color="white"/>
</linearGradient>
<linearGradient id="paint4_linear_22_360" x1="18" y1="7.5" x2="27" y2="7.5" gradientUnits="userSpaceOnUse">
<stop stop-color="#FF2464"/>
<stop offset="1" stop-color="white"/>
</linearGradient>
</defs>
</svg>
