<?xml version="1.0" encoding="UTF-8" standalone="no"?>
<!-- Created with Inkscape (http://www.inkscape.org/) -->

<svg
   width="16"
   height="16"
   viewBox="0 0 4.2333332 4.2333334"
   version="1.1"
   id="svg8"
   inkscape:version="1.1 (c68e22c387, 2021-05-23)"
   sodipodi:docname="favicon_16x16.svg"
   inkscape:export-filename="C:\Users\Sorachi\Desktop\DeFiGeek Community JAPAN\favicon_16x16.png"
   inkscape:export-xdpi="96"
   inkscape:export-ydpi="96"
   xmlns:inkscape="http://www.inkscape.org/namespaces/inkscape"
   xmlns:sodipodi="http://sodipodi.sourceforge.net/DTD/sodipodi-0.dtd"
   xmlns="http://www.w3.org/2000/svg"
   xmlns:svg="http://www.w3.org/2000/svg"
   xmlns:rdf="http://www.w3.org/1999/02/22-rdf-syntax-ns#"
   xmlns:cc="http://creativecommons.org/ns#"
   xmlns:dc="http://purl.org/dc/elements/1.1/">
  <defs
     id="defs2" />
  <sodipodi:namedview
     id="base"
     pagecolor="#ffffff"
     bordercolor="#666666"
     borderopacity="1.0"
     inkscape:pageopacity="0.0"
     inkscape:pageshadow="2"
     inkscape:zoom="22.627417"
     inkscape:cx="4.5078057"
     inkscape:cy="3.4692426"
     inkscape:document-units="px"
     inkscape:current-layer="g4333"
     showgrid="false"
     units="px"
     inkscape:window-width="1920"
     inkscape:window-height="1017"
     inkscape:window-x="-8"
     inkscape:window-y="-8"
     inkscape:window-maximized="1"
     inkscape:pagecheckerboard="0"
     showguides="true"
     inkscape:guide-bbox="true">
    <sodipodi:guide
       position="198.43677,1583.2627"
       orientation="1,0"
       id="guide3625" />
    <sodipodi:guide
       position="-5656.4388,198.28038"
       orientation="0,-1"
       id="guide3627" />
  </sodipodi:namedview>
  <metadata
     id="metadata5">
    <rdf:RDF>
      <cc:Work
         rdf:about="">
        <dc:format>image/svg+xml</dc:format>
        <dc:type
           rdf:resource="http://purl.org/dc/dcmitype/StillImage" />
      </cc:Work>
    </rdf:RDF>
  </metadata>
  <g
     inkscape:groupmode="layer"
     id="layer2"
     inkscape:label="基本形" />
  <g
     inkscape:label="レイヤー 1"
     inkscape:groupmode="layer"
     id="layer1"
     transform="translate(0,99.875017)" />
  <g
     inkscape:groupmode="layer"
     id="layer3"
     inkscape:label="レイヤー 2">
    <g
       id="g4333"
       transform="matrix(0.02745466,5.3154446e-6,5.3147912e-6,0.02744467,15.123306,-9.5107049)"
       style="stroke-width:36.4303">
      <g
         id="g936"
         transform="translate(0.15049223,0.45187439)">
        <path
           style="color:#000000;fill:#c41a41;stroke-width:36.4303;-inkscape-stroke:none"
           d="m -445.02938,348.19699 -31.97687,73.89532 6.26006,2.7095 31.97856,-73.89532 z"
           id="path1770-7-3" />
        <path
           style="color:#000000;fill:#c41a41;stroke-width:36.4303;-inkscape-stroke:none"
           d="m -477.00625,422.09231 -31.97856,73.89364 6.26175,2.70951 31.97687,-73.89365 z"
           id="path1770-9-9-5" />
        <g
           id="path38101-1-0-2"
           style="stroke-width:36.4303">
          <path
             style="color:#000000;fill:#c41a41;stroke-width:9.63887;-inkscape-stroke:none"
             d="m -444.18654,354.84032 a 74.762563,74.794607 89.215543 0 0 -89.85111,24.20821 28.035959,28.047976 89.215926 0 1 24.955,-1.35643 28.035959,28.047976 89.215926 0 1 14.60731,36.86228 28.035959,28.047976 89.215926 0 1 -36.87824,14.60146 28.035959,28.047976 89.215926 0 1 -16.09938,-19.1071 74.762563,74.794607 89.215543 0 0 43.8773,82.02827 74.762563,74.794607 89.215543 0 0 89.48281,-23.99354 28.03596,28.047978 89.215926 0 1 -24.58673,1.14179 28.03596,28.047978 89.215926 0 1 -14.60734,-36.86227 28.03596,28.047978 89.215926 0 1 36.87825,-14.60147 28.03596,28.047978 89.215926 0 1 16.10029,19.04066 74.762563,74.794607 89.215543 0 0 -43.87816,-81.96186 z"
             id="path844" />
          <path
             style="color:#000000;fill:#c41a41;stroke-width:36.4303;-inkscape-stroke:none"
             d="m -475.01562,348.62305 c -22.79197,0.35746 -44.85964,11.12387 -59.08594,30.3789 l 0.10351,0.11524 c 7.62447,-4.324 16.83627,-4.82366 24.88477,-1.35157 14.17793,6.13011 20.69734,22.58592 14.56445,36.75782 -6.13289,14.17188 -22.59551,20.6887 -36.77344,14.55859 -8.04277,-3.48529 -13.98431,-10.53785 -16.05273,-19.05273 l -0.15625,0.006 c -6.24988,34.252 11.9565,68.28863 43.92383,82.11523 31.82233,13.66721 68.87088,3.73275 89.57812,-24.01953 l -0.10156,-0.11719 c -7.5605,4.13496 -16.60618,4.55513 -24.51758,1.13867 -14.17794,-6.13009 -20.69928,-22.58591 -14.5664,-36.75781 6.13289,-14.17189 22.59746,-20.69066 36.77539,-14.56055 8.02731,3.4715 13.96758,10.49625 16.05468,18.98633 l 0.1543,-0.004 c 6.21607,-34.22991 -11.98412,-68.22842 -43.92383,-82.04883 -9.99091,-4.31823 -20.50134,-6.30701 -30.86132,-6.14453 z m 0.002,0.16015 c 10.33796,-0.16206 20.82496,1.82168 30.79492,6.13086 31.77662,13.74984 49.91289,47.51099 43.875,81.56446 -2.16806,-8.39487 -8.06128,-15.34153 -16.0332,-18.78907 -14.25673,-6.16418 -30.81542,0.39186 -36.98242,14.64258 -6.167,14.25073 0.3917,30.80264 14.64843,36.9668 7.85758,3.39322 16.81609,2.98799 24.36133,-1.02735 -20.69877,27.50653 -57.53398,37.33049 -89.19531,23.73243 -31.80419,-13.75605 -49.94451,-47.55716 -43.87305,-81.63282 2.14936,8.42098 8.04494,15.39575 16.0332,18.85743 14.25672,6.16418 30.81542,-0.39187 36.98243,-14.64258 6.167,-14.25073 -0.39171,-30.80263 -14.64844,-36.9668 -7.99411,-3.44863 -17.11704,-2.96657 -24.72852,1.23438 14.20238,-19.05671 36.12163,-29.71534 58.76563,-30.07032 z"
             id="path846" />
        </g>
      </g>
    </g>
  </g>
</svg>
