<svg width="285" height="60" viewBox="0 0 285 60" fill="none" xmlns="http://www.w3.org/2000/svg">
<rect x="60.4321" y="16.3575" width="5.45251" height="5.45251" fill="#FF2D6B"/>
<rect x="81.3333" y="43.6201" width="5.45251" height="5.45251" fill="#FF2D6B"/>
<rect x="81.3333" y="38.1676" width="5.45251" height="5.45251" fill="#FF2D6B"/>
<rect x="81.3333" y="32.7151" width="5.45251" height="5.45251" fill="#FF2D6B"/>
<rect x="81.3333" y="27.2626" width="5.45251" height="5.45251" fill="#FF2D6B"/>
<rect x="81.3333" y="21.8101" width="5.45251" height="5.45251" fill="#FF2D6B"/>
<rect x="76.7896" y="16.3575" width="5.45251" height="5.45251" fill="#FF2D6B"/>
<rect x="71.337" y="16.3575" width="5.45251" height="5.45251" fill="#FF2D6B"/>
<rect x="65.8845" y="21.8101" width="5.45251" height="5.45251" fill="#FF2D6B"/>
<rect x="60.4321" y="43.6201" width="5.45251" height="5.45251" fill="#FF2D6B"/>
<rect x="60.4321" y="38.1676" width="5.45251" height="5.45251" fill="#FF2D6B"/>
<rect x="60.4321" y="32.7151" width="5.45251" height="5.45251" fill="#FF2D6B"/>
<rect x="60.4321" y="27.2626" width="5.45251" height="5.45251" fill="#FF2D6B"/>
<rect x="60.4321" y="21.8101" width="5.45251" height="5.45251" fill="#FF2D6B"/>
<rect x="127.68" y="16.3575" width="5.45251" height="5.45251" fill="#FF2D6B"/>
<rect x="127.68" y="43.6201" width="5.45251" height="5.45251" fill="#FF2D6B"/>
<rect x="144.037" y="38.1676" width="5.45251" height="5.45251" fill="#FF2D6B"/>
<rect x="144.037" y="32.7151" width="5.45251" height="5.45251" fill="#FF2D6B"/>
<rect x="144.037" y="27.2626" width="5.45251" height="5.45251" fill="#FF2D6B"/>
<rect x="144.037" y="21.8101" width="5.45251" height="5.45251" fill="#FF2D6B"/>
<rect x="144.037" y="43.6201" width="5.45251" height="5.45251" fill="#FF2D6B"/>
<rect x="138.585" y="43.6201" width="5.45251" height="5.45251" fill="#FF2D6B"/>
<rect x="133.132" y="43.6201" width="5.45251" height="5.45251" fill="#FF2D6B"/>
<rect x="123.136" y="38.1676" width="5.45251" height="5.45251" fill="#FF2D6B"/>
<rect x="123.136" y="32.7151" width="5.45251" height="5.45251" fill="#FF2D6B"/>
<rect x="123.136" y="27.2626" width="5.45251" height="5.45251" fill="#FF2D6B"/>
<rect x="123.136" y="21.8101" width="5.45251" height="5.45251" fill="#FF2D6B"/>
<rect x="144.037" y="16.3575" width="5.45251" height="5.45251" fill="#FF2D6B"/>
<rect x="144.037" width="5.45251" height="5.45251" fill="#FF2D6B"/>
<rect x="144.037" y="5.45251" width="5.45251" height="5.45251" fill="#FF2D6B"/>
<rect x="144.037" y="10.905" width="5.45251" height="5.45251" fill="#FF2D6B"/>
<rect x="138.585" y="16.3575" width="5.45251" height="5.45251" fill="#FF2D6B"/>
<rect x="133.132" y="16.3575" width="5.45251" height="5.45251" fill="#FF2D6B"/>
<rect x="154.034" y="16.3575" width="5.45251" height="5.45251" fill="#FF2D6B"/>
<rect x="168.574" y="43.6201" width="5.45251" height="5.45251" fill="#FF2D6B"/>
<rect x="168.574" y="38.1676" width="5.45251" height="5.45251" fill="#FF2D6B"/>
<rect x="163.575" y="32.7151" width="5.45251" height="5.45251" fill="#FF2D6B"/>
<rect x="163.575" y="27.2626" width="5.45251" height="5.45251" fill="#FF2D6B"/>
<rect x="163.575" y="21.8101" width="5.45251" height="5.45251" fill="#FF2D6B"/>
<rect x="163.575" y="16.3575" width="5.45251" height="5.45251" fill="#FF2D6B"/>
<rect x="174.026" y="32.7151" width="5.45251" height="5.45251" fill="#FF2D6B"/>
<rect x="174.026" y="27.2626" width="5.45251" height="5.45251" fill="#FF2D6B"/>
<rect x="174.026" y="21.8101" width="5.45251" height="5.45251" fill="#FF2D6B"/>
<rect x="174.026" y="16.3575" width="5.45251" height="5.45251" fill="#FF2D6B"/>
<rect x="158.577" y="43.6201" width="5.45251" height="5.45251" fill="#FF2D6B"/>
<rect x="158.577" y="38.1676" width="5.45251" height="5.45251" fill="#FF2D6B"/>
<rect x="154.034" y="32.7151" width="5.45251" height="5.45251" fill="#FF2D6B"/>
<rect x="154.034" y="27.2626" width="5.45251" height="5.45251" fill="#FF2D6B"/>
<rect x="154.034" y="21.8101" width="5.45251" height="5.45251" fill="#FF2D6B"/>
<rect x="223.099" y="16.3575" width="5.45251" height="5.45251" fill="#FF2D6B"/>
<rect x="234.004" y="43.6201" width="5.45251" height="5.45251" fill="#FF2D6B"/>
<rect x="228.551" y="43.6201" width="5.45251" height="5.45251" fill="#FF2D6B"/>
<rect x="223.099" y="43.6201" width="5.45251" height="5.45251" fill="#FF2D6B"/>
<rect x="217.646" y="38.1676" width="5.45251" height="5.45251" fill="#FF2D6B"/>
<rect x="238.547" y="38.1676" width="5.45251" height="5.45251" fill="#FF2D6B"/>
<rect x="238.547" y="32.7151" width="5.45251" height="5.45251" fill="#FF2D6B"/>
<rect x="238.547" y="27.2626" width="5.45251" height="5.45251" fill="#FF2D6B"/>
<rect x="238.547" y="21.8101" width="5.45251" height="5.45251" fill="#FF2D6B"/>
<rect x="234.004" y="16.3575" width="5.45251" height="5.45251" fill="#FF2D6B"/>
<rect x="228.551" y="16.3575" width="5.45251" height="5.45251" fill="#FF2D6B"/>
<rect x="217.646" y="21.8101" width="5.45251" height="5.45251" fill="#FF2D6B"/>
<rect x="96.7822" y="16.3575" width="5.45251" height="5.45251" fill="#FF2D6B"/>
<rect x="107.687" y="43.6201" width="5.45251" height="5.45251" fill="#FF2D6B"/>
<rect x="102.235" y="43.6201" width="5.45251" height="5.45251" fill="#FF2D6B"/>
<rect x="96.7822" y="43.6201" width="5.45251" height="5.45251" fill="#FF2D6B"/>
<rect x="113.14" y="38.1676" width="5.45251" height="5.45251" fill="#FF2D6B"/>
<rect x="113.14" y="32.7151" width="5.45251" height="5.45251" fill="#FF2D6B"/>
<rect x="113.14" y="27.2626" width="5.45251" height="5.45251" fill="#FF2D6B"/>
<rect x="113.14" y="21.8101" width="5.45251" height="5.45251" fill="#FF2D6B"/>
<rect x="91.3296" y="38.1676" width="5.45251" height="5.45251" fill="#FF2D6B"/>
<rect x="91.3296" y="32.7151" width="5.45251" height="5.45251" fill="#FF2D6B"/>
<rect x="91.3296" y="27.2626" width="5.45251" height="5.45251" fill="#FF2D6B"/>
<rect x="91.3296" y="21.8101" width="5.45251" height="5.45251" fill="#FF2D6B"/>
<rect x="107.687" y="16.3575" width="5.45251" height="5.45251" fill="#FF2D6B"/>
<rect x="102.235" y="16.3575" width="5.45251" height="5.45251" fill="#FF2D6B"/>
<rect x="189.475" y="16.3575" width="5.45251" height="5.45251" fill="#FF2D6B"/>
<rect x="200.38" y="43.6201" width="5.45251" height="5.45251" fill="#FF2D6B"/>
<rect x="194.927" y="43.6201" width="5.45251" height="5.45251" fill="#FF2D6B"/>
<rect x="189.475" y="43.6201" width="5.45251" height="5.45251" fill="#FF2D6B"/>
<rect x="205.832" y="38.1676" width="5.45251" height="5.45251" fill="#FF2D6B"/>
<rect x="205.832" y="32.7151" width="5.45251" height="5.45251" fill="#FF2D6B"/>
<rect x="205.832" y="27.2626" width="5.45251" height="5.45251" fill="#FF2D6B"/>
<rect x="205.832" y="21.8101" width="5.45251" height="5.45251" fill="#FF2D6B"/>
<rect x="184.022" y="38.1676" width="5.45251" height="5.45251" fill="#FF2D6B"/>
<rect x="184.022" y="32.7151" width="5.45251" height="5.45251" fill="#FF2D6B"/>
<rect x="184.022" y="27.2626" width="5.45251" height="5.45251" fill="#FF2D6B"/>
<rect x="184.022" y="21.8101" width="5.45251" height="5.45251" fill="#FF2D6B"/>
<rect x="200.38" y="16.3575" width="5.45251" height="5.45251" fill="#FF2D6B"/>
<rect x="194.927" y="16.3575" width="5.45251" height="5.45251" fill="#FF2D6B"/>
<rect x="29.0801" y="16.3575" width="5.45251" height="5.45251" fill="#FF2D6B"/>
<rect x="50.4358" y="43.6201" width="5.45251" height="5.45251" fill="#FF2D6B"/>
<rect x="50.4358" y="16.3575" width="5.45251" height="5.45251" fill="#FF2D6B"/>
<rect x="50.4358" y="21.8101" width="5.45251" height="5.45251" fill="#FF2D6B"/>
<rect x="50.4358" y="27.2626" width="5.45251" height="5.45251" fill="#FF2D6B"/>
<rect x="50.4358" y="32.7151" width="5.45251" height="5.45251" fill="#FF2D6B"/>
<rect x="50.4358" y="38.1676" width="5.45251" height="5.45251" fill="#FF2D6B"/>
<rect x="44.9832" y="38.1676" width="5.45251" height="5.45251" fill="#FF2D6B"/>
<rect x="39.5307" y="43.6201" width="5.45251" height="5.45251" fill="#FF2D6B"/>
<rect x="34.0782" y="43.6201" width="5.45251" height="5.45251" fill="#FF2D6B"/>
<rect x="29.0801" y="38.1676" width="5.45251" height="5.45251" fill="#FF2D6B"/>
<rect x="29.0801" y="32.7151" width="5.45251" height="5.45251" fill="#FF2D6B"/>
<rect x="29.0801" y="27.2626" width="5.45251" height="5.45251" fill="#FF2D6B"/>
<rect x="29.0801" y="21.8101" width="5.45251" height="5.45251" fill="#FF2D6B"/>
<rect x="20.447" y="20.9013" width="5.45251" height="5.45251" fill="#FF2D6B"/>
<rect y="54.5251" width="5.45251" height="5.45251" fill="#FF2D6B"/>
<rect y="49.0726" width="5.45251" height="5.45251" fill="#FF2D6B"/>
<rect y="43.6201" width="5.45251" height="5.45251" fill="#FF2D6B"/>
<rect x="16.3575" y="36.3501" width="5.45251" height="5.45251" fill="#FF2D6B"/>
<rect x="10.905" y="36.3501" width="5.45251" height="5.45251" fill="#FF2D6B"/>
<rect x="5.45251" y="36.3501" width="5.45251" height="5.45251" fill="#FF2D6B"/>
<rect y="38.1676" width="5.45251" height="5.45251" fill="#FF2D6B"/>
<rect y="32.7151" width="5.45251" height="5.45251" fill="#FF2D6B"/>
<rect y="27.2626" width="5.45251" height="5.45251" fill="#FF2D6B"/>
<rect y="21.8101" width="5.45251" height="5.45251" fill="#FF2D6B"/>
<rect x="16.3575" y="16.3575" width="5.45251" height="5.45251" fill="#FF2D6B"/>
<rect x="10.905" y="16.3575" width="5.45251" height="5.45251" fill="#FF2D6B"/>
<rect x="5.45251" y="16.3575" width="5.45251" height="5.45251" fill="#FF2D6B"/>
<rect y="16.3575" width="5.45251" height="5.45251" fill="#FF2D6B"/>
<rect x="20.447" y="31.8063" width="5.45251" height="5.45251" fill="#FF2D6B"/>
<rect x="20.447" y="26.3538" width="5.45251" height="5.45251" fill="#FF2D6B"/>
<rect x="84.8" y="31" width="2" height="2" fill="#FF80A5"/>
<rect x="84.8" y="37" width="2" height="2" fill="#FF80A5"/>
<rect x="84.8" y="35" width="2" height="2" fill="#FF80A5"/>
<rect x="84.8" y="33" width="2" height="2" fill="#FF80A5"/>
<rect x="83" y="38" width="2" height="2" fill="#FF80A5"/>
<rect x="83" y="34" width="2" height="2" fill="#FF80A5"/>
<rect x="83" y="29" width="2" height="2" fill="#FF80A5"/>
<rect x="81.3" y="21.8" width="2" height="2" fill="#FF80A5"/>
<rect x="62" y="45" width="2" height="2" fill="#FF80A5"/>
<rect x="63.9" y="43" width="2" height="2" fill="#FF80A5"/>
<rect x="62" y="41" width="2" height="2" fill="#FF80A5"/>
<rect x="77" y="18" width="2" height="2" fill="#FF80A5"/>
<rect x="73" y="19.8" width="2" height="2" fill="#FF80A5"/>
<rect x="68" y="25.2" width="2" height="2" fill="#FF80A5"/>
<rect x="62" y="24" width="2" height="2" fill="#FF80A5"/>
<rect x="63.9" y="27" width="2" height="2" fill="#FF80A5"/>
<rect x="83.3" y="45" width="2" height="2" transform="rotate(90 83.3 45)" fill="#FF80A5"/>
<rect x="85.3" y="45" width="2" height="2" transform="rotate(90 85.3 45)" fill="#FF80A5"/>
<rect x="63.9" y="16.3" width="2" height="2" transform="rotate(90 63.9 16.3)" fill="#FF80A5"/>
<rect x="65.9" y="16.3" width="2" height="2" transform="rotate(90 65.9 16.3)" fill="#FF80A5"/>
<rect x="52.5" y="18.338" width="2" height="2" fill="#FF80A5"/>
<rect x="50.5" y="18.338" width="2" height="2" fill="#FF80A5"/>
<rect x="50.5" y="16.338" width="2" height="2" fill="#FF80A5"/>
<rect x="47" y="39.838" width="2" height="2" fill="#FF80A5"/>
<rect x="37" y="45.638" width="2" height="2" fill="#FF80A5"/>
<rect x="39" y="45.638" width="2" height="2" fill="#FF80A5"/>
<rect x="39" y="43.638" width="2" height="2" fill="#FF80A5"/>
<rect x="30" y="26.838" width="2" height="2" fill="#FF80A5"/>
<rect x="52" y="30.838" width="2" height="2" fill="#FF80A5"/>
<rect x="52" y="36.838" width="2" height="2" fill="#FF80A5"/>
<rect x="52" y="34.838" width="2" height="2" fill="#FF80A5"/>
<rect x="52" y="32.838" width="2" height="2" fill="#FF80A5"/>
<rect x="53.9" y="25.838" width="2" height="2" fill="#FF80A5"/>
<rect x="53.9" y="31.838" width="2" height="2" fill="#FF80A5"/>
<rect x="53.9" y="29.838" width="2" height="2" fill="#FF80A5"/>
<rect x="53.9" y="27.838" width="2" height="2" fill="#FF80A5"/>
<rect x="52" y="44.838" width="2" height="2" fill="#FF80A5"/>
<rect x="53.9" y="46.838" width="2" height="2" fill="#FF80A5"/>
<rect x="52" y="40.838" width="2" height="2" fill="#FF80A5"/>
<rect x="29.1" y="21.838" width="2" height="2" fill="#FF80A5"/>
<rect x="31.1" y="19.838" width="2" height="2" fill="#FF80A5"/>
<rect x="31.1" y="21.838" width="2" height="2" fill="#FF80A5"/>
<rect x="237.4" y="47.1" width="2" height="2" fill="#FF80A5"/>
<rect x="235.4" y="47.1" width="2" height="2" fill="#FF80A5"/>
<rect x="235.4" y="45.1" width="2" height="2" fill="#FF80A5"/>
<rect x="242" y="27" width="2" height="2" transform="rotate(180 242 27)" fill="#FF80A5"/>
<rect x="244" y="27" width="2" height="2" transform="rotate(180 244 27)" fill="#FF80A5"/>
<rect x="244" y="29" width="2" height="2" transform="rotate(180 244 29)" fill="#FF80A5"/>
<rect x="234" y="19.8" width="2" height="2" transform="rotate(-180 234 19.8)" fill="#FF80A5"/>
<rect x="236" y="19.8" width="2" height="2" transform="rotate(-180 236 19.8)" fill="#FF80A5"/>
<rect x="236" y="21.8" width="2" height="2" transform="rotate(-180 236 21.8)" fill="#FF80A5"/>
<rect x="221.1" y="23.8" width="2" height="2" transform="rotate(90 221.1 23.8)" fill="#FF80A5"/>
<rect x="221.1" y="21.8" width="2" height="2" transform="rotate(90 221.1 21.8)" fill="#FF80A5"/>
<rect x="223.1" y="21.8" width="2" height="2" transform="rotate(90 223.1 21.8)" fill="#FF80A5"/>
<rect x="223.1" y="47.1" width="2" height="2" fill="#FF80A5"/>
<rect x="242" y="29" width="2" height="2" fill="#FF80A5"/>
<rect x="237" y="16.3" width="2" height="2" fill="#FF80A5"/>
<rect x="217.6" y="38.1" width="2" height="2" fill="#FF80A5"/>
<rect x="221.1" y="25.3" width="2" height="2" fill="#FF80A5"/>
<rect x="242" y="41.6" width="2" height="2" transform="rotate(90 242 41.6)" fill="#FF80A5"/>
<rect x="244" y="41.6" width="2" height="2" transform="rotate(90 244 41.6)" fill="#FF80A5"/>
<rect x="228" y="43.6" width="2" height="2" transform="rotate(90 228 43.6)" fill="#FF80A5"/>
<rect x="230" y="43.6" width="2" height="2" transform="rotate(90 230 43.6)" fill="#FF80A5"/>
<rect x="219.6" y="25.3" width="2" height="2" transform="rotate(90 219.6 25.3)" fill="#FF80A5"/>
<rect x="221.6" y="25.3" width="2" height="2" transform="rotate(90 221.6 25.3)" fill="#FF80A5"/>
<rect x="165.5" y="21" width="2" height="2" transform="rotate(90 165.5 21)" fill="#FF80A5"/>
<rect x="165.5" y="19" width="2" height="2" transform="rotate(90 165.5 19)" fill="#FF80A5"/>
<rect x="167.5" y="19" width="2" height="2" transform="rotate(90 167.5 19)" fill="#FF80A5"/>
<rect x="177.5" y="22" width="2" height="2" transform="rotate(90 177.5 22)" fill="#FF80A5"/>
<rect x="177.5" y="20" width="2" height="2" transform="rotate(90 177.5 20)" fill="#FF80A5"/>
<rect x="179.5" y="20" width="2" height="2" transform="rotate(90 179.5 20)" fill="#FF80A5"/>
<rect x="160.5" y="46" width="2" height="2" transform="rotate(-90 160.5 46)" fill="#FF80A5"/>
<rect x="160.5" y="48" width="2" height="2" transform="rotate(-90 160.5 48)" fill="#FF80A5"/>
<rect x="158.5" y="48" width="2" height="2" transform="rotate(-90 158.5 48)" fill="#FF80A5"/>
<rect x="157.5" y="17" width="2" height="2" fill="#FF80A5"/>
<rect x="157.5" y="23" width="2" height="2" fill="#FF80A5"/>
<rect x="157.5" y="21" width="2" height="2" fill="#FF80A5"/>
<rect x="157.5" y="19" width="2" height="2" fill="#FF80A5"/>
<rect x="172" y="40" width="2" height="2" fill="#FF80A5"/>
<rect x="170" y="38.1" width="2" height="2" fill="#FF80A5"/>
<rect x="175.5" y="26" width="2" height="2" fill="#FF80A5"/>
<rect x="175.5" y="24" width="2" height="2" fill="#FF80A5"/>
<rect x="166" y="32" width="2" height="2" fill="#FF80A5"/>
<rect x="166" y="30" width="2" height="2" fill="#FF80A5"/>
<rect x="157.5" y="36.2" width="2" height="2" transform="rotate(90 157.5 36.2)" fill="#FF80A5"/>
<rect x="159.5" y="36.2" width="2" height="2" transform="rotate(90 159.5 36.2)" fill="#FF80A5"/>
<rect x="2" y="24" width="2" height="2" transform="rotate(90 2 24)" fill="#FF80A5"/>
<rect x="2" y="22" width="2" height="2" transform="rotate(90 2 22)" fill="#FF80A5"/>
<rect x="4" y="22" width="2" height="2" transform="rotate(90 4 22)" fill="#FF80A5"/>
<rect x="12" y="18.3" width="2" height="2" fill="#FF80A5"/>
<rect x="10" y="18.3" width="2" height="2" fill="#FF80A5"/>
<rect x="10" y="16.3" width="2" height="2" fill="#FF80A5"/>
<rect x="2" y="55" width="2" height="2" fill="#FF80A5"/>
<rect x="2" y="51" width="2" height="2" fill="#FF80A5"/>
<rect y="46" width="2" height="2" fill="#FF80A5"/>
<rect y="42" width="2" height="2" fill="#FF80A5"/>
<rect x="3.40002" y="42" width="2" height="2" fill="#FF80A5"/>
<rect x="19.9" y="39.9" width="2" height="2" fill="#FF80A5"/>
<rect x="16" y="37" width="2" height="2" fill="#FF80A5"/>
<rect x="13" y="38" width="2" height="2" fill="#FF80A5"/>
<rect x="8" y="37" width="2" height="2" fill="#FF80A5"/>
<rect x="2" y="38" width="2" height="2" fill="#FF80A5"/>
<rect x="20.9" y="30" width="2" height="2" fill="#FF80A5"/>
<rect x="23.9" y="30" width="2" height="2" fill="#FF80A5"/>
<rect x="21.9" y="26" width="2" height="2" fill="#FF80A5"/>
<rect x="23.9" y="24" width="2" height="2" fill="#FF80A5"/>
<rect y="27" width="2" height="2" fill="#FF80A5"/>
<rect x="14" y="18.3" width="2" height="2" fill="#FF80A5"/>
<rect x="5" y="16.3" width="2" height="2" transform="rotate(90 5 16.3)" fill="#FF80A5"/>
<rect x="7" y="16.3" width="2" height="2" transform="rotate(90 7 16.3)" fill="#FF80A5"/>
<rect x="147.5" y="47.1" width="2" height="2" fill="#FF80A5"/>
<rect x="145.5" y="47.1" width="2" height="2" fill="#FF80A5"/>
<rect x="145.5" y="45.1" width="2" height="2" fill="#FF80A5"/>
<rect x="131" y="45.6" width="2" height="2" transform="rotate(90 131 45.6)" fill="#FF80A5"/>
<rect x="131" y="43.6" width="2" height="2" transform="rotate(90 131 43.6)" fill="#FF80A5"/>
<rect x="133" y="43.6" width="2" height="2" transform="rotate(90 133 43.6)" fill="#FF80A5"/>
<rect x="125.1" y="35" width="2" height="2" transform="rotate(-90 125.1 35)" fill="#FF80A5"/>
<rect x="125.1" y="37" width="2" height="2" transform="rotate(-90 125.1 37)" fill="#FF80A5"/>
<rect x="123.1" y="37" width="2" height="2" transform="rotate(-90 123.1 37)" fill="#FF80A5"/>
<rect x="147.5" y="45.1" width="2" height="2" fill="#FF80A5"/>
<rect x="133" y="43.6" width="2" height="2" fill="#FF80A5"/>
<rect x="125.1" y="31" width="2" height="2" fill="#FF80A5"/>
<rect x="147.5" y="9" width="2" height="2" fill="#FF80A5"/>
<rect x="147.5" y="7" width="2" height="2" fill="#FF80A5"/>
<rect x="146" y="32" width="2" height="2" transform="rotate(90 146 32)" fill="#FF80A5"/>
<rect x="148" y="32" width="2" height="2" transform="rotate(90 148 32)" fill="#FF80A5"/>
<rect x="139" y="18" width="2" height="2" transform="rotate(90 139 18)" fill="#FF80A5"/>
<rect x="141" y="18" width="2" height="2" transform="rotate(90 141 18)" fill="#FF80A5"/>
<rect x="147.5" y="21" width="2" height="2" fill="#FF80A5"/>
<rect x="147.5" y="19" width="2" height="2" fill="#FF80A5"/>
<rect x="147.5" y="17" width="2" height="2" fill="#FF80A5"/>
<rect x="93.3" y="28" width="2" height="2" transform="rotate(-180 93.3 28)" fill="#FF80A5"/>
<rect x="95.3" y="28" width="2" height="2" transform="rotate(-180 95.3 28)" fill="#FF80A5"/>
<rect x="95.3" y="30" width="2" height="2" transform="rotate(-180 95.3 30)" fill="#FF80A5"/>
<rect x="116.6" y="26" width="2" height="2" fill="#FF80A5"/>
<rect x="116.6" y="32" width="2" height="2" fill="#FF80A5"/>
<rect x="116.6" y="30" width="2" height="2" fill="#FF80A5"/>
<rect x="116.6" y="28" width="2" height="2" fill="#FF80A5"/>
<rect x="113.1" y="29" width="2" height="2" fill="#FF80A5"/>
<rect x="105" y="18" width="2" height="2" fill="#FF80A5"/>
<rect x="98" y="18" width="2" height="2" fill="#FF80A5"/>
<rect x="111" y="17" width="2" height="2" transform="rotate(90 111 17)" fill="#FF80A5"/>
<rect x="113" y="17" width="2" height="2" transform="rotate(90 113 17)" fill="#FF80A5"/>
<rect x="94.8" y="40" width="2" height="2" transform="rotate(90 94.8 40)" fill="#FF80A5"/>
<rect x="96.8" y="40" width="2" height="2" transform="rotate(90 96.8 40)" fill="#FF80A5"/>
<rect x="114.6" y="35" width="2" height="2" fill="#FF80A5"/>
<rect x="114.6" y="33" width="2" height="2" fill="#FF80A5"/>
<rect x="114.6" y="31" width="2" height="2" fill="#FF80A5"/>
<rect x="98.8" y="44" width="2" height="2" transform="rotate(90 98.8 44)" fill="#FF80A5"/>
<rect x="100.8" y="44" width="2" height="2" transform="rotate(90 100.8 44)" fill="#FF80A5"/>
<rect x="109" y="47" width="2" height="2" transform="rotate(90 109 47)" fill="#FF80A5"/>
<rect x="111" y="47" width="2" height="2" transform="rotate(90 111 47)" fill="#FF80A5"/>
<rect x="186" y="28" width="2" height="2" transform="rotate(-180 186 28)" fill="#FF80A5"/>
<rect x="188" y="28" width="2" height="2" transform="rotate(-180 188 28)" fill="#FF80A5"/>
<rect x="188" y="30" width="2" height="2" transform="rotate(-180 188 30)" fill="#FF80A5"/>
<rect x="209.3" y="26" width="2" height="2" fill="#FF80A5"/>
<rect x="209.3" y="32" width="2" height="2" fill="#FF80A5"/>
<rect x="209.3" y="30" width="2" height="2" fill="#FF80A5"/>
<rect x="209.3" y="28" width="2" height="2" fill="#FF80A5"/>
<rect x="205.8" y="29" width="2" height="2" fill="#FF80A5"/>
<rect x="197.7" y="18" width="2" height="2" fill="#FF80A5"/>
<rect x="190.7" y="18" width="2" height="2" fill="#FF80A5"/>
<rect x="203.7" y="17" width="2" height="2" transform="rotate(90 203.7 17)" fill="#FF80A5"/>
<rect x="205.7" y="17" width="2" height="2" transform="rotate(90 205.7 17)" fill="#FF80A5"/>
<rect x="187.5" y="40" width="2" height="2" transform="rotate(90 187.5 40)" fill="#FF80A5"/>
<rect x="189.5" y="40" width="2" height="2" transform="rotate(90 189.5 40)" fill="#FF80A5"/>
<rect x="207.3" y="35" width="2" height="2" fill="#FF80A5"/>
<rect x="207.3" y="33" width="2" height="2" fill="#FF80A5"/>
<rect x="207.3" y="31" width="2" height="2" fill="#FF80A5"/>
<rect x="191.5" y="44" width="2" height="2" transform="rotate(90 191.5 44)" fill="#FF80A5"/>
<rect x="193.5" y="44" width="2" height="2" transform="rotate(90 193.5 44)" fill="#FF80A5"/>
<rect x="201.7" y="47" width="2" height="2" transform="rotate(90 201.7 47)" fill="#FF80A5"/>
<rect x="203.7" y="47" width="2" height="2" transform="rotate(90 203.7 47)" fill="#FF80A5"/>
<rect x="253" y="18" width="32" height="32" fill="url(#paint0_linear_18_4)"/>
<rect x="283" y="18" width="2" height="32" fill="#FFAEC6"/>
<rect x="255" y="20" width="2" height="28" fill="#FF2D6B"/>
<rect x="285" y="48" width="2" height="32" transform="rotate(90 285 48)" fill="#FFAEC6"/>
<rect x="285" y="18" width="2" height="32" transform="rotate(90 285 18)" fill="#FF80A5"/>
<rect x="253" y="18" width="2" height="30" fill="#FF80A5"/>
<rect x="255.5" y="20.5" width="8" height="20" fill="url(#paint1_linear_18_4)" stroke="#FF2D6B"/>
<rect x="263.5" y="20.5" width="8" height="15" fill="url(#paint2_linear_18_4)" stroke="#FF2D6B"/>
<rect x="279.5" y="20.5" width="3" height="5" fill="url(#paint3_linear_18_4)" stroke="#FF2D6B"/>
<rect x="271.5" y="20.5" width="8" height="10" fill="url(#paint4_linear_18_4)" stroke="#FF2D6B"/>
<defs>
<linearGradient id="paint0_linear_18_4" x1="283.5" y1="18" x2="254" y2="50" gradientUnits="userSpaceOnUse">
<stop offset="0.455" stop-color="#FF2D6B"/>
<stop offset="1" stop-color="white"/>
</linearGradient>
<linearGradient id="paint1_linear_18_4" x1="255" y1="30.5" x2="264" y2="30.5" gradientUnits="userSpaceOnUse">
<stop stop-color="#FF5F8E"/>
<stop offset="1" stop-color="white"/>
<stop offset="1.0001" stop-color="white"/>
</linearGradient>
<linearGradient id="paint2_linear_18_4" x1="263" y1="28" x2="272" y2="28" gradientUnits="userSpaceOnUse">
<stop stop-color="#FF346F"/>
<stop offset="1" stop-color="white"/>
</linearGradient>
<linearGradient id="paint3_linear_18_4" x1="279" y1="23" x2="283" y2="23" gradientUnits="userSpaceOnUse">
<stop stop-color="#FF004A"/>
<stop offset="1" stop-color="white"/>
</linearGradient>
<linearGradient id="paint4_linear_18_4" x1="271" y1="25.5" x2="280" y2="25.5" gradientUnits="userSpaceOnUse">
<stop stop-color="#FF2464"/>
<stop offset="1" stop-color="white"/>
</linearGradient>
</defs>
</svg>
